<svg width="15" height="17" viewBox="0 0 15 17" fill="none" xmlns="http://www.w3.org/2000/svg">
<path d="M1.45455 15.0455H4.70303V9.27576H9.84242V15.0455H13.0909V6.31818L7.27273 1.9303L1.45455 6.31818V15.0455ZM1.45455 16.5C1.05051 16.5 0.707233 16.3584 0.424727 16.0753C0.141576 15.7928 0 15.4495 0 15.0455V6.31818C0 6.09192 0.0523638 5.87374 0.157091 5.66364C0.262465 5.45354 0.40404 5.28384 0.581818 5.15455L6.4 0.766667C6.52929 0.669697 6.66667 0.600848 6.81212 0.560121C6.95758 0.52004 7.11111 0.5 7.27273 0.5C7.43434 0.5 7.58788 0.52004 7.73333 0.560121C7.87879 0.600848 8.01616 0.669697 8.14545 0.766667L13.9636 5.15455C14.1414 5.28384 14.2827 5.45354 14.3874 5.66364C14.4928 5.87374 14.5455 6.09192 14.5455 6.31818V15.0455C14.5455 15.4495 14.4039 15.7928 14.1207 16.0753C13.8382 16.3584 13.4949 16.5 13.0909 16.5H8.38788V10.7303H6.15758V16.5H1.45455Z" fill="#26263F"/>
</svg>
