<svg width="14" height="20" viewBox="0 0 14 20" fill="none" xmlns="http://www.w3.org/2000/svg">
<path d="M7 19.5C6.76667 19.5 6.56667 19.4367 6.4 19.31C6.23333 19.1833 6.10833 19.0171 6.025 18.8112C5.70833 17.9246 5.30833 17.0933 4.825 16.3175C4.35833 15.5417 3.7 14.6312 2.85 13.5862C2 12.5412 1.30833 11.5437 0.775 10.5937C0.258333 9.64375 0 8.49583 0 7.15C0 5.2975 0.675 3.73 2.025 2.4475C3.39167 1.14917 5.05 0.5 7 0.5C8.95 0.5 10.6 1.14917 11.95 2.4475C13.3167 3.73 14 5.2975 14 7.15C14 8.59083 13.7083 9.79417 13.125 10.76C12.5583 11.71 11.9 12.6521 11.15 13.5862C10.25 14.7262 9.56667 15.6762 9.1 16.4362C8.65 17.1804 8.275 17.9721 7.975 18.8112C7.89167 19.0329 7.75833 19.2071 7.575 19.3338C7.40833 19.4446 7.21667 19.5 7 19.5ZM7 16.1037C7.28333 15.5654 7.6 15.035 7.95 14.5125C8.31667 13.99 8.85 13.2933 9.55 12.4225C10.2667 11.5358 10.85 10.7204 11.3 9.97625C11.7667 9.21625 12 8.27417 12 7.15C12 5.83583 11.5083 4.71958 10.525 3.80125C9.55833 2.86708 8.38333 2.4 7 2.4C5.61667 2.4 4.43333 2.86708 3.45 3.80125C2.48333 4.71958 2 5.83583 2 7.15C2 8.27417 2.225 9.21625 2.675 9.97625C3.14167 10.7204 3.73333 11.5358 4.45 12.4225C5.15 13.2933 5.675 13.99 6.025 14.5125C6.39167 15.035 6.71667 15.5654 7 16.1037ZM7 9.525C7.7 9.525 8.29167 9.29542 8.775 8.83625C9.25833 8.37708 9.5 7.815 9.5 7.15C9.5 6.485 9.25833 5.92292 8.775 5.46375C8.29167 5.00458 7.7 4.775 7 4.775C6.3 4.775 5.70833 5.00458 5.225 5.46375C4.74167 5.92292 4.5 6.485 4.5 7.15C4.5 7.815 4.74167 8.37708 5.225 8.83625C5.70833 9.29542 6.3 9.525 7 9.525Z" fill="url(#paint0_linear_187_1662)"/>
<defs>
<linearGradient id="paint0_linear_187_1662" x1="6.91566" y1="19.5" x2="6.91566" y2="0.5" gradientUnits="userSpaceOnUse">
<stop offset="0.4" stop-color="#4D36D0"/>
<stop offset="1" stop-color="#8474FE"/>
</linearGradient>
</defs>
</svg>
