<svg width="17" height="17" viewBox="0 0 17 17" fill="none" xmlns="http://www.w3.org/2000/svg">
<path d="M4.95833 7.79175V4.95841C4.95833 4.01911 5.33147 3.11827 5.99566 2.45408C6.65985 1.78989 7.56069 1.41675 8.5 1.41675C9.43931 1.41675 10.3401 1.78989 11.0043 2.45408C11.6685 3.11827 12.0417 4.01911 12.0417 4.95841V7.79175M3.54167 7.79175H13.4583C14.2407 7.79175 14.875 8.42601 14.875 9.20841V14.1667C14.875 14.9492 14.2407 15.5834 13.4583 15.5834H3.54167C2.75926 15.5834 2.125 14.9492 2.125 14.1667V9.20841C2.125 8.42601 2.75926 7.79175 3.54167 7.79175Z" stroke="#4D36D0" stroke-width="2" stroke-linecap="round" stroke-linejoin="round"/>
</svg>
