<svg width="15" height="18" viewBox="0 0 15 18" fill="none" xmlns="http://www.w3.org/2000/svg">
<path d="M1.57242 17.2976C1.25449 17.2976 0.978858 17.1809 0.745518 16.9476C0.512178 16.7142 0.395508 16.4386 0.395508 16.1207V1.47449C0.395508 1.15657 0.512178 0.880928 0.745518 0.647588C0.978858 0.414268 1.25449 0.297607 1.57242 0.297607H9.41866C9.73656 0.297607 10.0122 0.414278 10.2456 0.647608C10.4789 0.880948 10.5956 1.15659 10.5956 1.47451V3.82512C10.5956 4.00567 10.4492 4.15204 10.2687 4.15204C10.0881 4.15204 9.94176 4.00567 9.94176 3.82512V2.78222H1.04935V14.813H9.94176V13.7701C9.94176 13.5895 10.0881 13.4432 10.2687 13.4432C10.4492 13.4432 10.5956 13.5895 10.5956 13.7701V16.1207C10.5956 16.4386 10.4789 16.7142 10.2456 16.9476C10.0122 17.1809 9.73656 17.2976 9.41866 17.2976H1.57242ZM1.04935 15.4668V16.1207C1.04935 16.2514 1.10384 16.3713 1.21281 16.4803C1.32179 16.5893 1.44166 16.6437 1.57242 16.6437H9.41866C9.54936 16.6437 9.66926 16.5893 9.77826 16.4803C9.88726 16.3713 9.94176 16.2514 9.94176 16.1207V15.4668H1.04935ZM8.85306 10.6692L13.5837 5.93865C13.6458 5.87655 13.721 5.84277 13.8093 5.83731C13.8975 5.83187 13.9782 5.86565 14.0512 5.93865C14.1242 6.01167 14.1607 6.09041 14.1607 6.17487C14.1607 6.25933 14.1242 6.33806 14.0512 6.41106L9.26666 11.1956C9.14806 11.3122 9.00966 11.3705 8.85156 11.3705C8.69346 11.3705 8.55606 11.3122 8.43946 11.1956L6.06276 8.81882C6.00066 8.75672 5.96766 8.68152 5.96386 8.59332C5.96006 8.50502 5.99466 8.42442 6.06766 8.35132C6.14066 8.27832 6.21856 8.24182 6.30136 8.24182C6.38426 8.24182 6.46216 8.27832 6.53516 8.35132L8.85306 10.6692ZM1.04935 2.12838H9.94176V1.47451C9.94176 1.34376 9.88726 1.22389 9.77826 1.1149C9.66926 1.00593 9.54936 0.951447 9.41866 0.951447H1.57242C1.44166 0.951447 1.32179 1.00593 1.21281 1.1149C1.10384 1.22389 1.04935 1.34376 1.04935 1.47451V2.12838Z" fill="#292B2E"/>
</svg>
