<svg width="599" height="379" viewBox="0 0 599 379" fill="none" xmlns="http://www.w3.org/2000/svg">
<path d="M104.559 378.687C161.14 378.687 207.008 376.096 207.008 372.901C207.008 369.705 161.14 367.115 104.559 367.115C47.9775 367.115 2.10938 369.705 2.10938 372.901C2.10938 376.096 47.9775 378.687 104.559 378.687Z" fill="black" fill-opacity="0.7"/>
<path d="M62.605 189.061L45.8916 259.135L46.8254 259.358L63.5387 189.284L62.605 189.061Z" fill="black"/>
<path d="M95.4195 197.214L79.0107 266.803L79.9451 267.023L96.3539 197.434L95.4195 197.214Z" fill="black"/>
<path d="M25.0489 361.114C24.2972 364.356 21.0601 366.375 17.8182 365.624C14.5762 364.872 12.5573 361.635 13.3081 358.393C14.0588 355.151 17.2969 353.132 20.5388 353.883C23.7807 354.635 25.8006 357.872 25.0489 361.114Z" fill="black"/>
<path d="M63.9688 370.132C63.2171 373.374 59.981 375.393 56.7381 374.642C53.4962 373.89 51.4773 370.653 52.228 367.411C52.9797 364.169 56.2168 362.151 59.4587 362.901C62.7006 363.652 64.7205 366.89 63.9688 370.132Z" fill="black"/>
<path d="M106.432 278.906L85.3913 369.711C84.7375 372.534 81.9199 374.291 79.0975 373.637L16.5151 359.136C13.6927 358.482 11.9359 355.666 12.5897 352.842L33.63 262.037C34.2837 259.214 37.1013 257.458 39.9228 258.111L102.505 272.612C105.329 273.267 107.086 276.084 106.432 278.906Z" fill="black"/>
<path d="M101.643 277.797L80.6027 368.603C80.0574 370.955 78.0875 372.612 75.819 372.878L73.9902 372.455L74.0642 372.136C76.7032 372.748 79.3509 371.097 79.9634 368.455L101.004 277.649C101.616 275.007 99.964 272.361 97.3249 271.749L97.3989 271.43L99.2277 271.854C101.148 273.088 102.188 275.444 101.643 277.797Z" fill="#F7FFFF"/>
<path d="M64.1254 191.814L65.1545 187.371C65.4415 186.133 66.6828 185.359 67.9212 185.646L93.342 191.536C94.5804 191.823 95.3542 193.065 95.0681 194.303L94.039 198.747L97.0188 199.437L98.0489 194.993C98.7161 192.111 96.9151 189.224 94.0332 188.557L68.6124 182.666C65.7305 181.999 62.8428 183.8 62.1756 186.682L61.1465 191.125L64.1254 191.814Z" fill="#C41C27"/>
<path d="M95.8842 271.864L72.8202 371.397C72.7261 371.81 72.3143 372.067 71.9034 371.971L67.1274 370.865L66.4266 370.702L5.67586 356.627L4.97506 356.463L0.592665 355.449C0.179865 355.353 -0.0745353 354.942 0.0195447 354.532L23.0826 254.994C23.1767 254.584 23.5885 254.327 23.9994 254.423L28.3818 255.438L29.0826 255.601L89.8343 269.675L90.537 269.838L95.3101 270.945C95.7229 271.041 95.9802 271.452 95.8842 271.864Z" fill="#C41C27"/>
<path d="M29.0826 255.602L5.67492 356.625L4.97412 356.461L28.3818 255.439L29.0826 255.602Z" fill="black"/>
<path d="M89.8318 269.659L66.4263 370.686L67.1286 370.848L90.5342 269.822L89.8318 269.659Z" fill="black"/>
<path d="M12.0826 302.456L11.9346 303.094L84.7368 319.961L84.8848 319.322L12.0826 302.456Z" fill="#F7FFFF"/>
<path d="M55.3158 319.661L38.4946 315.762L39.999 309.27L40.6374 309.418L39.2809 315.272L54.8252 318.874L56.1817 313.02L56.8201 313.167L55.3158 319.661Z" fill="#F7FFFF"/>
<path d="M25.3486 301.679L23.4746 309.767L30.3888 311.369L32.2628 303.28L25.3486 301.679Z" fill="black"/>
<path d="M66.5029 311.215L64.6289 319.304L71.5431 320.906L73.4171 312.817L66.5029 311.215Z" fill="black"/>
<path d="M173.438 35.4826C170.477 41.4423 155.899 40.225 140.877 32.7639C125.855 25.3018 116.077 14.4221 119.037 8.46147C121.998 2.50179 136.575 3.71907 151.598 11.1802C166.62 18.6423 176.398 29.5229 173.438 35.4826Z" fill="#AE6317"/>
<path d="M145.512 11.1592C145.512 11.1592 137.807 7.1589 132.058 15.3995C126.309 23.6402 128.139 43.0187 114.106 60.076L148.21 61.5592C148.21 61.5592 156.417 48.1192 159.781 37.8491C163.621 26.1247 165.309 15.3995 156.415 11.6795C151.15 9.4773 145.512 11.1592 145.512 11.1592Z" fill="black"/>
<path d="M125.08 59.9215C125.08 59.9215 107.038 57.9084 101.248 63.8018C95.4568 69.6952 86.0268 105.878 89.5721 127.33C91.8012 140.819 120.432 138.918 120.432 138.918L125.08 59.9215Z" fill="#C01C27"/>
<path d="M96.9884 71.1485C100.855 73.0896 105.125 73.9152 109.437 73.5264C109.895 73.4851 109.898 72.7651 109.437 72.8064C105.253 73.1837 101.108 72.4118 97.3522 70.5264C96.9385 70.319 96.5737 70.9402 96.9884 71.1485Z" fill="black"/>
<path d="M97.4443 102.233C97.7812 98.3838 94.668 95.1044 90.8078 95.2868C88.884 95.378 87.108 95.9262 86.4293 97.4698C84.6696 101.47 81.9489 119.403 83.8689 121.796C84.852 123.022 87.1358 123.704 89.1297 124.077C91.116 124.45 93.0552 123.235 93.5899 121.286C94.8149 116.827 96.8875 108.605 97.4443 102.233Z" fill="#911127"/>
<path d="M91.7724 93.5875C89.0863 93.1738 86.4598 94.6464 85.4326 97.1626C84.5974 99.2083 83.7027 101.86 83.9494 103.343C84.39 105.994 96.5897 107.576 97.4691 106.527C98.3494 105.479 99.4697 99.9139 97.4691 96.6365C96.4399 94.9498 94.0639 93.9408 91.7724 93.5875Z" fill="#DC8D30"/>
<path d="M105.381 46.8L137.881 49.1175C137.881 49.1175 139.594 61.6839 137.136 66.3524L100.804 65.0813L105.381 46.8Z" fill="#DC8D30"/>
<path d="M124.182 48.6202C124.17 48.6202 124.158 48.6202 124.147 48.6192L109.402 47.568C109.138 47.5488 108.939 47.3194 108.958 47.0554C108.977 46.7914 109.207 46.5917 109.47 46.6109L124.215 47.6621C124.479 47.6813 124.679 47.9107 124.66 48.1747C124.642 48.4272 124.431 48.6202 124.182 48.6202Z" fill="black"/>
<path d="M109.695 57.744C108.314 62.7667 104.334 66.0518 100.803 65.0812C97.2735 64.1116 95.5301 59.2531 96.9106 54.2304C98.2911 49.2076 102.271 45.9225 105.802 46.8931C109.332 47.8627 111.075 52.7213 109.695 57.744Z" fill="black"/>
<path d="M133.685 42.169C133.667 42.169 133.649 42.1671 133.63 42.1642L128.295 41.1745C128.196 41.1562 128.113 41.09 128.074 40.9969C128.034 40.9047 128.044 40.7991 128.099 40.7146L131.921 34.8855C131.988 34.7847 132.108 34.7338 132.227 34.755C132.346 34.777 132.44 34.8673 132.466 34.9854L133.979 41.8042C134.001 41.9022 133.972 42.0049 133.902 42.0778C133.843 42.1364 133.766 42.169 133.685 42.169ZM128.848 40.6666L133.294 41.4913L132.034 35.809L128.848 40.6666Z" fill="#F7FFFF"/>
<path d="M168.681 87.3198C168.681 87.3198 173.567 116.861 175.521 125.172C177.287 132.688 194.528 171.79 194.528 171.79L187.279 174.54C187.279 174.54 165.543 141.028 162.895 136.392C160.247 131.756 154.007 89.5269 154.007 89.5269L168.681 87.3198Z" fill="#CF6A53"/>
<path d="M170.661 128.513C172.129 127.48 173.721 126.731 175.456 126.263C175.679 126.203 175.584 125.855 175.36 125.916C173.599 126.39 171.97 127.151 170.479 128.202C170.292 128.335 170.471 128.648 170.661 128.513Z" fill="#9B4937"/>
<path d="M187.401 172.919C187.401 172.919 185.961 176.159 186.321 178.799C186.681 181.439 188.241 186.359 189.441 186.479C190.641 186.599 189.561 181.679 191.121 180.839C192.681 179.999 196.641 184.199 197.241 185.399C197.841 186.599 199.041 192.959 200.721 193.319C202.401 193.679 201.441 189.119 201.441 189.119C201.441 189.119 202.827 183.719 201.714 180.359C200.601 176.999 193.652 169.794 193.652 169.794L187.401 172.919Z" fill="#CF6A53"/>
<path d="M201.665 188.842C201.43 185.981 200.45 183.317 198.761 180.995C198.625 180.81 198.313 180.989 198.45 181.176C200.099 183.444 201.074 186.045 201.305 188.841C201.324 189.071 201.684 189.073 201.665 188.842Z" fill="#9B4937"/>
<path d="M200.265 181.744C201.067 182.96 201.563 184.285 201.761 185.726C201.792 185.955 202.139 185.858 202.108 185.63C201.907 184.162 201.392 182.799 200.577 181.563C200.449 181.37 200.137 181.55 200.265 181.744Z" fill="#9B4937"/>
<path d="M157.843 58.0024C157.843 58.0024 162.734 60.125 164.907 68.4271C167.079 76.7292 170.361 88.6053 170.361 88.6053L158.243 92.1919L157.843 58.0024Z" fill="#584CDC"/>
<path d="M168.864 84.6348C166.851 85.3241 164.847 86.0364 162.907 86.9168C162.486 87.1078 162.118 86.4838 162.542 86.2918C164.537 85.3865 166.599 84.6463 168.671 83.9369C169.114 83.7852 169.304 84.4851 168.864 84.6348Z" fill="black"/>
<path d="M136.177 333.918H148.903C148.117 343.92 146.45 353.111 146.535 357.6C146.535 357.6 143.623 364.19 137.511 357.44C137.511 357.44 136.72 342.017 136.177 333.918Z" fill="#CF6A53"/>
<path d="M152.395 345.076L131.992 344.591C130.402 320.083 129.458 286.33 133.89 275.004C133.89 275.004 131.792 260.418 130.657 244.517C128.823 218.845 135.104 174.872 135.104 174.872L160.247 131.756C160.247 131.756 171.772 164.24 157.867 272.85C157.867 272.85 154.353 309.215 152.395 345.076Z" fill="black"/>
<path d="M152.492 340.525C145.628 340.737 138.761 340.578 131.914 340.047C131.452 340.011 131.449 339.286 131.914 339.323C138.761 339.854 145.628 340.013 152.492 339.801C152.957 339.787 152.957 340.51 152.492 340.525Z" fill="#F7FFFF"/>
<path d="M134.712 244.604C135.061 250.361 135.83 256.105 136.53 261.828C136.864 264.558 137.208 267.286 137.559 270.014C137.709 271.174 137.985 272.39 137.976 273.56C137.952 276.409 137.526 279.311 137.334 282.156C137.096 285.686 136.885 289.218 136.697 292.751C136.277 300.647 135.966 308.551 135.843 316.458C135.721 324.287 135.688 332.169 136.422 339.973C136.465 340.436 135.742 340.433 135.698 339.973C135.061 333.198 135.024 326.363 135.082 319.564C135.149 311.632 135.428 303.703 135.818 295.782C136.15 289.048 136.56 282.315 137.088 275.593C137.204 274.115 137.217 272.956 137.029 271.509C136.715 269.099 136.409 266.687 136.108 264.276C135.295 257.742 134.387 251.181 133.99 244.606C133.961 244.139 134.685 244.141 134.712 244.604Z" fill="#42486B"/>
<path d="M170.487 372.901H136.971C136.971 372.901 136.486 367.936 136.061 363.509C135.781 360.631 135.529 357.98 135.448 357.067C135.245 354.751 138.526 357.646 138.526 357.646L143.537 358.319C143.537 358.319 143.778 357.031 145.612 356.54C146.392 356.332 147.209 356.347 147.987 356.566C151.25 357.487 151.268 361.121 151.268 361.121C151.268 361.121 161.503 364.79 164.267 364.982C166.722 365.154 168.903 366.544 170.088 371.043C170.238 371.613 170.371 372.23 170.487 372.901Z" fill="#518E4B"/>
<path d="M153.871 362.16C152.703 362.105 151.637 362.656 151.024 363.653C150.86 363.92 150.437 363.675 150.603 363.407C151.303 362.27 152.534 361.609 153.871 361.673C154.183 361.687 154.185 362.175 153.871 362.16Z" fill="#F7FFFF"/>
<path d="M156.021 362.757C154.852 362.702 153.787 363.253 153.173 364.25C153.009 364.517 152.587 364.272 152.753 364.005C153.453 362.867 154.684 362.206 156.022 362.27C156.333 362.284 156.335 362.772 156.021 362.757Z" fill="#F7FFFF"/>
<path d="M158.031 363.569C156.864 363.513 155.797 364.064 155.184 365.062C155.02 365.329 154.597 365.084 154.762 364.817C155.463 363.679 156.694 363.018 158.031 363.082C158.343 363.096 158.345 363.584 158.031 363.569Z" fill="#F7FFFF"/>
<path d="M149.754 358.819C149.754 359.58 148.772 360.197 147.56 360.197C146.349 360.197 145.367 359.58 145.367 358.819C145.367 358.057 146.349 357.44 147.56 357.44C148.773 357.44 149.754 358.057 149.754 358.819Z" fill="#305320"/>
<path d="M170.487 372.901H136.971C136.971 372.901 136.486 367.936 136.061 363.509C136.569 363.251 139.205 362.917 141.304 364.972C143.719 367.334 143.417 369.189 146.436 368.683C149.455 368.178 151.418 366.322 154.738 368.009C157.378 369.35 158.663 371.045 158.663 371.045H170.088C170.238 371.613 170.371 372.23 170.487 372.901Z" fill="#F7FFFF"/>
<path d="M93.636 344.36C93.636 344.36 94.9176 345.427 94.0065 348.342C93.0955 351.256 91.5672 355.608 91.5672 355.608L88.4712 350.664L90.3864 343.734L93.636 344.36Z" fill="#305320"/>
<path d="M86.5005 333.918H98.2807C95.0167 341.383 92.8903 346.241 92.8903 346.241C92.8903 346.241 87.2215 351.04 84.522 348.52L85.6423 340.981C85.6423 340.981 85.9706 338.232 86.5005 333.918Z" fill="#CF6A53"/>
<path d="M156.304 115.067C156.304 115.067 164.433 130.93 162.725 163.696C162.725 163.696 154.769 172.194 133.709 171.952C112.649 171.711 106.107 176.055 106.107 176.055C106.107 176.055 104.443 145.112 108.546 133.791C112.649 122.469 120.796 120.363 123.24 113.088C124.838 115.352 150.24 120.059 156.304 115.067Z" fill="black"/>
<path d="M153.715 143.649C151.988 150.062 155.604 156.655 161.952 158.608C162.396 158.744 162.206 159.443 161.759 159.305C155.034 157.238 151.184 150.257 153.016 143.456C153.138 143.007 153.837 143.198 153.715 143.649Z" fill="#42486B"/>
<path d="M101.707 338.409C95.4129 339.002 89.1969 338.796 83.0635 337.716C86.7451 314.312 92.1998 289.914 93.6772 283.635C96.1224 273.244 106.332 247.573 106.332 247.573C106.332 247.573 104.498 176.813 106.353 161.837C108.208 146.862 139.898 166.65 139.898 166.65C139.898 166.65 136.158 246.792 132.032 256.503C129.319 262.888 114.229 305.112 101.707 338.409Z" fill="black"/>
<path d="M103.054 333.928C96.8877 334.45 90.4442 334.084 84.3645 332.94C83.9066 332.853 84.1005 332.155 84.5575 332.242C90.57 333.374 96.9559 333.72 103.054 333.204C103.518 333.163 103.516 333.888 103.054 333.928Z" fill="#F7FFFF"/>
<path d="M125.572 143.55C126.079 148.604 124.19 153.813 120.415 157.251C116.696 160.638 111.514 162.049 106.582 161.212C106.123 161.134 106.318 160.436 106.774 160.513C111.564 161.326 116.654 159.858 120.179 156.481C123.648 153.157 125.326 148.303 124.848 143.55C124.801 143.087 125.525 143.09 125.572 143.55Z" fill="#42486B"/>
<path d="M139.744 170.591C138.534 193.082 138.652 215.69 135.68 238.054C134.853 244.282 133.778 250.475 132.381 256.601C132.277 257.055 131.579 256.863 131.682 256.409C136.695 234.437 137.404 211.824 138.217 189.392C138.445 183.124 138.682 176.855 139.019 170.591C139.044 170.128 139.769 170.125 139.744 170.591Z" fill="#42486B"/>
<path d="M92.959 347.588C92.959 347.588 93.1213 350.99 93.1213 353.529C93.1213 356.068 92.1037 358.453 92.1037 358.453C92.1037 358.453 93.5149 370.734 90.9344 373.422C88.3539 376.11 81.1443 374.39 78.6733 373.852C76.2022 373.314 76.0947 368.609 78.1376 364.833C80.1805 361.056 80.5481 359.492 81.7625 356.295C82.976 353.099 84.6281 350.216 84.607 348.38C84.5926 347.164 84.3027 344.814 88.0304 345.099C90.6157 345.297 92.5914 346.169 92.959 347.588Z" fill="#518E4B"/>
<path d="M89.242 354.687C87.9777 353.703 86.2958 353.543 84.8625 354.25C84.5582 354.399 84.2903 353.944 84.5956 353.794C86.2622 352.972 88.1524 353.175 89.6155 354.314C89.8833 354.522 89.507 354.894 89.242 354.687Z" fill="#F7FFFF"/>
<path d="M88.7669 356.822C87.5026 355.838 85.8207 355.677 84.3874 356.384C84.0831 356.534 83.8152 356.079 84.1205 355.928C85.7871 355.105 87.6773 355.31 89.1403 356.448C89.4091 356.656 89.0328 357.028 88.7669 356.822Z" fill="#F7FFFF"/>
<path d="M88.097 359.281C86.8336 358.297 85.1507 358.137 83.7175 358.843C83.4131 358.993 83.1453 358.537 83.4506 358.386C85.1171 357.565 87.0074 357.768 88.4704 358.907C88.7392 359.116 88.3619 359.488 88.097 359.281Z" fill="#F7FFFF"/>
<path d="M90.9423 348.383C90.83 349.201 89.6847 349.72 88.3839 349.541C87.0831 349.362 86.1192 348.555 86.2316 347.737C86.3439 346.919 87.4892 346.401 88.7909 346.579C90.0908 346.758 91.0546 347.565 90.9423 348.383Z" fill="#305320"/>
<path d="M93.1061 354.062C93.1061 354.062 93.8943 356.677 93.1061 358.782C92.3179 360.888 93.3442 365.682 93.1214 369.637C92.8987 373.591 92.3496 375.055 88.5087 375.603C84.6677 376.152 78.6792 376.258 76.7035 373.591C75.1109 371.441 76.8312 368.654 76.8312 368.654C76.8312 368.654 76.093 370.7 78.7694 371.678C80.3726 372.263 80.461 370.024 83.5704 370.23C85.3954 370.351 85.3541 372.593 88.6075 372.504C90.7829 372.444 91.8014 369.998 91.069 367.359C90.3374 364.72 92.1029 358.454 92.1029 358.454L93.1061 354.062Z" fill="#F7FFFF"/>
<path d="M124.45 274.567C120.686 275.209 116.834 274.257 113.792 271.952C113.49 271.722 113.857 271.262 114.16 271.492C117.085 273.709 120.768 274.598 124.385 273.982C124.758 273.918 124.823 274.503 124.45 274.567Z" fill="#42486B"/>
<path d="M139.821 167.867C140.063 167.867 140.26 167.67 140.26 167.427V147.642C140.26 147.399 140.063 147.203 139.821 147.203C139.578 147.203 139.381 147.399 139.381 147.642V167.427C139.381 167.67 139.578 167.867 139.821 167.867Z" fill="#42486B"/>
<path d="M142.245 158.66C142.949 158.66 143.659 158.452 144.181 157.814C145.516 156.184 144.833 147.69 144.751 146.726C144.73 146.485 144.518 146.305 144.276 146.326C144.034 146.347 143.854 146.559 143.876 146.801C144.175 150.302 144.338 156.236 143.502 157.257C142.49 158.491 140.06 157.165 140.036 157.151C139.824 157.034 139.557 157.11 139.438 157.322C139.32 157.534 139.396 157.801 139.608 157.919C139.688 157.964 140.958 158.66 142.245 158.66Z" fill="#42486B"/>
<path d="M103.094 137.512C111.542 150.564 157.439 153.942 165.734 137.512L160.572 100.132C160.572 100.132 159.653 96.8124 162.212 91.2117C162.276 91.0735 162.333 90.9352 162.387 90.7951C164.513 85.2943 159.557 78.9765 161.781 72.1019C161.804 72.0319 161.825 71.9618 161.847 71.8936C161.924 71.6392 161.995 71.3867 162.058 71.14C163.7 64.6024 159.981 59.9829 157.846 58.0053L157.844 58.0024C157.032 57.2517 155.511 56.3906 153.681 55.5208C153.441 55.4066 153.194 55.2933 152.945 55.1791C147.468 52.6754 139.9 50.2188 139.9 50.2188C139.9 50.2188 127.023 54.1231 121.01 55.9884C114.998 57.8546 113.268 66.0885 115.754 76.8703C116.84 81.5714 116.648 90.1595 114.32 101.113C111.307 115.281 103.094 137.512 103.094 137.512Z" fill="#584CDC"/>
<path d="M133.809 81.9392C141.723 82.9798 146.978 90.7174 145.114 98.4627C145.006 98.9129 145.7 99.1049 145.808 98.6537C147.791 90.4112 142.189 82.3213 133.808 81.2192C133.351 81.1587 133.356 81.8797 133.809 81.9392Z" fill="#7373FA"/>
<path d="M133.265 68.9608C137.094 68.429 139.779 71.8332 141.437 74.7948C142.958 77.5125 144.282 80.2687 146.703 82.3192C150.785 85.7791 156.494 87.0683 161.64 85.5688C162.084 85.4392 161.896 84.7442 161.449 84.8748C155.677 86.5557 149.065 84.557 145.288 79.8376C141.956 75.6732 140.003 67.3039 133.074 68.2658C132.617 68.3301 132.811 69.0232 133.265 68.9608Z" fill="#7373FA"/>
<path d="M116.189 88.5985C118.806 88.6782 121.406 88.1204 123.773 86.9329C129.096 84.266 132.384 78.5233 132.162 72.5905C131.947 66.9034 128.375 61.7185 123.269 59.2858C122.85 59.0881 122.482 59.7111 122.905 59.9108C129.299 62.9569 132.792 70.1818 130.921 77.0631C129.124 83.6698 122.931 88.0695 116.242 87.8842C116.226 88.1204 116.209 88.3566 116.189 88.5985Z" fill="#7373FA"/>
<path d="M162.613 72.5023C161.715 75.4466 161.568 78.5628 162.307 81.5609C162.94 84.1279 164.195 86.574 163.548 89.2687C163.439 89.7218 162.74 89.5298 162.85 89.0757C163.579 86.0393 161.716 83.046 161.286 80.0805C160.907 77.4684 161.148 74.8284 161.915 72.3093C162.05 71.8649 162.749 72.0549 162.613 72.5023Z" fill="black"/>
<path d="M150.861 142.201C151.209 142.51 151.721 142 151.373 141.689C144.385 135.44 147.453 124.456 152.35 117.919C154.832 114.61 158.235 112.015 162.019 110.609L161.908 109.82C155.898 111.954 151.268 116.953 148.704 122.729C145.913 129.016 145.27 137.202 150.861 142.201Z" fill="#7373FA"/>
<path d="M112.977 106.719C116.303 108.311 120.097 109.125 123.682 109.511C128.76 110.057 133.776 109.46 138.689 108.133C145.73 106.228 153.804 102.962 161.158 104.377L161.062 103.684C158.926 103.303 156.717 103.262 154.544 103.459C149.922 103.882 145.505 105.381 141.08 106.696C136.247 108.13 131.394 109.166 126.322 108.977C121.895 108.813 117.205 107.937 113.164 105.989C113.103 106.231 113.039 106.475 112.977 106.719Z" fill="#7373FA"/>
<path d="M112.81 110.516C119.036 110.57 125.119 112.878 129.84 116.938C134.634 121.062 137.655 126.906 138.476 133.158C138.959 136.835 138.653 140.569 137.588 144.119C137.454 144.565 136.755 144.375 136.89 143.926C139.195 136.25 137.748 127.61 132.879 121.207C128.167 115.011 120.57 111.305 112.811 111.239C112.344 111.236 112.343 110.513 112.81 110.516Z" fill="#7373FA"/>
<path d="M128.169 143.488C128.504 138.897 126.835 134.261 123.494 131.057C120.153 127.854 115.444 126.391 110.874 126.917C110.412 126.97 110.416 126.246 110.874 126.193C115.629 125.646 120.538 127.219 124.006 130.546C127.475 133.872 129.241 138.718 128.894 143.489C128.859 143.95 128.134 143.954 128.169 143.488Z" fill="#7373FA"/>
<path d="M157.987 70.2913C158.697 70.7732 159.478 71.1755 160.322 71.4788C160.834 71.6631 161.343 71.7985 161.847 71.8935C163.219 72.1508 164.554 72.0923 165.839 71.7918L165.678 71.2369L165.627 71.0574C164.416 71.3166 163.211 71.3387 162.058 71.1399C160.589 70.8884 159.201 70.2817 157.977 69.3563C157.519 69.0126 157.085 68.6219 156.678 68.1879C153.295 64.5889 152.779 59.9972 153.68 55.5217C153.44 55.4075 153.193 55.2942 152.944 55.1799C152.745 56.1198 152.61 57.075 152.549 58.0417C152.262 62.6478 154.128 67.6695 157.987 70.2913Z" fill="#7373FA"/>
<path d="M127.01 54.146C128.768 57.4139 132.509 59.3675 136.386 58.4257C139.985 57.5492 142.323 54.5416 142.707 51.172C142.468 51.0875 142.239 51.0107 142.024 50.9358C141.719 54.0884 139.516 56.9243 136.192 57.7259C132.73 58.563 129.327 56.8446 127.7 53.9339C127.469 54.0059 127.24 54.076 127.01 54.146Z" fill="#7373FA"/>
<path d="M115.444 101.395C112.539 112.8 110.615 124.386 109.088 136.047C109.028 136.503 108.303 136.509 108.364 136.047C109.9 124.321 111.825 112.671 114.746 101.202C114.86 100.752 115.559 100.943 115.444 101.395Z" fill="black"/>
<path d="M164.881 133.93C152.953 146.558 132.892 146.978 117.595 141.18C112.99 139.434 108.603 137.125 104.62 134.224C104.247 133.953 104.608 133.324 104.986 133.6C118.646 143.545 137.877 147.541 153.745 140.698C157.723 138.982 161.388 136.574 164.369 133.418C164.69 133.078 165.201 133.591 164.881 133.93Z" fill="black"/>
<path d="M155.092 62.7401C155.424 64.158 154.608 65.504 153.36 66.175C151.691 67.0726 149.631 66.5552 147.926 66.0617C143.703 64.8397 139.757 62.8467 135.994 60.6032C135.683 60.4179 135.966 59.9312 136.278 60.1174C139.322 61.9318 142.475 63.583 145.815 64.7849C147.444 65.3705 149.217 66.0233 150.96 66.0867C152.726 66.151 155.048 65.0201 154.55 62.8899C154.467 62.5376 155.009 62.3878 155.092 62.7401Z" fill="black"/>
<path d="M158.564 100.434C147.984 98.0931 136.576 101.28 126.436 96.702C126.06 96.5321 126.386 95.9782 126.76 96.1472C136.812 100.685 148.233 97.4902 158.735 99.8144C159.139 99.9036 158.968 100.523 158.564 100.434Z" fill="black"/>
<path d="M151.108 53.6142C151.108 53.6142 147.345 66.4993 134.957 53.4452L136.572 48.8555L138.333 43.8481L139.566 40.3422L151.573 35.8215L151.108 53.6142Z" fill="#CF6A53"/>
<path d="M148.21 41.3491C142.105 49.5139 138.013 49.2979 136.572 48.8554L138.333 43.848L148.21 41.3491Z" fill="black"/>
<path d="M155.45 33.8756C153.833 37.3115 152.623 38.3358 149.408 41.4145C146.538 44.162 142.216 45.0961 140.109 44.932C132.452 44.3348 129.424 40.7137 131.984 30.6068C133.576 24.3313 132.379 20.499 134.389 18.2968L134.392 18.2977C134.518 18.2017 134.645 18.1086 134.772 18.0184C137.822 15.8488 141.628 15.0136 145.33 15.5636C163.731 18.3006 157.77 28.9451 155.45 33.8756Z" fill="#CF6A53"/>
<path d="M142.027 30.1748C141.929 30.5588 141.539 30.7911 141.155 30.6932C140.771 30.5953 140.538 30.2046 140.636 29.8206C140.734 29.4366 141.125 29.2043 141.509 29.3022C141.894 29.4001 142.125 29.7908 142.027 30.1748Z" fill="black"/>
<path d="M136.152 29.1841C136.054 29.5681 135.664 29.8004 135.28 29.7025C134.896 29.6046 134.663 29.2139 134.761 28.8299C134.859 28.4459 135.25 28.2135 135.634 28.3115C136.018 28.4094 136.25 28.8001 136.152 29.1841Z" fill="black"/>
<path d="M147.716 20.1265C147.716 20.1265 145.29 25.8394 147.716 27.4484C150.143 29.0573 146.518 31.4564 148.21 32.7917C149.901 34.1261 152.677 29.8666 156.358 31.9565C156.358 31.9565 161.039 28.0925 159.453 20.1265C159.453 20.1265 152.611 23.1841 147.716 20.1265Z" fill="#9B4937"/>
<path d="M159.452 20.1264C159.452 20.1264 153.473 23.6199 147.426 20.8925C141.379 18.1651 136.872 24.9591 131.651 23.6391C126.429 22.3191 132.474 14.1591 141.331 13.9191C150.189 13.6791 157.916 14.3328 159.452 20.1264Z" fill="black"/>
<path d="M138.768 29.426C138.315 30.0251 137.862 30.6231 137.409 31.2222C137.207 31.4881 136.884 31.7137 137.16 31.9844C137.382 32.2014 137.796 32.355 138.063 32.5115C138.376 32.6939 138.092 33.1806 137.778 32.9972C137.358 32.7515 136.24 32.3828 136.398 31.7156C136.487 31.3355 136.931 30.9255 137.161 30.6212C137.535 30.1287 137.907 29.6353 138.28 29.1428C138.497 28.8567 138.987 29.1371 138.768 29.426Z" fill="black"/>
<path d="M134.839 34.5725C134.839 34.5725 137.095 35.4759 141.485 35.2618C141.485 35.2618 140.33 39.0586 137.193 38.3779C134.533 37.8 134.839 34.5725 134.839 34.5725Z" fill="#F7FFFF"/>
<path d="M136.038 39.9025C136.742 40.2923 137.538 40.443 138.248 39.988C138.608 39.7576 138.233 39.2113 137.874 39.4417C137.367 39.7662 136.815 39.5761 136.328 39.3073C135.955 39.1 135.666 39.6961 136.038 39.9025Z" fill="#9B4937"/>
<path d="M145.875 33.3572C145.773 33.9015 144.844 34.1837 143.8 33.9879C142.755 33.792 141.991 33.193 142.094 32.6477C142.195 32.1034 143.125 31.8212 144.169 32.017C145.214 32.2138 145.978 32.8128 145.875 33.3572Z" fill="#9B4937"/>
<path d="M134.952 31.8885C134.851 32.4347 133.92 32.716 132.878 32.5211C132.386 32.4289 131.956 32.2475 131.652 32.0248C131.751 31.5659 131.861 31.0936 131.984 30.6078C131.988 30.5877 131.995 30.5675 131.997 30.5493C132.351 30.4715 132.788 30.4657 133.247 30.5512C134.289 30.7461 135.054 31.3451 134.952 31.8885Z" fill="#9B4937"/>
<path d="M142.144 26.9895C142.935 26.8455 143.896 27.1565 144.062 28.0455C144.217 28.8749 145.54 28.7741 145.382 27.9341C145.09 26.3683 143.606 25.3824 142.033 25.6695C141.203 25.8202 141.302 27.1431 142.144 26.9895Z" fill="black"/>
<path d="M134.463 26.5441C135.078 26.0199 135.873 25.2452 136.739 25.6378C137.516 25.9901 138.097 24.7997 137.32 24.4474C135.941 23.8225 134.754 24.5655 133.714 25.4506C133.071 25.9988 133.813 27.097 134.463 26.5441Z" fill="black"/>
<path d="M147.758 35.4269C147.559 34.0253 148.072 32.6198 149.053 31.5965C150.322 30.2717 152.579 28.2893 154.285 28.8557C156.794 29.689 156.676 32.0342 155.992 34.319C155.308 36.6038 153.211 39.3734 150.089 38.2867C148.528 37.7443 147.923 36.575 147.758 35.4269Z" fill="#CF6A53"/>
<path d="M151.235 35.6142C151.264 34.6369 151.362 33.6251 151.867 32.763C152.318 31.9931 153.427 30.9505 154.425 31.4641C154.759 31.6369 155.085 31.1454 154.748 30.9716C153.787 30.4763 152.725 30.9179 151.995 31.6388C150.941 32.6785 150.687 34.1675 150.645 35.5873C150.634 35.9665 151.223 35.9944 151.235 35.6142Z" fill="black"/>
<path d="M129.581 27.0808L137.992 28.5208C137.992 28.5208 136.622 33.8047 132.461 32.7573C128.235 31.6927 129.581 27.0808 129.581 27.0808Z" fill="black"/>
<path d="M139.269 28.6284L147.68 30.0684C147.68 30.0684 146.31 35.3523 142.149 34.3049C137.923 33.2412 139.269 28.6284 139.269 28.6284Z" fill="black"/>
<path d="M137.346 29.2868C138.227 29.1572 139.094 29.3963 139.786 29.956C139.964 30.1 140.221 29.8475 140.04 29.7016C139.237 29.0526 138.271 28.7896 137.25 28.9403C137.021 28.9729 137.118 29.3195 137.346 29.2868Z" fill="black"/>
<path d="M147.126 30.6683C148.481 30.1365 149.88 30.0463 151.29 30.413C151.515 30.4715 151.61 30.124 151.386 30.0655C149.921 29.6843 148.441 29.7669 147.031 30.3208C146.817 30.4053 146.91 30.7538 147.126 30.6683Z" fill="black"/>
<path d="M123.729 54.9745C123.729 54.9745 128.779 67.036 125.579 86.2398C122.443 105.068 106.938 107.36 106.938 107.36L104.12 119.759C104.12 119.759 129.378 117.816 135.456 92.1918C140.694 70.1137 134.414 51.8843 134.414 51.8843C134.414 51.8843 127.194 51.9947 123.729 54.9745Z" fill="black"/>
<path d="M103.094 86.953C103.094 86.953 101.041 91.5207 108.642 95.28C116.242 99.0394 119.73 97.4861 119.73 97.4861C119.73 97.4861 122.674 89.5997 115.458 86.3203C108.24 83.0391 104.346 84.5463 103.094 86.953Z" fill="black"/>
<path d="M108.578 76.343C108.578 76.343 98.9179 110.432 93.3288 123.223C87.7387 136.015 78.4814 173.279 78.4814 173.279L85.6814 173.999C85.6814 173.999 102.796 135.856 105.669 129.386C108.541 122.916 119.729 91.2125 119.729 91.2125L108.578 76.343Z" fill="#CF6A53"/>
<path d="M78.4803 173.279C78.4803 173.279 74.4003 178.799 73.6006 180.799C72.8009 182.798 71.4406 187.199 72.7203 188.159C74 189.119 80.8006 190.879 82.1599 190.399C83.5203 189.919 84.4486 186.334 84.7616 186.406C85.0736 186.478 88.7955 187.341 88.7955 187.341C88.7955 187.341 88.4796 185.212 87.1999 182.525C85.9203 179.838 85.6803 173.998 85.6803 173.998L78.4803 173.279Z" fill="#CF6A53"/>
<path d="M84.9975 186.241C85.0935 184.585 84.9946 182.95 84.7085 181.316C84.6692 181.089 84.3217 181.185 84.361 181.412C84.6413 183.015 84.7306 184.617 84.6365 186.241C84.6241 186.472 84.9841 186.471 84.9975 186.241Z" fill="#9B4937"/>
<path d="M95.7325 117.837C97.8512 118.731 99.8384 119.855 101.691 121.218C101.96 121.416 101.674 121.85 101.404 121.651C99.5869 120.314 97.6457 119.206 95.5664 118.33C95.2601 118.2 95.4233 117.707 95.7325 117.837Z" fill="#9B4937"/>
<path d="M124.935 54.7795C124.935 54.7795 114.497 55.7933 111.48 64.5111C108.465 73.2288 103.094 86.952 103.094 86.952C106.133 82.152 122.769 92.6842 119.73 97.4851C119.73 97.4851 124.685 81.6279 126.328 73.3901C128.097 64.5111 124.935 54.7795 124.935 54.7795Z" fill="#584CDC"/>
<path d="M105.844 81.8303C112.514 81.1583 118.778 84.718 121.598 90.7987C121.793 91.2182 122.414 90.8534 122.22 90.4348C119.305 84.1478 112.742 80.4153 105.844 81.1103C105.388 81.1564 105.383 81.8774 105.844 81.8303Z" fill="black"/>
<path d="M127.816 73.2115C125.126 80.8704 122.63 88.5965 120.332 96.3821C120.201 96.8275 119.502 96.6384 119.634 96.1891C121.933 88.4035 124.428 80.6774 127.118 73.0185C127.272 72.5827 127.972 72.7709 127.816 73.2115Z" fill="black"/>
<path d="M154.007 44.1379C153.997 44.1379 153.988 44.1379 153.979 44.137L147.689 43.5581C147.586 43.5485 147.496 43.487 147.449 43.3949C147.402 43.3027 147.406 43.1933 147.458 43.105L151.192 36.865C151.251 36.7661 151.361 36.7094 151.476 36.72C151.591 36.7306 151.689 36.8054 151.729 36.913L154.287 43.7318C154.323 43.8288 154.307 43.9373 154.245 44.0189C154.188 44.0947 154.1 44.1379 154.007 44.1379ZM148.219 43.0042L153.557 43.4957L151.387 37.7078L148.219 43.0042Z" fill="#F7FFFF"/>
<path d="M151.573 54.7796C151.573 54.7796 157.098 67.946 159.18 80.7917C161.262 93.6375 160.03 97.9191 160.03 97.9191L162.42 115.039C162.42 115.039 165.408 92.9338 164.731 79.3584C164.055 65.784 158.928 58.6618 158.928 58.6618C158.928 58.6618 153.775 52.6868 151.573 54.7796Z" fill="black"/>
<path d="M134.798 51.7172C136.751 58.321 139.387 66.8391 146.577 69.5021C147.791 69.9514 149.248 70.1357 150.374 69.3629C151.432 68.6362 151.787 67.297 151.943 66.098C152.47 62.0362 152.091 57.7911 151.259 53.7975C151.212 53.5709 150.864 53.6669 150.911 53.8935C151.642 57.3975 151.93 60.9754 151.715 64.5505C151.623 66.0884 151.558 68.0929 150.153 69.0567C148.587 70.1309 146.513 69.2151 145.067 68.3617C139.139 64.8586 136.978 57.8199 135.145 51.6231C135.08 51.4004 134.732 51.4945 134.798 51.7172Z" fill="#F7FFFF"/>
<path d="M134.97 11.6622C134.97 11.6622 142.907 -0.337827 155.001 6.34473C164.157 11.4039 165.556 20.1044 162.409 26.1361C162.409 26.1361 154.295 10.2116 134.97 11.6622Z" fill="#DC8D30"/>
<path d="M162.604 26.5911C162.604 26.5911 154.295 10.2116 134.969 11.6621C134.969 11.6621 136.86 8.80327 140.203 6.65479C143.843 7.73287 147.705 9.24678 151.599 11.1802C156.282 13.5053 160.455 16.1636 163.893 18.9025C164.084 21.4618 163.734 24.4273 162.604 26.5911Z" fill="#AE6317"/>
<path d="M309.333 378.686C359.757 378.686 400.634 376.096 400.634 372.9C400.634 369.705 359.757 367.115 309.333 367.115C258.908 367.115 218.031 369.705 218.031 372.9C218.031 376.096 258.908 378.686 309.333 378.686Z" fill="black" fill-opacity="0.7"/>
<path d="M290.752 315.682C289.772 315.682 288.977 314.888 288.977 313.907V302.341H264.067V313.906C264.067 314.887 263.272 315.681 262.292 315.681C261.311 315.681 260.517 314.887 260.517 313.906V300.566C260.517 299.586 261.311 298.791 262.292 298.791H290.753C291.733 298.791 292.528 299.586 292.528 300.566V313.906C292.527 314.888 291.732 315.682 290.752 315.682Z" fill="#DC8D30"/>
<path d="M324.777 314.237V369.803C324.777 371.586 323.331 373.033 321.546 373.033H233.338C231.552 373.033 230.107 371.585 230.107 369.803V314.237C230.107 312.453 231.553 311.006 233.338 311.006H321.546C323.332 311.005 324.777 312.453 324.777 314.237Z" fill="#584CDC"/>
<path d="M257.435 311.005H250.841V373.033H257.435V311.005Z" fill="black"/>
<path d="M258.747 335.186H249.528C249.13 335.186 248.808 335.507 248.808 335.906V348.326C248.808 348.725 249.13 349.046 249.528 349.046H258.747C259.143 349.046 259.467 348.725 259.467 348.326V335.906C259.467 335.507 259.143 335.186 258.747 335.186ZM253.637 343.026H258.027V347.605H250.248V336.625H258.027V341.706H253.637C253.455 341.706 253.289 341.78 253.171 341.9C253.051 342.017 252.977 342.183 252.977 342.366C252.977 342.731 253.272 343.026 253.637 343.026Z" fill="#DC8D30"/>
<path d="M303.622 311.005H297.029V373.033H303.622V311.005Z" fill="black"/>
<path d="M304.934 335.186H295.717C295.318 335.186 294.997 335.507 294.997 335.906V348.326C294.997 348.725 295.318 349.046 295.717 349.046H304.934C305.331 349.046 305.654 348.725 305.654 348.326V335.906C305.654 335.507 305.331 335.186 304.934 335.186ZM299.825 343.026H304.214V347.605H296.437V336.625H304.214V341.706H299.825C299.643 341.706 299.477 341.78 299.36 341.9C299.24 342.017 299.165 342.183 299.165 342.366C299.165 342.731 299.461 343.026 299.825 343.026Z" fill="#DC8D30"/>
<path d="M240.16 311.005C239.732 318.967 234.075 322.93 230.107 324.742V314.237C230.107 312.453 231.553 311.006 233.338 311.006H240.16V311.005Z" fill="#3C32A1"/>
<path d="M240.16 373.033C239.732 365.071 234.075 361.109 230.107 359.296V369.801C230.107 371.585 231.553 373.032 233.338 373.032H240.16V373.033Z" fill="#3C32A1"/>
<path d="M314.725 311.005C315.152 318.967 320.809 322.93 324.777 324.742V314.237C324.777 312.453 323.331 311.006 321.546 311.006H314.725V311.005Z" fill="#3C32A1"/>
<path d="M314.725 373.033C315.152 365.071 320.809 361.109 324.777 359.296V369.801C324.777 371.585 323.331 373.032 321.546 373.032H314.725V373.033Z" fill="#3C32A1"/>
<path d="M372.606 70.6233C372.606 70.6233 387.549 80.3289 383.28 94.4294C379.011 108.531 376.347 113.534 384.047 138.552C391.747 163.57 383.105 178.581 362.18 178.126C341.256 177.671 315.329 163.341 315.329 163.341V68.5574L372.606 70.6233Z" fill="#DC8D30"/>
<path d="M383.964 88.1903C383.713 88.1903 383.502 87.9954 383.485 87.741C383.057 81.093 377.871 75.9532 377.819 75.9014C377.629 75.7161 377.626 75.4118 377.811 75.2226C377.997 75.0335 378.301 75.0297 378.49 75.215C378.715 75.4348 383.992 80.6668 384.444 87.6796C384.461 87.9436 384.261 88.1721 383.996 88.1894C383.985 88.1903 383.974 88.1903 383.964 88.1903Z" fill="black"/>
<path d="M371.437 73.6119C375.87 78.505 378.266 85.0781 377.913 91.6877C377.504 99.3303 372.973 105.803 371.273 113.12C369.358 121.364 371.039 129.979 373.781 137.834C376.245 144.89 379.718 151.9 380.057 159.493C380.344 165.928 378.219 172.869 372.608 176.536C372.362 176.697 372.134 176.303 372.379 176.144C377.791 172.606 379.836 165.909 379.611 159.708C379.339 152.177 375.892 145.195 373.433 138.211C371.003 131.313 369.383 123.903 370.224 116.562C371.052 109.35 375.01 103.218 376.75 96.2717C378.72 88.4026 376.556 79.9393 371.114 73.9345C370.919 73.7175 371.24 73.394 371.437 73.6119Z" fill="black"/>
<path d="M305.025 76.2009H372.215V48.0537H305.025C299.565 48.0537 299.565 76.2009 305.025 76.2009Z" fill="#C01C27"/>
<path d="M369.869 48.5232H347.029C346.764 48.5232 346.549 48.3082 346.549 48.0432C346.549 47.7783 346.764 47.5632 347.029 47.5632H369.869C370.134 47.5632 370.349 47.7783 370.349 48.0432C370.349 48.3082 370.135 48.5232 369.869 48.5232Z" fill="black"/>
<path d="M350.599 74.0756C350.649 74.0756 350.7 74.0631 350.747 74.0372C350.893 73.9556 350.945 73.7713 350.864 73.6244C343.615 60.6327 352.582 48.65 352.674 48.53C352.775 48.3975 352.75 48.2065 352.617 48.1047C352.483 48.003 352.293 48.0289 352.192 48.1614C352.097 48.2842 342.893 60.5847 350.334 73.9201C350.389 74.0199 350.492 74.0756 350.599 74.0756Z" fill="black"/>
<path d="M310.619 74.0756C310.669 74.0756 310.72 74.0631 310.767 74.0372C310.913 73.9556 310.966 73.7713 310.884 73.6244C303.641 60.6433 312.602 48.65 312.694 48.53C312.795 48.3965 312.769 48.2065 312.637 48.1047C312.503 48.003 312.313 48.0289 312.212 48.1614C312.118 48.2842 302.913 60.5847 310.354 73.9201C310.409 74.0199 310.512 74.0756 310.619 74.0756Z" fill="black"/>
<path d="M366.276 62.1273C366.276 69.8995 368.935 76.2009 372.215 76.2009C375.496 76.2009 378.155 69.8995 378.155 62.1273C378.155 54.3542 375.496 48.0537 372.215 48.0537C368.935 48.0537 366.276 54.3542 366.276 62.1273Z" fill="black"/>
<path d="M386.007 137.135C386.007 137.135 389.903 151.84 386.394 155.752C382.884 159.666 375.783 157.195 373.917 155.54C369.533 151.651 369.934 135.915 369.934 135.915L386.007 137.135Z" fill="black"/>
<path d="M386.766 134.538C386.197 129.938 383.79 126.824 379.337 125.536C375.535 124.437 371.237 124.983 369.396 126.86C365.647 130.684 369.502 138.763 369.502 138.763L387.303 138.866L386.766 134.538Z" fill="#C01C27"/>
<path d="M347.61 333.682L353.947 361.573L366.07 360.324L363.976 333.69L347.61 333.682Z" fill="#9B422D"/>
<path d="M375.88 373.033H350.421C350.421 373.033 351.28 359.781 352.458 356.628C353.636 353.474 355.152 359.782 355.152 359.782C355.152 359.782 357.535 354.859 361.669 354.577C363.279 354.467 364.898 354.825 365.606 356.459C365.912 355.811 366.358 355.175 366.868 355.356C367.83 355.697 368.191 361.988 368.199 362.137C369.295 363.28 370.797 364.589 372.074 364.767C375.044 365.187 377.388 368.367 375.88 373.033Z" fill="#DC8D30"/>
<path d="M359.107 360.341C360.92 358.08 363.954 357.536 366.39 359.153C366.718 359.371 366.411 359.905 366.08 359.684C363.859 358.209 361.189 358.721 359.543 360.776C359.294 361.085 358.861 360.647 359.107 360.341Z" fill="black"/>
<path d="M359.605 362.362C361.418 360.102 364.452 359.557 366.888 361.175C367.216 361.393 366.908 361.927 366.578 361.706C364.357 360.23 361.688 360.743 360.041 362.797C359.792 363.106 359.359 362.669 359.605 362.362Z" fill="black"/>
<path d="M360.677 364.76C362.243 362.557 364.948 361.826 367.201 363.51C367.515 363.744 367.208 364.279 366.891 364.041C364.927 362.573 362.591 363.128 361.209 365.07C360.98 365.39 360.447 365.083 360.677 364.76Z" fill="black"/>
<path d="M351.777 360.645C353.924 363.211 353.807 366.536 353.446 369.681C353.401 370.069 352.785 370.074 352.83 369.681C353.168 366.734 353.367 363.5 351.343 361.08C351.09 360.778 351.523 360.341 351.777 360.645Z" fill="#F7FFFF"/>
<path d="M350.992 369.576C359.079 369.66 367.166 369.745 375.252 369.829C375.648 369.833 375.649 370.449 375.252 370.445C367.165 370.36 359.079 370.276 350.992 370.191C350.597 370.187 350.596 369.571 350.992 369.576Z" fill="#F7FFFF"/>
<path d="M308.833 169.53C308.833 169.53 322.394 240.229 327.234 252.564C329.032 257.147 341.861 343.154 341.861 343.154L371.434 342.937C371.434 342.937 366.034 256.416 364.178 243.854C361.306 224.416 357.145 169.12 357.145 169.12L308.833 169.53Z" fill="#518E4B"/>
<path d="M339.997 177.21C339.593 182.631 341.399 188.129 345.031 192.192C348.593 196.174 353.727 198.548 359.044 198.835C359.435 198.856 359.433 198.248 359.044 198.226C353.882 197.947 348.916 195.624 345.461 191.762C341.932 187.815 340.213 182.471 340.605 177.211C340.635 176.819 340.026 176.821 339.997 177.21Z" fill="black"/>
<path d="M364.593 255.772C364.593 258.635 360.071 260.956 354.494 260.956C348.916 260.956 344.395 258.635 344.395 255.772C344.395 252.909 348.916 250.588 354.494 250.588C360.071 250.588 364.593 252.908 364.593 255.772Z" fill="#305320"/>
<path d="M372.878 335.464L338.459 336.11L339.642 344.893L373.8 344.095L372.878 335.464Z" fill="#305320"/>
<path d="M306.785 332.019L305.179 359.316L293.548 360.244L289.051 333.4L306.785 332.019Z" fill="#9B422D"/>
<path d="M296.23 357.552C296.23 357.552 294.465 355.37 292.225 356.115C289.986 356.86 287.055 360.527 287.055 360.527C287.055 360.527 274.91 364.423 271.63 364.627C268.349 364.833 265.479 366.677 264.249 373.033H304.022C304.022 373.033 305.587 358.682 305.83 356.222C306.072 353.762 302.177 356.838 302.177 356.838L296.23 357.552Z" fill="#DC8D30"/>
<path d="M305.029 361.668C302.028 363.365 300.288 366.752 301.793 370.066C301.955 370.424 301.425 370.737 301.262 370.376C299.618 366.753 301.398 363.013 304.719 361.137C305.064 360.943 305.374 361.474 305.029 361.668Z" fill="#F7FFFF"/>
<path d="M303.932 370.74C293.488 370.849 283.042 370.958 272.597 371.067C270.208 371.092 267.818 371.117 265.429 371.142C265.032 371.145 265.032 370.53 265.429 370.526C275.874 370.417 286.319 370.308 296.764 370.199C299.153 370.174 301.543 370.149 303.932 370.124C304.329 370.12 304.329 370.736 303.932 370.74Z" fill="#F7FFFF"/>
<path d="M288.463 363.025C287.08 361.081 284.743 360.529 282.781 361.996C282.463 362.233 282.157 361.699 282.47 361.465C284.722 359.782 287.427 360.514 288.994 362.715C289.224 363.037 288.692 363.345 288.463 363.025Z" fill="black"/>
<path d="M285.037 364.059C283.653 362.115 281.317 361.563 279.355 363.03C279.038 363.267 278.731 362.733 279.044 362.499C281.297 360.816 284.002 361.547 285.569 363.749C285.798 364.071 285.264 364.379 285.037 364.059Z" fill="black"/>
<path d="M281.498 365.093C280.115 363.149 277.778 362.598 275.816 364.064C275.499 364.301 275.192 363.767 275.506 363.533C277.758 361.85 280.463 362.581 282.03 364.783C282.259 365.106 281.726 365.413 281.498 365.093Z" fill="black"/>
<path d="M310.33 250.426L315.296 343.04H282.569L274.429 256.149L273.565 246.935L273.674 246.071L284.566 160.015L320.995 170.497L310.33 250.426Z" fill="#518E4B"/>
<path d="M294.952 169.428C295.933 178.318 289.962 186.525 281.198 188.306C280.814 188.384 280.977 188.971 281.36 188.893C290.366 187.064 296.569 178.569 295.56 169.429C295.518 169.043 294.908 169.039 294.952 169.428Z" fill="black"/>
<g opacity="0.5">
<path d="M286.493 251.063C286.493 253.926 281.973 256.248 276.394 256.248C275.722 256.248 275.063 256.214 274.429 256.148L273.565 246.935L273.674 246.071C274.54 245.945 275.452 245.879 276.394 245.879C281.972 245.88 286.493 248.2 286.493 251.063Z" fill="#305320"/>
</g>
<path d="M316.605 206.084C314.794 196.112 312.983 186.139 311.174 176.167C311.104 175.782 310.517 175.945 310.587 176.328C312.398 186.3 314.208 196.273 316.018 206.245C316.088 206.63 316.675 206.467 316.605 206.084Z" fill="black"/>
<path d="M308.308 337.762C308.094 337.762 307.916 337.595 307.903 337.379C307.859 336.59 303.513 258.4 303.567 248.761C303.621 239.094 312.807 193.736 313.199 191.81C313.244 191.59 313.458 191.448 313.677 191.493C313.897 191.537 314.039 191.752 313.993 191.971C313.897 192.441 304.431 239.177 304.378 248.766C304.325 258.381 308.669 336.547 308.713 337.335C308.726 337.559 308.555 337.751 308.331 337.763C308.324 337.762 308.316 337.762 308.308 337.762Z" fill="black"/>
<path d="M316.689 336.466L280.06 335.464L280.388 343.793L316.783 344.641L316.689 336.466Z" fill="#305320"/>
<path d="M359.33 116.228C358.581 133.811 365.022 157.33 360.99 174.436C359.42 181.102 282.553 181.865 280.505 162.927C279.619 154.732 286.889 131.492 288.065 119.34C288.117 118.8 288.162 118.211 288.2 117.579C288.525 112.224 288.388 103.715 288.477 95.0966C288.61 81.7977 289.273 68.2348 292.961 65.5747C296.222 63.2227 304.088 60.9148 309.223 59.5852C312.014 58.8585 314 58.4227 314 58.4227C314 58.4227 320.789 50.4547 333.304 58.4227C335.765 59.9904 338.261 61.0387 340.715 61.8201C350.732 65.0189 360.072 63.8169 363.85 75.623C365.829 81.8064 364.958 87.095 363.456 93.3043C362.102 98.9097 360.236 105.265 359.494 113.711C359.422 114.535 359.37 115.373 359.33 116.228Z" fill="black"/>
<path d="M340.716 61.8192C340.716 61.8192 333.873 73.5101 332.235 99.6441C330.598 125.778 349.129 138.221 361.523 146.88C363.072 142.385 362.999 137.461 359.97 131.755C359.97 131.755 344.394 127.223 343.243 100.945C342.641 87.1949 352.735 64.8461 352.735 64.8461C348.383 62.4989 344.318 61.2643 340.716 61.8192Z" fill="#584CDC"/>
<path d="M332.985 93.5183C336.558 93.1947 340.097 93.787 343.357 95.2923C343.775 95.4853 344.141 94.8651 343.721 94.6703C340.344 93.1112 336.692 92.4623 332.985 92.7983C332.528 92.8395 332.523 93.5605 332.985 93.5183Z" fill="black"/>
<path d="M341.008 62.0189C345.071 61.7357 349.05 62.6899 352.539 64.7913C352.838 64.9709 353.109 64.5043 352.812 64.3248C349.247 62.1782 345.159 61.1894 341.008 61.4784C340.663 61.5024 340.66 62.0429 341.008 62.0189Z" fill="black"/>
<path d="M296.408 64.7385C296.408 64.7385 266.379 63.1957 262.741 56.686C260.448 52.5839 257.988 40.8335 256.139 33.2159C254.282 25.5666 251.582 22.4754 242.183 23.95C238.473 24.5327 235.269 29.1906 235.389 33.7276C235.707 45.8274 240.256 74.3596 258.745 81.1257C277.235 87.8917 290.655 91.1317 290.655 91.1317C296.954 84.0124 298.308 74.998 296.408 64.7385Z" fill="black"/>
<path d="M229.901 17.1753C229.704 20.1725 232.311 20.6189 236.058 23.4701C238.519 25.343 241.833 29.8848 244.828 28.1318C247.823 26.3789 249.717 24.4368 249.717 24.4368C249.717 24.4368 252.275 21.6297 251.215 17.904C251.215 17.904 249.955 12.3878 248.568 11.6102C247.182 10.8336 245.271 12.4531 245.271 12.4531C243.941 11.9405 237.697 0.494381 235.793 0.0239808C235.793 0.0239808 233.622 -0.411864 234.498 2.43262C235.372 5.2771 238.7 10.6617 238.7 10.6617C238.7 10.6617 231.864 2.08702 229.824 2.19166C229.24 2.22142 228.847 2.80318 229.048 3.6643C229.339 4.90942 230.664 6.12766 231.455 7.13182C232.844 8.8963 234.798 11.6093 235.293 12.5213C235.293 12.5213 233.556 12.0125 232.347 12.8035C231.139 13.5945 232.229 15.2457 232.229 15.2457C232.229 15.2457 230.022 15.3264 229.901 17.1753Z" fill="#9B422D"/>
<path d="M250.118 21.7017L249.438 30.4002C247.935 32.4901 247.315 34.1893 241.71 32.5871L238.951 24.5577L250.118 21.7017Z" fill="#9B422D"/>
<path d="M244.221 19.153C244.002 19.2087 243.798 19.249 243.613 19.2711C243.035 19.3412 242.552 19.2365 242.219 18.9696C241.93 18.7383 241.762 18.3994 241.72 17.9664C241.679 17.5085 241.761 17.0209 241.962 16.5169C242.041 16.2932 242.154 16.0733 242.245 15.9073C243.109 14.3041 244.736 13.0061 244.805 12.9514C244.928 12.8554 245.11 12.8746 245.209 12.9985C245.308 13.1233 245.287 13.3037 245.162 13.4026C245.146 13.4151 243.557 14.6832 242.751 16.1808C242.671 16.3287 242.57 16.5226 242.501 16.7185C242.329 17.1495 242.261 17.5479 242.293 17.9127C242.32 18.1844 242.416 18.3898 242.581 18.5213C242.79 18.6893 243.124 18.7517 243.547 18.6999C243.709 18.6807 243.889 18.6452 244.076 18.5981C245.644 18.1604 247.548 16.7108 248.922 14.9079C249.017 14.7812 249.198 14.7572 249.325 14.8532C249.452 14.9492 249.477 15.1297 249.38 15.2564C247.912 17.1831 245.937 18.6768 244.224 19.1549C244.222 19.153 244.221 19.153 244.221 19.153Z" fill="#65272B"/>
<path d="M236.414 22.1972C235.334 22.4737 233.864 21.7498 233.667 21.6481C233.526 21.5761 233.469 21.4023 233.542 21.2612C233.614 21.1201 233.788 21.0635 233.929 21.1364C234.485 21.4215 236.061 22.0273 236.663 21.4302C237.519 20.5825 235.61 18.2026 234.873 17.4356C234.772 17.33 234.766 17.1649 234.86 17.0526C234.953 16.9403 235.118 16.9153 235.24 16.9969C235.952 17.4702 237.982 18.5339 238.816 17.7927C238.954 17.6718 239.015 17.522 239.012 17.3214C238.991 16.0887 236.587 13.8347 235.663 13.0695C235.541 12.9687 235.524 12.7873 235.625 12.6644C235.726 12.5435 235.908 12.5243 236.03 12.626C236.391 12.9246 239.558 15.5934 239.588 17.3108C239.594 17.6756 239.46 17.9914 239.199 18.2228C238.441 18.8948 237.207 18.5905 236.258 18.1854C237.087 19.2961 237.994 20.9233 237.069 21.8382C236.883 22.0215 236.658 22.1348 236.414 22.1972Z" fill="#65272B"/>
<path d="M238.071 12.3542C238.007 12.3705 237.938 12.3657 237.876 12.335C237.732 12.2659 237.672 12.096 237.741 11.952C237.769 11.8925 238.456 10.488 240.385 9.73726C240.527 9.67486 240.7 9.75262 240.758 9.90046C240.815 10.0483 240.743 10.2153 240.595 10.2729C238.888 10.9373 238.267 12.1872 238.26 12.1997C238.221 12.2793 238.151 12.3331 238.071 12.3542Z" fill="#65272B"/>
<path d="M239.514 12.9695C239.541 12.9858 241.025 14.0082 242.495 16.0434C242.391 16.2363 242.297 16.4264 242.227 16.6223C240.743 14.5314 239.214 13.4735 239.186 13.4571C239.055 13.3602 239.023 13.1903 239.106 13.0501C239.204 12.9176 239.374 12.8859 239.514 12.9695Z" fill="#65272B"/>
<path d="M245.488 24.7793C245.496 24.9079 245.396 25.0279 245.274 25.0596L245.207 25.0769C245.051 25.0692 244.925 24.9473 244.921 24.7937C244.862 22.5165 244.319 20.5773 243.58 18.9847C243.753 18.9645 243.945 18.9271 244.146 18.8762C244.883 20.5044 245.419 22.4685 245.488 24.7793Z" fill="#65272B"/>
<path d="M235.791 35.1457C242.01 39.9553 250.938 38.7783 255.693 32.5162C255.927 32.21 255.406 31.9115 255.177 32.2139C250.673 38.1438 242.107 39.2785 236.214 34.7214C235.913 34.49 235.486 34.9105 235.791 35.1457Z" fill="#4B547A"/>
<path d="M247.319 71.8782C252.541 72.3294 257.201 75.9438 258.942 80.8858C259.07 81.2468 259.647 81.0913 259.519 80.7265C257.683 75.5156 252.822 71.7543 247.318 71.2791C246.935 71.2465 246.937 71.8455 247.319 71.8782Z" fill="#4B547A"/>
<path d="M263.057 57.7324C261.932 59.5497 260.385 60.9888 258.498 61.991C258.158 62.1715 258.459 62.6889 258.8 62.5075C260.775 61.4592 262.397 59.9347 263.574 58.0348C263.777 57.7065 263.259 57.4051 263.057 57.7324Z" fill="#4B547A"/>
<path d="M261.39 60.0134C261.401 61.1654 261.411 62.3184 261.422 63.4714C261.426 63.8563 262.024 63.8573 262.021 63.4714C262.01 62.3184 262 61.1664 261.989 60.0134C261.985 59.6285 261.386 59.6275 261.39 60.0134Z" fill="#4B547A"/>
<path d="M352.704 99.9311C351.823 109.909 351.871 119.938 352.283 129.939C352.487 134.891 352.736 139.849 353.1 144.792C353.419 149.136 353.866 153.476 353.886 157.835C353.909 162.804 353.35 167.835 351.251 172.391C351.09 172.738 351.606 173.043 351.767 172.693C355.445 164.713 354.562 155.663 353.883 147.165C353.086 137.191 352.596 127.153 352.593 117.146C352.592 111.4 352.797 105.656 353.302 99.9311C353.337 99.5481 352.738 99.55 352.704 99.9311Z" fill="#4B547A"/>
<path d="M304.963 81.8055C306.941 86.1092 313.273 85.992 317.234 85.848C322.958 85.6407 328.565 84.1853 333.696 81.6548C334.148 81.432 333.752 80.7552 333.301 80.978C328.575 83.3088 323.424 84.7057 318.16 85.0196C314.315 85.25 307.589 85.6512 305.639 81.41C305.429 80.952 304.753 81.3495 304.963 81.8055Z" fill="#4B547A"/>
<path d="M333.206 155.321C333.206 155.04 332.92 154.851 332.661 154.961C329.028 156.502 325.323 157.879 321.558 159.079C317.152 160.482 312.632 161.739 308 162.057C304.626 162.29 298.915 162.451 297.491 158.504C297.321 158.032 296.562 158.236 296.734 158.712C297.887 161.904 301.515 162.764 304.564 162.895C309.617 163.112 314.63 161.98 319.443 160.55C324.039 159.185 328.553 157.556 332.966 155.685C333.111 155.623 333.206 155.48 333.206 155.321Z" fill="#4B547A"/>
<path d="M315.484 28.945C315.484 28.945 309.768 25.6724 310.582 23.3636C311.396 21.0548 313.243 21.7748 313.243 21.7748C313.243 21.7748 310.504 18.6567 312.53 16.1041C313.551 14.8196 316.225 16.1549 316.225 16.1549C316.225 16.1549 315.867 12.0932 318.167 11.7485C320.467 11.4029 321.467 14.5057 321.467 14.5057C321.467 14.5057 322.363 11.1629 325.718 11.7485C329.072 12.3332 328.723 15.3572 328.723 15.3572C328.723 15.3572 332.669 13.2442 335.115 14.8244C337.561 16.4036 336.318 18.4417 336.318 18.4417C336.318 18.4417 340.818 17.4711 342.33 19.2049C343.842 20.9386 340.585 23.3636 340.585 23.3636C340.585 23.3636 342.085 24.0817 341.969 26.0583C341.852 28.0349 338.79 28.0157 338.79 28.0157C338.79 28.0157 339.332 32.4337 336.304 33.5069C331.934 35.0545 327.945 31.7828 327.945 31.7828L315.484 28.945Z" fill="black"/>
<path d="M332.879 62.0822C332.879 62.0822 321.896 71.1792 313.158 62.064L315.828 54.696L317.59 49.8345L318.822 46.4304L333.023 44.9846C331.913 51.3849 331.958 57.023 332.879 62.0822Z" fill="#9B422D"/>
<path d="M329.361 49.9516C322.576 56.9644 316.933 57.431 315.156 56.5506L317.588 49.8345L329.361 49.9516Z" fill="black"/>
<path d="M313.354 26.0583C313.354 26.0583 310.952 27.58 311.408 30.0155C311.865 32.451 314.482 35.0871 314.482 35.0871L313.354 26.0583Z" fill="black"/>
<path d="M334.819 41.2493C334.732 41.8119 334.622 42.3284 334.483 42.8122C334.165 43.9325 333.702 44.8829 333.048 45.8333C332.186 47.0852 330.993 48.3428 329.359 49.9911C326.792 52.5793 323.068 53.1812 319.612 52.7117C310.433 51.4666 310.467 45.098 312.53 35.7562C313.813 29.9559 312.608 26.4749 314.388 24.3985L314.391 24.3994C314.503 24.3073 314.618 24.2189 314.733 24.1325C317.467 22.057 320.935 21.1834 324.347 21.5828C325.004 21.6605 325.629 21.7546 326.226 21.8669C326.363 21.8881 326.498 21.9149 326.631 21.9437C326.686 21.9524 326.742 21.9639 326.795 21.9773C326.946 22.0061 327.094 22.0378 327.242 22.0743C327.348 22.0964 327.453 22.1213 327.556 22.1473C327.796 22.2039 328.027 22.2644 328.252 22.3268C335.449 24.3437 336.656 29.0631 336.304 33.5069C336.065 36.529 335.104 39.4215 334.819 41.2493Z" fill="#9B422D"/>
<path d="M322.48 36.0941C322.333 36.4915 321.892 36.6941 321.495 36.5472C321.097 36.4003 320.895 35.9587 321.041 35.5613C321.188 35.1638 321.63 34.9613 322.026 35.1082C322.424 35.255 322.626 35.6966 322.48 36.0941Z" fill="black"/>
<path d="M316.355 35.5633C316.208 35.9608 315.767 36.1633 315.37 36.0164C314.972 35.8696 314.77 35.428 314.917 35.0315C315.063 34.634 315.505 34.4315 315.901 34.5784C316.298 34.7252 316.501 35.1668 316.355 35.5633Z" fill="black"/>
<path d="M318.319 34.1702C317.584 35.2867 316.85 36.4022 316.116 37.5187C316.006 37.6867 316.025 37.9277 316.201 38.0496C316.729 38.4153 317.199 38.8243 317.629 39.3024C317.956 39.6643 318.546 39.1853 318.217 38.8214C317.743 38.2954 317.229 37.8384 316.646 37.4352C316.674 37.6118 316.703 37.7894 316.731 37.9661C317.465 36.8496 318.2 35.7341 318.934 34.6176C319.202 34.2086 318.588 33.7603 318.319 34.1702Z" fill="black"/>
<path d="M325.308 39.074C325.231 39.576 324.386 39.8612 323.423 39.7114C322.459 39.5616 321.742 39.0327 321.82 38.5316C321.897 38.0295 322.742 37.7444 323.705 37.8941C324.669 38.0439 325.386 38.5719 325.308 39.074Z" fill="#65272B"/>
<path d="M312.045 38.1112C312.332 38.3752 312.807 38.5873 313.364 38.6737C314.326 38.8235 315.171 38.5393 315.248 38.0353C315.326 37.5342 314.608 37.0062 313.646 36.8565C313.116 36.7739 312.623 36.8238 312.272 36.9688L312.045 38.1112Z" fill="#65272B"/>
<path d="M321.227 33.191C321.722 32.831 322.53 32.6496 322.956 33.2275C323.214 33.5789 323.662 33.7536 324.065 33.5136C324.412 33.3072 324.614 32.76 324.351 32.4038C323.425 31.1433 321.687 30.8611 320.403 31.7942C320.051 32.0505 319.878 32.5027 320.117 32.904C320.324 33.2534 320.87 33.4512 321.227 33.191Z" fill="black"/>
<path d="M314.799 32.6448C315.426 32.2886 315.996 32.2435 316.606 32.6688C317.463 33.2649 318.41 31.9507 317.554 31.3536C316.501 30.6201 315.245 30.5357 314.123 31.1712C313.221 31.6829 313.889 33.1593 314.799 32.6448Z" fill="black"/>
<path d="M331.136 43.3143C332.424 43.5342 333.546 43.3182 334.483 42.8132C334.165 43.9336 333.702 44.8839 333.048 45.8343C332.208 45.2439 331.54 44.426 331.136 43.3143Z" fill="black"/>
<path d="M334.261 33.1239C330.466 33.5501 329.136 39.7066 327.434 38.3482C325.732 36.9898 330.78 27.3888 325.934 26.9079C321.089 26.4269 321.542 27.4301 319.321 27.2458C315.544 26.9309 315.834 25.0628 314.391 24.3984C314.503 24.3063 314.618 24.218 314.733 24.1316C317.467 22.056 320.935 21.1824 324.347 21.5818C325.004 21.6596 325.629 21.7536 326.226 21.866C326.363 21.8871 326.498 21.914 326.631 21.9428C326.686 21.9514 326.742 21.9629 326.795 21.9764C326.946 22.0052 327.094 22.0368 327.242 22.0733C327.348 22.0954 327.453 22.1204 327.556 22.1463C327.794 22.2 328.027 22.2605 328.252 22.3258C335.449 24.3428 336.656 29.0621 336.304 33.506C335.772 33.1805 335.093 33.0288 334.261 33.1239Z" fill="black"/>
<path d="M315.005 40.8145C315.005 40.8145 317.184 40.9143 321.463 41.1361C321.463 41.1361 320.482 45.6269 317.416 45.1316C314.815 44.7121 315.005 40.8145 315.005 40.8145Z" fill="#F7FFFF"/>
<path d="M316.695 46.8336C317.351 47.1715 318.086 47.2867 318.724 46.8499C319.048 46.6281 318.688 46.1386 318.365 46.3594C317.91 46.6714 317.397 46.513 316.944 46.2797C316.596 46.1002 316.348 46.655 316.695 46.8336Z" fill="#65272B"/>
<path d="M328.585 40.5984C328.321 39.0518 328.845 37.4794 329.897 36.3149C331.258 34.8067 333.691 32.5382 335.594 33.1123C338.392 33.9552 338.334 36.5568 337.649 39.1094C336.963 41.6621 334.731 44.7974 331.248 43.6925C329.507 43.1405 328.802 41.8646 328.585 40.5984Z" fill="#9B422D"/>
<path d="M332.81 43.9211C332.81 44.5883 332.269 45.1287 331.602 45.1287C330.935 45.1287 330.395 44.5883 330.395 43.9211C330.395 43.2539 330.935 42.7134 331.602 42.7134C332.268 42.7124 332.81 43.2539 332.81 43.9211Z" fill="#DC8D30"/>
<path d="M332.063 40.6685C332.091 39.5597 332.198 38.4125 332.766 37.4314C333.273 36.5559 334.527 35.3664 335.66 35.9453C336.041 36.1392 336.408 35.5805 336.025 35.3847C334.933 34.8269 333.731 35.3347 332.906 36.1555C331.717 37.3411 331.436 39.0307 331.396 40.6416C331.384 41.0717 332.052 41.1005 332.063 40.6685Z" fill="black"/>
<path d="M313.111 39.0018C311.159 39.0018 309.57 37.413 309.57 35.4604C309.57 33.5077 311.159 31.9189 313.111 31.9189C315.064 31.9189 316.653 33.5077 316.653 35.4604C316.653 37.414 315.064 39.0018 313.111 39.0018Z" fill="black"/>
<path d="M321.709 39.7352C319.756 39.7352 318.167 38.1464 318.167 36.1938C318.167 34.2411 319.756 32.6523 321.709 32.6523C323.662 32.6523 325.25 34.2411 325.25 36.1938C325.25 38.1464 323.662 39.7352 321.709 39.7352Z" fill="black"/>
<path d="M332.199 33.8352C329.635 33.8525 327.176 34.5341 324.969 35.8397C324.721 35.9866 324.946 36.3754 325.196 36.2275C327.339 34.9594 329.71 34.3018 332.199 34.2845C332.488 34.2816 332.489 33.8333 332.199 33.8352Z" fill="#F7FFFF"/>
<path d="M316.573 35.8251C317.099 35.3442 317.825 35.4363 318.256 35.9826C318.434 36.2091 318.75 35.8895 318.574 35.6648C317.985 34.9189 316.945 34.8767 316.256 35.5074C316.042 35.7023 316.36 36.0191 316.573 35.8251Z" fill="#F7FFFF"/>
<path d="M314.186 57.3206C306.229 68.7782 302.316 82.8806 303.087 96.8016C303.303 100.705 303.895 104.579 304.841 108.371C304.953 108.82 305.647 108.63 305.535 108.179C302.199 94.8 303.514 80.3913 309.109 67.7933C310.683 64.2489 312.596 60.8688 314.807 57.6835C315.073 57.3024 314.449 56.9424 314.186 57.3206Z" fill="#F7FFFF"/>
<path d="M332.817 58.245C334.294 75.3369 329.214 92.6956 318.761 106.298C318.478 106.665 319.103 107.024 319.383 106.661C327.534 96.0537 332.476 83.1177 333.571 69.789C333.887 65.9461 333.869 62.085 333.537 58.2441C333.497 57.7871 332.777 57.7823 332.817 58.245Z" fill="#F7FFFF"/>
<path d="M358.216 67.3767C358.216 67.3767 387.396 89.8052 390.996 104.255C394.596 118.704 358.269 145.371 344.394 142.297C330.52 139.223 333.338 124.053 338.408 119.759C343.478 115.465 359.336 106.855 359.336 106.855L358.216 67.3767Z" fill="black"/>
<path d="M329.814 104.134L332.98 122.241C333.023 122.489 332.857 122.728 332.608 122.772L304.063 127.763C303.813 127.807 303.576 127.64 303.532 127.39L300.366 109.284C300.322 109.034 300.489 108.797 300.738 108.753L304.266 108.136C304.908 108.023 305.337 107.413 305.225 106.771C305.058 105.819 305.695 104.913 306.647 104.746L317.921 102.774C318.875 102.607 319.782 103.244 319.948 104.197C320.06 104.838 320.671 105.267 321.312 105.155L329.283 103.761C329.534 103.718 329.771 103.885 329.814 104.134Z" fill="black"/>
<path d="M333.593 122.598L306.292 127.372C305.7 127.476 305.135 127.079 305.032 126.487L302.082 109.624C301.979 109.031 302.375 108.467 302.968 108.363L330.269 103.589C330.861 103.485 331.426 103.882 331.529 104.474L334.479 121.337C334.582 121.931 334.186 122.495 333.593 122.598Z" fill="black"/>
<path d="M326.234 103.474L321.911 104.23L322.05 105.026L326.374 104.27L326.234 103.474Z" fill="#F7FFFF"/>
<path d="M326.879 104.648L330.045 122.754C330.088 123.003 329.922 123.241 329.673 123.285L301.129 128.276C300.879 128.32 300.642 128.153 300.598 127.904L297.432 109.797C297.389 109.548 297.555 109.311 297.805 109.266L301.333 108.649C301.974 108.537 302.403 107.926 302.291 107.285C302.125 106.333 302.761 105.425 303.713 105.259L314.988 103.288C315.941 103.121 316.848 103.758 317.014 104.71C317.127 105.352 317.737 105.781 318.378 105.668L326.349 104.274C326.599 104.231 326.836 104.398 326.879 104.648Z" fill="#DC8D30"/>
<path d="M311.866 106.201L305.864 107.25C305.804 107.261 305.748 107.221 305.737 107.161L305.597 106.358C305.586 106.298 305.627 106.241 305.686 106.231L311.688 105.182C311.748 105.171 311.804 105.211 311.815 105.271L311.955 106.074C311.966 106.134 311.925 106.191 311.866 106.201Z" fill="#F7FFFF"/>
<path d="M324.189 108.754L319.611 109.554C319.158 109.634 318.727 109.331 318.648 108.877L318.578 108.478C318.499 108.025 318.802 107.594 319.255 107.514L323.833 106.714C324.286 106.635 324.717 106.937 324.796 107.39L324.866 107.79C324.945 108.243 324.642 108.674 324.189 108.754Z" fill="#AE6317"/>
<path d="M303.281 126.045L302.882 126.115C302.429 126.194 301.998 125.892 301.919 125.438L301.849 125.039C301.77 124.586 302.073 124.155 302.526 124.076L302.925 124.006C303.378 123.926 303.809 124.23 303.888 124.683L303.958 125.082C304.038 125.534 303.734 125.966 303.281 126.045Z" fill="#AE6317"/>
<path d="M327.906 110.485L298.457 115.633L299.44 121.258L328.889 116.11L327.906 110.485Z" fill="#AE6317"/>
<path d="M317.971 111.96C320.242 115.058 319.572 119.411 316.474 121.682C313.376 123.953 309.024 123.283 306.752 120.185C304.481 117.088 305.151 112.735 308.249 110.464C311.347 108.192 315.7 108.862 317.971 111.96Z" fill="black"/>
<path d="M311.345 109.213L308.849 109.65L311.241 123.335L313.737 122.898L311.345 109.213Z" fill="black"/>
<path d="M315.944 112.314C318.215 115.412 317.545 119.765 314.447 122.036C311.349 124.308 306.996 123.638 304.725 120.54C302.454 117.442 303.124 113.089 306.222 110.818C309.32 108.546 313.672 109.217 315.944 112.314Z" fill="black"/>
<path d="M313.301 120.473C311.07 122.109 307.924 121.625 306.288 119.393C304.652 117.162 305.137 114.017 307.368 112.381C309.599 110.745 312.745 111.23 314.381 113.461C316.017 115.692 315.532 118.838 313.301 120.473Z" fill="#F7FFFF"/>
<path d="M336.308 123.548C336.308 123.548 330.5 116.607 328.879 116.083C327.258 115.56 321.548 117.36 322.123 118.8C322.697 120.24 327.017 120.12 327.737 121.2C328.457 122.28 324.137 123.821 320.297 124.64C316.457 125.459 309.497 126.261 309.497 127.091C309.497 127.92 316.009 129.24 316.673 130.08C317.336 130.92 317.561 132.4 323.336 133.36C329.111 134.32 337.816 130.931 337.816 130.931L336.308 123.548Z" fill="#9B422D"/>
<path d="M343.703 91.2365C350.495 95.4365 356.562 100.688 361.7 106.8C361.999 107.155 362.506 106.644 362.209 106.291C357.033 100.134 350.908 94.8461 344.066 90.6154C343.671 90.3706 343.309 90.9926 343.703 91.2365Z" fill="#4B547A"/>
<path d="M362.179 107.135C366.104 107.454 369.805 108.823 373.009 111.107C373.387 111.376 373.747 110.751 373.372 110.485C370.06 108.124 366.23 106.743 362.178 106.414C361.717 106.378 361.719 107.098 362.179 107.135Z" fill="#4B547A"/>
<path d="M362.569 106.938C364.532 105.841 366.659 105.408 368.895 105.627C369.355 105.672 369.353 104.952 368.895 104.907C366.543 104.677 364.267 105.165 362.206 106.317C361.801 106.543 362.164 107.165 362.569 106.938Z" fill="#4B547A"/>
<path d="M361.706 106.882C356.548 109.415 351.72 112.573 346.118 114.08C345.671 114.2 345.86 114.895 346.309 114.774C351.972 113.25 356.854 110.064 362.069 107.503C362.485 107.299 362.121 106.678 361.706 106.882Z" fill="#4B547A"/>
<path d="M296.709 62.545C296.709 62.545 290.179 65.2896 286.819 82.7136C283.459 100.137 286.622 128.358 286.622 128.358C286.622 128.358 288.859 117.665 289.339 107.193C289.339 107.193 297.757 66.4301 305.178 60.6931C305.178 60.6931 302.122 59.4778 296.709 62.545Z" fill="#584CDC"/>
<path d="M285.314 93.5136C287.897 93.1804 290.412 93.6883 292.653 95.0208C293.053 95.2579 293.416 94.6358 293.017 94.3987C290.678 93.0076 288.017 92.4441 285.315 92.7926C284.861 92.8521 284.855 93.5731 285.314 93.5136Z" fill="black"/>
<path d="M301.28 61.0676C302.765 60.7076 304.253 60.6289 305.768 60.818C306.112 60.8612 306.109 60.3207 305.768 60.2775C304.203 60.0827 302.667 60.1758 301.137 60.5463C300.799 60.6289 300.942 61.1502 301.28 61.0676Z" fill="black"/>
<path d="M448.113 84.6355C448.113 84.6355 444.24 87.2179 443.207 90.1872C442.174 93.1565 443.466 96.1257 445.66 96.6422C445.66 96.6422 443.724 109.682 445.144 113.039C446.564 116.396 451.082 113.039 451.082 113.039C451.082 113.039 449.404 89.7993 448.113 84.6355Z" fill="#4B547A"/>
<path d="M449.275 118.978C449.275 118.978 445.401 121.56 444.369 124.529C443.337 127.498 444.627 130.468 446.822 130.984C446.822 130.984 444.886 144.024 446.306 147.381C447.725 150.738 452.244 147.381 452.244 147.381C452.244 147.381 450.566 124.141 449.275 118.978Z" fill="#4B547A"/>
<path d="M449.791 73.5322C449.791 73.5322 445.917 75.985 448.242 101.548C450.566 127.111 443.594 146.219 454.052 157.192C464.509 168.166 493.429 147.122 493.429 147.122L480.224 74.2349L449.791 73.5322Z" fill="black"/>
<path d="M465.297 154.541C462.693 154.541 459.94 154.042 457.703 152.475C454.935 150.537 453.353 145.972 452.865 138.518C452.451 132.184 452.878 124.886 453.257 118.448C453.467 114.86 453.666 111.472 453.666 108.907C453.666 97.5878 449.456 77.1724 449.413 76.9679C449.37 76.7587 449.504 76.5532 449.713 76.51C449.924 76.4668 450.128 76.6012 450.171 76.8105C450.213 77.0159 454.439 97.5091 454.439 108.907C454.439 111.494 454.24 114.894 454.029 118.493C453.306 130.843 452.315 147.757 458.147 151.84C462.234 154.701 468.262 153.755 471.493 152.937C477.133 151.507 482.534 148.424 483.787 145.917C483.883 145.726 484.115 145.648 484.306 145.744C484.497 145.84 484.575 146.073 484.479 146.264C483.114 148.993 477.613 152.185 471.682 153.688C470.056 154.1 467.742 154.541 465.297 154.541Z" fill="#4B547A"/>
<path d="M444.189 54.8246C444.189 54.8246 473.424 45.697 506.963 46.993C506.963 46.993 516.544 55.5053 508.531 68.5392L450.189 78.5654C450.189 78.5654 442.547 64.1405 444.189 54.8246Z" fill="#DC8D30"/>
<path d="M464.111 50.2482C464.111 50.2482 477.211 56.7926 473.199 74.6111L477.245 74.2386C477.245 74.2386 481.85 58.5158 469.028 49.5369C469.028 49.5369 466.198 48.3215 464.111 50.2482Z" fill="black"/>
<path d="M440.204 57.7382C442.624 53.5162 448.796 53.7245 450.968 58.08C452.043 60.2362 453.051 63.1162 453.414 66.7152C454.317 75.6691 450.682 81.7392 445.765 77.5555C440.848 73.3728 437.548 62.5488 440.126 57.8765C440.152 57.8294 440.178 57.7834 440.204 57.7382Z" fill="#AE6317"/>
<path d="M448.214 76.9736C447.953 76.9736 447.69 76.9333 447.424 76.8527C445.554 76.2834 443.728 73.6444 442.538 69.7919C441.109 65.1618 441.076 59.9346 441.075 59.8818C441.074 59.66 441.254 59.4805 441.476 59.4796C441.696 59.4796 441.877 59.6581 441.878 59.8799C441.878 59.9308 441.911 65.0428 443.304 69.5548C444.382 73.0453 446.09 75.6085 447.657 76.0847C448.314 76.2844 448.939 76.1337 449.571 75.622C450.494 74.8751 450.951 73.0674 450.856 70.5321C450.669 65.5045 448.439 59.3279 446.268 57.8226C445.883 57.5557 445.627 57.6652 445.467 57.7708C444.54 58.3861 443.975 61.0501 444.758 64.7749C445.863 70.0348 447.443 73.0818 448.004 73.2872C448.066 73.269 448.148 73.222 448.232 73.0741C449.035 71.6428 447.645 65.8521 447.039 64.1932C446.963 63.9849 447.069 63.7544 447.278 63.6786C447.486 63.6028 447.716 63.7093 447.792 63.9176C448.097 64.75 450.056 71.4642 448.932 73.4668C448.695 73.8901 448.368 74.0341 448.136 74.0802C447.898 74.1282 447.175 74.2722 445.97 71.5285C445.211 69.7996 444.502 67.4601 443.972 64.9401C443.063 60.6105 443.845 57.884 445.024 57.1026C445.548 56.7551 446.168 56.7772 446.725 57.1631C449.331 58.9708 451.479 65.6965 451.657 70.5033C451.73 72.4799 451.516 75.0805 450.075 76.2469C449.478 76.7298 448.854 76.9736 448.214 76.9736Z" fill="black"/>
<path d="M498.816 378.686C541.262 378.686 575.671 376.096 575.671 372.9C575.671 369.705 541.262 367.115 498.816 367.115C456.369 367.115 421.96 369.705 421.96 372.9C421.96 376.096 456.369 378.686 498.816 378.686Z" fill="black" fill-opacity="0.7"/>
<path d="M542.423 89.0381C542.423 89.0381 559.347 120.533 561.888 120.533C564 120.533 590.392 98.232 590.392 98.232L594.445 101.197C594.445 101.197 577.177 142.539 557.106 142.973C541.306 143.315 525.535 103.42 525.535 103.42L542.423 89.0381Z" fill="#9B422D"/>
<path d="M561.121 120.385C558.896 122.061 556.864 123.947 555.031 126.046C554.867 126.234 555.141 126.511 555.306 126.322C557.116 124.247 559.119 122.378 561.317 120.721C561.516 120.572 561.322 120.234 561.121 120.385Z" fill="#65272B"/>
<path d="M559.124 122.033C557.089 121.699 555.065 121.658 553.017 121.92C552.772 121.952 552.77 122.342 553.017 122.309C555.029 122.051 557.018 122.08 559.02 122.408C559.266 122.449 559.371 122.074 559.124 122.033Z" fill="#65272B"/>
<path d="M532.926 65.9617C532.926 65.9617 538.354 72.3908 541.24 78.2228C544.126 84.0538 547.164 90.89 547.164 90.89L532.836 111.451L529.24 100.612L532.926 65.9617Z" fill="#584CDC"/>
<path d="M545.473 87.8671C541.557 92.8668 538.156 98.2476 534.239 103.247C534.056 103.482 534.384 103.815 534.57 103.577C538.487 98.5778 541.887 93.197 545.804 88.1973C545.987 87.9631 545.659 87.63 545.473 87.8671Z" fill="black"/>
<path d="M582.642 60.6078C578.126 60.5646 574.418 64.4199 574.362 69.2228C574.305 74.0247 582.362 84.3044 582.362 84.3044C582.362 84.3044 590.662 74.1841 590.718 69.3831C590.776 64.5803 587.16 60.6519 582.642 60.6078ZM582.498 72.8219C580.17 72.7998 578.302 70.9009 578.33 68.5835C578.357 66.266 580.269 64.4055 582.597 64.4286C584.927 64.4516 586.793 66.3486 586.765 68.6651C586.739 70.9835 584.828 72.8449 582.498 72.8219Z" fill="#C01C27"/>
<path d="M569.854 107.836L571.592 95.7697C571.728 94.8241 572.615 93.9457 573.561 93.817L595.338 90.8679L593.6 102.934C593.464 103.88 592.578 104.758 591.631 104.886L569.854 107.836Z" fill="#4B547A"/>
<path d="M569.882 107.64L571.464 96.6577C571.599 95.7237 572.473 94.8568 573.408 94.73L595.207 91.7771L593.47 103.843C593.333 104.789 592.447 105.667 591.501 105.796L570.83 108.595C570.275 108.67 569.803 108.194 569.882 107.64Z" fill="black"/>
<path d="M582.964 101.832C581.793 102.11 580.954 101.562 581.091 100.608C581.229 99.6548 582.29 98.6565 583.462 98.379C584.633 98.1016 585.472 98.6488 585.335 99.603C585.197 100.556 584.136 101.555 582.964 101.832Z" fill="#4B547A"/>
<path d="M591.909 95.6314C591.322 95.7399 590.877 95.4154 590.913 94.9056C590.95 94.3959 591.455 93.8938 592.04 93.7853C592.627 93.6768 593.072 94.0013 593.036 94.5111C593 95.0218 592.495 95.5229 591.909 95.6314Z" fill="#7E7768"/>
<path d="M594.063 97.4564C594.063 97.4564 588.176 96.1288 587.034 97.1876C585.89 98.2465 591.643 100.434 591.643 100.434C591.643 100.434 588.146 99.7393 587.115 100.423C586.084 101.106 590.222 103.18 590.222 103.18C590.222 103.18 587.867 102.811 587.564 104.082C587.26 105.353 588.074 105.968 589.325 106.503C590.576 107.037 591.95 106.736 592.551 106.309C593.152 105.881 592.933 104.491 592.933 104.491C592.933 104.491 595.353 103.76 595.578 102.92C595.802 102.08 595.286 101.404 595.286 101.404C595.286 101.404 596.371 101.413 596.922 100.454C597.473 99.4945 597.08 98.7909 597.08 98.7909C597.08 98.7909 598.295 97.035 598.767 95.9732C599.238 94.9115 597.423 93.7029 596.349 92.8081C595.277 91.9134 592.726 93.9908 590.69 94.0964C590.69 94.0964 589.587 94.54 590.534 95.4693C591.48 96.3976 593.961 95.6593 594.453 95.7861C594.944 95.9137 594.063 97.4564 594.063 97.4564Z" fill="#9B422D"/>
<path d="M449.245 326.91L439.147 347.198L447.127 352.66L461.427 335.213L449.245 326.91Z" fill="#9B422D"/>
<path d="M457.844 373.033H443.345C443.345 373.033 432.757 355.063 433.043 352.335C433.097 351.838 433.367 351.713 434.446 350.676C434.446 350.674 435.026 350.153 435.026 350.153C435.036 350.137 435.047 350.123 435.06 350.108C436.971 347.576 439.668 344.112 441.155 342.386C441.51 341.975 442.183 342.127 442.323 342.653C442.892 344.821 442.146 346.449 444.374 347.439C444.374 347.439 447.109 343.433 450.259 346.192C452.008 347.725 447.364 354.983 448.657 356.964C449.73 358.616 451.699 360.915 454.065 363.372C454.543 363.869 455.041 364.374 455.548 364.882C457.361 366.69 457.823 369.27 457.903 371.041C457.959 372.216 457.844 373.033 457.844 373.033Z" fill="#518E4B"/>
<path d="M445.714 357.931C446.643 357.028 448.04 356.849 449.168 357.489C449.493 357.674 449.201 358.176 448.874 357.991C447.974 357.479 446.869 357.62 446.126 358.342C445.857 358.604 445.445 358.193 445.714 357.931Z" fill="black"/>
<path d="M446.98 359.41C447.909 358.506 449.306 358.328 450.434 358.967C450.759 359.152 450.466 359.654 450.14 359.469C449.238 358.957 448.134 359.099 447.391 359.82C447.123 360.082 446.711 359.671 446.98 359.41Z" fill="black"/>
<path d="M448.368 360.887C449.298 359.984 450.694 359.804 451.822 360.444C452.147 360.629 451.855 361.132 451.528 360.947C450.627 360.435 449.523 360.576 448.78 361.298C448.511 361.559 448.099 361.149 448.368 360.887Z" fill="black"/>
<path d="M439.387 344.722C439.332 347.833 438.247 350.745 436.234 353.121C435.885 353.533 436.479 354.133 436.831 353.718C438.991 351.168 440.171 348.066 440.231 344.722C440.241 344.179 439.396 344.179 439.387 344.722Z" fill="#F7FFFF"/>
<path d="M457.844 373.033H442.702C442.702 373.033 432.757 355.063 433.043 352.335C433.097 351.838 433.367 351.713 434.446 350.676C434.446 350.674 435.026 350.153 435.026 350.153C435.036 350.137 435.047 350.124 435.06 350.108C437.228 357.628 440.969 364.67 444.663 371.041H457.903C457.959 372.216 457.844 373.033 457.844 373.033Z" fill="#F7FFFF"/>
<path d="M517.371 172.339C517.371 172.339 508.054 250.384 505.553 262.431C505.43 263.025 505.323 263.459 505.234 263.714C504.742 265.141 503.696 267.514 502.253 270.558C492.827 290.43 466.44 338.854 466.44 338.854L438.706 328.22L469.508 260.459L471.317 170.529L517.371 172.339Z" fill="black"/>
<path d="M505.553 262.431C505.43 263.025 505.323 263.459 505.234 263.714C504.742 265.141 503.696 267.515 502.253 270.558C500.927 270.474 499.506 270.272 498.048 269.94C491.779 268.518 487.172 265.272 487.758 262.69C488.345 260.107 493.9 259.166 500.169 260.588C502.173 261.043 504.006 261.683 505.553 262.431Z" fill="#4B547A"/>
<path d="M487.177 174.064C489.397 184.001 484.803 194.315 475.913 199.277C475.585 199.459 475.292 198.957 475.619 198.775C484.276 193.943 488.78 183.906 486.616 174.219C486.535 173.855 487.096 173.699 487.177 174.064Z" fill="#4B547A"/>
<path d="M476.045 171.932C476.106 191.484 475.943 211.038 475.59 230.586C475.458 237.908 475.301 245.231 475.07 252.551C474.993 254.99 474.909 257.43 474.796 259.867C474.737 261.156 474.802 262.561 474.542 263.829C474.107 265.945 472.998 268.055 472.181 270.037C470.534 274.038 468.826 278.013 467.111 281.986C462.765 292.055 458.34 302.089 453.918 312.125C452.128 316.188 450.334 320.251 448.553 324.319C447.961 325.668 447.372 327.016 446.788 328.369C446.476 329.093 446.235 329.939 445.839 330.62C445.808 330.673 445.804 330.788 445.76 330.829C445.636 330.945 445.363 330.476 445.227 330.673C445.438 330.367 445.943 330.658 445.729 330.967C445.508 331.288 445.173 331.081 445.177 330.746C445.179 330.604 445.299 330.411 445.35 330.284C445.688 329.438 446.057 328.604 446.419 327.769C447.875 324.401 449.357 321.046 450.836 317.688C455.257 307.646 459.693 297.611 464.07 287.55C467.325 280.07 470.816 272.608 473.578 264.927C474.424 262.574 474.222 259.875 474.322 257.306C474.578 250.732 474.733 244.155 474.872 237.578C475.28 218.263 475.473 198.941 475.476 179.621C475.476 177.059 475.472 174.495 475.464 171.933C475.462 171.558 476.044 171.557 476.045 171.932Z" fill="#4B547A"/>
<path d="M553.377 256.215L552.597 264.541L545.05 345.078H514.788L518.534 263.714L504.142 174.873L542.531 170.53L553.259 255.279L553.377 256.215Z" fill="black"/>
<path d="M553.377 256.215L552.597 264.541C551.76 264.67 550.889 264.766 549.991 264.82C543.576 265.207 538.245 263.38 538.083 260.735C537.924 258.091 542.995 255.634 549.411 255.245C550.754 255.163 552.048 255.179 553.259 255.279L553.377 256.215Z" fill="#4B547A"/>
<path d="M537.451 177.427C537.129 181.3 537.797 185.252 539.27 188.843C540.543 191.946 542.502 195.155 545.538 196.791C545.867 196.969 545.574 197.471 545.244 197.293C542.214 195.66 540.209 192.514 538.889 189.432C537.282 185.674 536.529 181.505 536.869 177.426C536.9 177.057 537.482 177.054 537.451 177.427Z" fill="#4B547A"/>
<path d="M515.006 176.88C515.228 181.768 515.323 186.66 515.289 191.553C515.286 191.928 514.704 191.929 514.707 191.553C514.741 186.66 514.646 181.768 514.424 176.88C514.408 176.506 514.99 176.507 515.006 176.88Z" fill="#4B547A"/>
<path d="M511.038 177.304C511.048 179.7 511.056 182.097 511.066 184.494C511.07 185.539 510.955 186.777 511.443 187.738C512.045 188.92 513.479 189.269 514.597 188.601C514.919 188.409 515.212 188.911 514.891 189.103C512.94 190.267 510.916 188.914 510.581 186.835C510.359 185.458 510.482 183.992 510.477 182.602C510.47 180.836 510.463 179.07 510.456 177.304C510.455 176.93 511.037 176.93 511.038 177.304Z" fill="#4B547A"/>
<path d="M515.263 190.726C514.903 200.671 513.861 210.58 512.15 220.383C512.085 220.751 511.525 220.595 511.589 220.229C513.291 210.477 514.323 200.62 514.681 190.727C514.695 190.353 515.276 190.351 515.263 190.726Z" fill="#4B547A"/>
<path d="M514.66 202.999C516.648 212.926 518.264 222.928 519.793 232.935C521.027 241.019 522.184 249.115 523.275 257.219C523.485 258.779 523.694 260.339 523.895 261.899C523.701 261.899 523.507 261.899 523.313 261.899C523.34 261.574 523.615 260.707 523.951 261.418C524.147 261.833 523.98 262.682 523.975 263.117C523.936 266.566 523.817 270.014 523.701 273.462C523.255 286.724 522.623 299.982 521.846 313.23C521.311 322.342 520.701 331.45 519.975 340.549C519.945 340.92 519.364 340.923 519.393 340.549C520.579 325.675 521.471 310.777 522.19 295.873C522.676 285.809 523.116 275.738 523.347 265.664C523.374 264.507 523.403 263.349 523.399 262.192C523.398 262.066 523.316 261.633 523.384 261.524C523.362 261.56 523.9 261.55 523.924 261.6C523.929 261.612 523.902 261.829 523.895 261.899C523.863 262.28 523.36 262.266 523.313 261.899C522.729 257.371 522.103 252.846 521.466 248.325C520.114 238.743 518.681 229.172 517.087 219.629C516.167 214.123 515.195 208.625 514.099 203.152C514.025 202.787 514.586 202.631 514.66 202.999Z" fill="#4B547A"/>
<path d="M523.603 338.842L524.935 361.466L534.574 362.234L538.302 339.986L523.603 338.842Z" fill="#9B422D"/>
<path d="M558.111 373.033H521.085C521.027 372.466 521.006 371.888 521.006 371.299C521.006 371.04 521.025 370.786 521.02 370.526C520.925 365.452 521.025 354.831 523.347 356.395C525.619 360.426 531.581 358.732 531.581 358.732C531.581 358.732 535.285 353.868 537.801 355.343C540.317 356.817 537.442 359.618 540.677 362.124C543.158 364.04 546.264 362.938 549.93 363.64C551.051 363.852 552.216 364.235 553.439 364.926C556.286 366.535 557.414 368.8 557.86 370.527C558.219 371.965 558.111 373.033 558.111 373.033Z" fill="#518E4B"/>
<path d="M540.908 362.759C539.83 362.73 538.834 363.195 538.194 364.071C537.975 364.371 537.47 364.081 537.692 363.778C538.451 362.737 539.614 362.143 540.908 362.177C541.281 362.188 541.283 362.77 540.908 362.759Z" fill="black"/>
<path d="M542.748 363.242C541.67 363.213 540.675 363.677 540.034 364.554C539.815 364.853 539.31 364.564 539.532 364.26C540.291 363.22 541.454 362.625 542.748 362.66C543.122 362.67 543.124 363.252 542.748 363.242Z" fill="black"/>
<path d="M544.899 363.366C543.82 363.336 542.824 363.801 542.185 364.678C541.966 364.977 541.461 364.688 541.683 364.384C542.442 363.344 543.604 362.749 544.899 362.784C545.272 362.794 545.274 363.376 544.899 363.366Z" fill="black"/>
<path d="M521.47 361.753C525.504 363.59 528.593 366.952 530.032 371.152C530.206 371.664 531.023 371.444 530.846 370.927C529.34 366.531 526.13 362.952 521.896 361.023C521.405 360.799 520.975 361.527 521.47 361.753Z" fill="#F7FFFF"/>
<path d="M558.111 373.033H521.085C521.027 372.466 521.006 371.888 521.006 371.299V370.526H557.86C558.218 371.965 558.111 373.033 558.111 373.033Z" fill="#F7FFFF"/>
<path d="M513.5 338.999L547.369 338.073L547.066 345.775L513.413 346.558L513.5 338.999Z" fill="#4B547A"/>
<path d="M437.832 324.786L469.509 336.807L466.301 343.815L434.878 331.745L437.832 324.786Z" fill="#4B547A"/>
<path d="M466.524 176.874C467.401 168.627 469.91 141.541 469.982 113.018C469.984 112.216 469.896 111.43 469.827 110.658C469.131 102.739 467.381 96.7796 466.112 91.5236C464.703 85.7022 463.888 80.7428 465.743 74.9444C467.261 70.2001 469.737 67.6964 472.81 66.147C473.084 66.0097 473.362 65.8791 473.645 65.7572C477.598 64.0263 482.427 63.6011 487.436 62.0017C489.736 61.2692 492.076 60.2871 494.384 58.8164C506.119 51.3457 512.485 58.8164 512.485 58.8164C512.485 58.8164 514.347 59.2254 516.964 59.907C518.019 60.1806 519.198 60.4983 520.428 60.8507C520.679 60.9217 520.931 60.9947 521.186 61.0705C525.371 62.2983 529.962 63.8996 532.213 65.522C535.326 67.7694 536.14 78.3044 536.365 89.4855C536.37 89.762 536.375 90.0404 536.379 90.3188C536.397 91.2788 536.409 92.2417 536.419 93.2036C536.433 94.6551 536.443 96.1019 536.447 97.5303V97.5323C536.448 97.8471 536.45 98.161 536.45 98.473C536.46 102.078 536.454 105.532 536.497 108.562C536.501 108.902 536.507 109.234 536.514 109.562C536.545 111.317 536.596 112.91 536.679 114.282C536.715 114.877 536.757 115.427 536.806 115.934C537.328 121.33 543.394 163.406 545.059 170.862C523.609 175.763 498.2 176.782 466.524 176.874Z" fill="#584CDC"/>
<path d="M498.508 93.7642L500.342 109.827H530.101L527.418 93.7642H498.508Z" fill="#7373FA"/>
<path d="M480.845 134.799C492.654 144.978 507.636 151.312 523.145 152.834C527.442 153.255 531.768 153.298 536.074 152.975C536.454 152.946 536.452 153.538 536.074 153.567C520.45 154.74 504.566 150.924 491.108 142.918C487.329 140.67 483.757 138.088 480.427 135.218C480.138 134.968 480.558 134.552 480.845 134.799Z" fill="black"/>
<path d="M500.71 138.082C510.589 140.606 521.109 139.93 530.589 136.178C530.943 136.038 531.096 136.61 530.746 136.748C521.172 140.537 510.526 141.201 500.552 138.652C500.183 138.558 500.34 137.988 500.71 138.082Z" fill="black"/>
<path d="M474.049 103.958C475.88 122.309 476.164 140.805 474.862 159.201C474.49 164.445 473.988 169.679 473.365 174.898C473.311 175.352 472.592 175.357 472.648 174.898C474.833 156.586 475.472 138.1 474.526 119.681C474.256 114.431 473.854 109.188 473.332 103.957C473.286 103.498 474.004 103.502 474.049 103.958Z" fill="black"/>
<path d="M536.649 83.3472C536.642 87.8534 536.634 92.3596 536.627 96.8659C536.626 97.3276 535.909 97.3286 535.91 96.8659C535.918 92.3596 535.926 87.8534 535.932 83.3472C535.932 82.8854 536.65 82.8844 536.649 83.3472Z" fill="black"/>
<path d="M494.875 60.6277C494.387 61.4553 509.606 74.156 513.854 62.6005L512.029 55.2402L510.824 50.3836L509.981 46.9833L496.462 44.1589C496.884 50.4316 496.272 55.8527 494.875 60.6277Z" fill="#9B422D"/>
<path d="M499.484 49.3093C505.306 56.7426 510.689 57.7612 512.488 57.093L510.824 50.3845L499.484 49.3093Z" fill="black"/>
<path d="M500.371 18.1901C500.371 18.1901 506.913 10.4775 516.645 17.3971C522.78 21.7594 524.477 29.6621 523.319 34.1549C522.244 38.3251 517.58 38.041 515.113 37.1126C512.646 36.1843 496.172 24.3447 496.172 24.3447C496.172 24.3447 493.551 18.048 500.371 18.1901Z" fill="black"/>
<path d="M495.109 40.3843C495.137 40.9354 495.191 41.4423 495.275 41.9223C495.469 43.032 495.819 43.9939 496.352 44.9741C497.054 46.2663 498.076 47.5959 499.482 49.3469C501.692 52.0963 505.214 53.0515 508.587 52.9479C517.546 52.6762 518.155 46.5437 517.113 37.3459C516.464 31.6349 517.975 28.4064 516.471 26.2282H516.468C516.37 26.1283 516.268 26.0314 516.166 25.9373C513.745 23.664 510.495 22.4736 507.172 22.5139C506.531 22.5226 505.92 22.5504 505.334 22.5975C505.201 22.6042 505.068 22.6157 504.938 22.6301C504.883 22.633 504.828 22.6378 504.777 22.6464C504.628 22.6589 504.483 22.6743 504.337 22.6944C504.233 22.705 504.129 22.7175 504.028 22.7338C503.791 22.7635 503.562 22.799 503.339 22.8365C496.21 24.0509 494.573 28.4707 494.463 32.783C494.387 35.7158 495.02 38.5968 495.109 40.3843Z" fill="#9B422D"/>
<path d="M517.477 42.0826C517.477 42.0826 518.74 48.2938 517.51 52.7626C516.28 57.2304 510.174 59.6707 502.846 54.7968C498.384 51.8304 498.298 43.0963 498.298 43.0963L501.069 37.7059L503.003 37.4304C503.003 37.4304 504.086 40.2643 506.129 41.2762C508.172 42.288 510.48 40.1127 517.477 42.0826Z" fill="black"/>
<path d="M515.065 37.9248C514.724 38.184 514.237 38.1187 513.978 37.7779C513.719 37.4371 513.785 36.9504 514.125 36.6912C514.466 36.432 514.952 36.4983 515.212 36.8381C515.472 37.1789 515.406 37.6656 515.065 37.9248Z" fill="black"/>
<path d="M508.945 37.5179C508.604 37.7771 508.118 37.7108 507.858 37.371C507.599 37.0302 507.664 36.5434 508.005 36.2842C508.346 36.025 508.833 36.0913 509.092 36.4311C509.352 36.7719 509.286 37.2587 508.945 37.5179Z" fill="black"/>
<path d="M512.499 47.3462C511.307 47.7542 510.064 47.591 509.032 46.8614C508.655 46.5945 509.079 46.0156 509.458 46.2825C510.267 46.8556 511.261 47.015 512.204 46.6915C512.637 46.5436 512.936 47.1964 512.499 47.3462Z" fill="#59647A"/>
<path d="M514.109 42.9111C511.142 42.6001 508.174 42.2891 508.174 42.2891C508.174 42.2891 508.202 45.3918 511.221 45.7086C513.787 45.9783 514.109 42.9111 514.109 42.9111Z" fill="#F7FFFF"/>
<path d="M505.729 21.8237C505.729 21.8237 510.946 30.7066 519.044 29.3405C527.143 27.9754 513.643 16.3805 505.729 21.8237Z" fill="black"/>
<path d="M504.482 39.2515C504.507 39.742 505.29 40.102 506.232 40.055C507.174 40.008 507.918 39.5721 507.894 39.0806C507.869 38.59 507.086 38.23 506.144 38.2771C505.201 38.3241 504.457 38.76 504.482 39.2515Z" fill="#65272B"/>
<path d="M517.342 39.6624C517.039 39.887 516.56 40.0435 516.016 40.0704C515.076 40.1174 514.291 39.7584 514.267 39.2659C514.243 38.7763 514.987 38.3405 515.928 38.2934C516.446 38.2675 516.917 38.3654 517.239 38.5401L517.342 39.6624Z" fill="#65272B"/>
<path d="M508.48 33.1151C507.877 32.9039 507.015 32.9644 506.764 33.67C506.611 34.0982 506.216 34.4082 505.74 34.2892C505.332 34.1865 504.967 33.6998 505.121 33.2658C505.668 31.7279 507.321 30.9244 508.883 31.4726C509.313 31.6233 509.621 32.0226 509.503 32.4959C509.401 32.9068 508.915 33.2678 508.48 33.1151Z" fill="black"/>
<path d="M513.085 33.6193C513.718 33.5281 514.551 33.7556 514.662 34.4958C514.729 34.945 515.057 35.3262 515.546 35.3012C515.966 35.2801 516.419 34.873 516.351 34.417C516.111 32.8023 514.646 31.6945 513.007 31.9297C512.557 31.994 512.176 32.3262 512.201 32.8138C512.222 33.2372 512.629 33.6855 513.085 33.6193Z" fill="black"/>
<path d="M498.446 42.7429C497.184 42.8245 496.126 42.5029 495.276 41.9231C495.47 43.0329 495.82 43.9948 496.352 44.9749C497.219 44.4911 497.945 43.7721 498.446 42.7429Z" fill="black"/>
<path d="M502.508 38.3385C500.734 39.4723 500.077 33.4147 496.467 32.6217C495.675 32.447 495.007 32.5238 494.463 32.7849C494.388 35.7158 495.021 38.5968 495.11 40.3853C495.137 40.9209 495.188 41.4173 495.27 41.8857C493.715 38.2483 491.963 33.9533 491.555 32.1235C491.471 31.7539 491.422 31.4045 491.404 31.0733C491.483 30.9773 491.563 30.8841 491.648 30.7958C492.009 30.4022 492.416 30.0633 492.856 29.7696C493.553 29.3088 494.341 28.9632 495.172 28.7117C497.867 27.8909 500.6 27.9888 502.857 28.2787C502.302 30.9187 503.961 37.4083 502.508 38.3385Z" fill="black"/>
<path d="M506.024 24.4907C506.024 24.4907 503.585 25.5092 503.028 27.4715C502.47 29.4337 502.668 31.442 502.668 31.442C502.668 31.442 495.955 31.6945 494.614 30.8507C493.272 30.0069 493.832 25.5054 493.832 25.5054C493.832 25.5054 503.266 20.5988 505.729 21.8238C508.193 23.0488 506.024 24.4907 506.024 24.4907Z" fill="black"/>
<path d="M500.225 19.5772C500.225 19.5772 497.149 17.6437 493.834 20.469C490.518 23.2943 490.756 28.3487 491.403 31.0722C492.05 33.7957 501.874 28.6089 500.225 19.5772Z" fill="black"/>
<path d="M501.174 40.3872C501.584 38.9261 501.239 37.3594 500.345 36.1325C499.187 34.5437 497.074 32.1159 495.185 32.4759C492.408 33.0048 492.2 35.5143 492.602 38.04C493.005 40.5658 494.835 43.8077 498.299 43.0963C500.031 42.7411 500.838 41.5834 501.174 40.3872Z" fill="#9B422D"/>
<path d="M497.821 40.1029C497.906 39.0335 497.919 37.918 497.472 36.9177C497.072 36.0239 495.986 34.7528 494.837 35.1954C494.452 35.3432 494.154 34.7682 494.542 34.6194C495.649 34.1932 496.755 34.8028 497.466 35.6764C498.491 36.9368 498.59 38.5919 498.467 40.1452C498.434 40.5599 497.788 40.5196 497.821 40.1029Z" fill="black"/>
<path d="M512.051 38.2945C511.489 36.2267 512.713 34.0878 514.78 33.5252C516.847 32.9627 518.986 34.1867 519.549 36.2535C520.111 38.3204 518.888 40.4603 516.821 41.0228C514.754 41.5854 512.614 40.3614 512.051 38.2945ZM512.601 38.1447C513.081 39.9083 514.907 40.9537 516.672 40.4737C518.435 39.9937 519.481 38.1678 519.001 36.4033C518.521 34.6388 516.695 33.5943 514.93 34.0743C513.166 34.5543 512.121 36.3803 512.601 38.1447Z" fill="#F7FFFF"/>
<path d="M511.275 36.3053C511.123 37.5255 512.928 38.0016 512.694 39.3514C512.539 40.2452 511.69 40.7376 510.831 40.5687C510.403 40.4842 510.47 39.8036 510.902 39.889C511.547 40.0167 512.073 39.6212 511.998 38.9616C511.948 38.5114 511.568 38.21 511.275 37.8989C510.822 37.4189 510.51 36.9092 510.594 36.2343C510.649 35.7984 511.329 35.8685 511.275 36.3053Z" fill="black"/>
<path d="M502.827 38.0526C502.264 35.9857 503.488 33.8458 505.555 33.2833C507.622 32.7207 509.762 33.9447 510.324 36.0116C510.887 38.0785 509.663 40.2183 507.596 40.7809C505.528 41.3434 503.389 40.1194 502.827 38.0526ZM503.376 37.9028C503.856 39.6673 505.682 40.7118 507.446 40.2308C509.211 39.7508 510.255 37.9249 509.775 36.1604C509.295 34.3959 507.469 33.3514 505.705 33.8314C503.94 34.3134 502.896 36.1393 503.376 37.9028Z" fill="#F7FFFF"/>
<path d="M512.033 36.6817C511.602 36.2065 510.981 36.1575 510.467 36.5396C510.202 36.7364 509.942 36.2929 510.205 36.098C510.891 35.5892 511.821 35.6852 512.393 36.315C512.614 36.5598 512.255 36.9265 512.033 36.6817Z" fill="#F7FFFF"/>
<path d="M502.669 36.1027C501.748 34.9325 500.408 34.2326 498.916 34.1789C498.587 34.1674 498.586 33.6538 498.918 33.6662C500.533 33.7248 502.026 34.465 503.029 35.737C503.23 35.9933 502.873 36.361 502.669 36.1027Z" fill="#F7FFFF"/>
<path d="M494.434 58.7241C495.9 65.639 500.087 73.1567 507.592 74.7283C510.674 75.3734 513.629 74.2924 514.6 71.1062C515.2 69.1372 514.97 66.9167 514.729 64.9084C514.472 62.7647 514.011 60.6595 513.374 58.5974C513.238 58.1558 512.543 58.3439 512.68 58.7884C513.735 62.206 514.634 66.1689 514.143 69.7593C513.896 71.5622 513.022 73.3065 511.201 73.9382C509.636 74.4816 507.886 74.1609 506.365 73.631C499.9 71.3769 496.47 64.8499 495.129 58.5321C495.032 58.079 494.338 58.271 494.434 58.7241Z" fill="#DC8D30"/>
<path d="M513.123 228.656H424.561V287.607H513.123V228.656Z" fill="black"/>
<path d="M506.157 228.657H417.594V287.608H506.157V228.657Z" fill="#DC8D30"/>
<path d="M496.747 278.198H426.635V238.067H496.747V278.198ZM427.168 277.664H496.213V238.598H427.168V277.664Z" fill="black"/>
<path d="M421.986 232.444H421.453V282.693H421.986V232.444Z" fill="black"/>
<path d="M502.019 232.444H501.486V282.693H502.019V232.444Z" fill="black"/>
<path d="M427.271 228.657C427.271 234 422.938 238.334 417.594 238.334V228.657H427.271Z" fill="black"/>
<path d="M506.157 228.657V238.334C500.813 238.334 496.48 234.001 496.48 228.657H506.157Z" fill="black"/>
<path d="M506.157 277.931V287.607H496.48C496.48 282.263 500.813 277.931 506.157 277.931Z" fill="black"/>
<path d="M427.271 287.607H417.594V277.931C422.937 277.931 427.271 282.263 427.271 287.607Z" fill="black"/>
<path d="M445.503 228.657H437.373V287.607H445.503V228.657Z" fill="black"/>
<path d="M445.503 287.607H437.373V244.429C437.373 242.624 438.836 241.161 440.641 241.161H442.234C444.04 241.161 445.503 242.625 445.503 244.429V287.607Z" fill="#C41C27"/>
<path d="M441.365 266.182C441.985 266.182 442.488 265.68 442.488 265.06C442.488 264.44 441.985 263.938 441.365 263.938C440.746 263.938 440.243 264.44 440.243 265.06C440.243 265.68 440.746 266.182 441.365 266.182Z" fill="black"/>
<path d="M441.365 272.617C441.985 272.617 442.488 272.115 442.488 271.495C442.488 270.875 441.985 270.373 441.365 270.373C440.746 270.373 440.243 270.875 440.243 271.495C440.243 272.115 440.746 272.617 441.365 272.617Z" fill="black"/>
<path d="M441.365 279.053C441.985 279.053 442.488 278.55 442.488 277.931C442.488 277.311 441.985 276.808 441.365 276.808C440.746 276.808 440.243 277.311 440.243 277.931C440.243 278.55 440.746 279.053 441.365 279.053Z" fill="black"/>
<path d="M484.92 228.657H476.79V287.607H484.92V228.657Z" fill="black"/>
<path d="M484.92 287.607H476.79V244.429C476.79 242.624 478.254 241.161 480.059 241.161H481.651C483.456 241.161 484.92 242.625 484.92 244.429V287.607Z" fill="#C41C27"/>
<path d="M480.855 266.182C481.474 266.182 481.977 265.68 481.977 265.06C481.977 264.44 481.474 263.938 480.855 263.938C480.235 263.938 479.732 264.44 479.732 265.06C479.732 265.68 480.235 266.182 480.855 266.182Z" fill="black"/>
<path d="M480.855 272.617C481.474 272.617 481.977 272.115 481.977 271.495C481.977 270.875 481.474 270.373 480.855 270.373C480.235 270.373 479.732 270.875 479.732 271.495C479.732 272.115 480.235 272.617 480.855 272.617Z" fill="black"/>
<path d="M480.855 279.053C481.474 279.053 481.977 278.55 481.977 277.931C481.977 277.311 481.474 276.808 480.855 276.808C480.235 276.808 479.732 277.311 479.732 277.931C479.732 278.55 480.235 279.053 480.855 279.053Z" fill="black"/>
<path d="M446.036 260.761H436.84V255.431H446.036V260.761ZM437.905 259.695H444.97V256.498H437.905V259.695Z" fill="black"/>
<path d="M485.453 260.761H476.257V255.431H485.453V260.761ZM477.323 259.695H484.388V256.498H477.323V259.695Z" fill="black"/>
<path d="M448.954 228.657H446.467V220.718C446.467 217.776 448.861 215.383 451.802 215.383H468.586C471.529 215.383 473.922 217.776 473.922 220.718V228.656H471.434V220.718C471.434 219.148 470.157 217.869 468.585 217.869H451.802C450.231 217.869 448.952 219.147 448.952 220.718V228.657H448.954Z" fill="black"/>
<path d="M468.841 218.5V214.609C468.841 213.907 468.273 213.339 467.571 213.339H452.82C452.118 213.339 451.55 213.907 451.55 214.609V218.5H468.841Z" fill="#C41C27"/>
<path d="M448.353 102.749C448.353 102.749 446.197 108.969 460.709 114.18C475.221 119.39 479.193 114.427 479.193 114.427C479.193 114.427 480.627 103.439 467.19 100.4C453.753 97.3594 451.033 98.5373 448.353 102.749Z" fill="black"/>
<path d="M456.801 92.5852C456.801 92.5852 439.896 126.058 439.815 142.297C439.767 152.048 452.193 202.789 452.193 202.789L463.768 202.026C463.768 202.026 461.653 153.776 461.427 147.203C461.116 138.171 481.604 104.337 481.604 104.337L456.801 92.5852Z" fill="#9B422D"/>
<path d="M461.476 144.919C459.26 142.577 456.417 141.015 453.249 140.411C452.796 140.324 452.602 141.018 453.058 141.105C456.115 141.688 458.828 143.167 460.968 145.427C461.286 145.764 461.795 145.255 461.476 144.919Z" fill="#65272B"/>
<path d="M459.87 143.465C459.434 141.895 458.749 140.435 457.812 139.101C457.548 138.725 456.923 139.084 457.19 139.464C458.093 140.752 458.754 142.139 459.175 143.656C459.3 144.103 459.994 143.913 459.87 143.465Z" fill="#65272B"/>
<path d="M467.883 70.4159C467.883 70.4159 456.513 80.0668 448.353 102.749C450.665 96.6441 481.505 108.323 479.193 114.427C479.193 114.427 489.048 98.205 485.088 82.3554C481.129 66.5068 470.428 67.3785 467.883 70.4159Z" fill="#584CDC"/>
<path d="M451.532 95.9519C463.477 95.6591 475.13 100.763 482.749 110.017C482.97 110.286 483.35 109.902 483.131 109.635C475.427 100.28 463.606 95.1158 451.532 95.4114C451.185 95.421 451.184 95.9606 451.532 95.9519Z" fill="black"/>
<path d="M480.053 114.784C484.866 108.498 488.832 101.628 491.886 94.3248C492.019 94.0051 491.497 93.865 491.366 94.1808C488.331 101.437 484.368 108.266 479.588 114.511C479.375 114.787 479.845 115.057 480.053 114.784Z" fill="black"/>
<path d="M474.806 66.0134C481.153 66.526 486.887 70.4591 489.686 76.1711C489.839 76.4831 490.305 76.2095 490.152 75.8985C487.267 70.0099 481.337 65.9999 474.807 65.4729C474.459 65.446 474.461 65.9855 474.806 66.0134Z" fill="black"/>
<path d="M452.719 200.615C452.719 200.615 450.974 208.751 450.635 211.561C450.297 214.371 450.061 220.418 452.012 221.203C453.962 221.988 463.191 221.918 464.756 220.848C466.32 219.778 466.284 214.912 466.705 214.898C467.126 214.884 468.841 215.009 468.841 215.009C468.841 215.009 471.021 212.122 468.486 209.145C465.951 206.168 463.667 198.835 463.667 198.835L452.719 200.615Z" fill="#9B422D"/>
<path d="M466.665 214.716C466.225 212.581 465.546 210.54 464.63 208.563C464.502 208.287 464.094 208.527 464.222 208.802C465.121 210.742 465.777 212.746 466.208 214.838C466.269 215.137 466.726 215.013 466.665 214.716Z" fill="#65272B"/>
<path d="M469.713 128.728C469.713 128.728 497.476 119.382 510.798 94.4075C521.788 73.8049 516.963 59.908 516.963 59.908C516.963 59.908 524.886 60.1921 528.767 63.6961C528.767 63.6961 534.495 84.2526 517.371 109.827C501.426 133.644 469.042 145.539 469.042 145.539C469.042 145.539 469.209 132.825 469.713 128.728Z" fill="black"/>
<path d="M513.117 89.6928C517.625 90.3379 521.634 92.6064 524.671 95.977C524.982 96.3216 525.49 95.8109 525.18 95.4682C522.07 92.0179 517.925 89.6592 513.308 88.9987C512.854 88.9334 512.659 89.6266 513.117 89.6928Z" fill="#DC8D30"/>
<path d="M503.748 105.774C508.256 106.419 512.265 108.687 515.302 112.058C515.614 112.403 516.121 111.892 515.811 111.549C512.702 108.099 508.557 105.74 503.939 105.08C503.486 105.014 503.29 105.709 503.748 105.774Z" fill="#DC8D30"/>
<path d="M256.811 156.433C251.189 157.16 250.182 158.316 249.627 165.621C249.608 165.867 249.248 165.867 249.23 165.621C248.674 158.316 247.667 157.161 242.046 156.433C241.815 156.403 241.815 156.067 242.046 156.037C247.668 155.31 248.675 154.155 249.23 146.849C249.249 146.603 249.609 146.603 249.627 146.849C250.183 154.154 251.19 155.309 256.811 156.037C257.042 156.068 257.042 156.403 256.811 156.433Z" fill="#DC8D30"/>
<path d="M79.5784 19.0732C73.9567 19.8009 72.9496 20.9567 72.3938 28.2613C72.3746 28.5071 72.0146 28.5071 71.9964 28.2613C71.4405 20.9567 70.4335 19.8018 64.8117 19.0732C64.5803 19.0434 64.5803 18.7074 64.8117 18.6777C70.4335 17.95 71.4405 16.7941 71.9964 9.4895C72.0156 9.24374 72.3755 9.24374 72.3938 9.4895C72.9496 16.7941 73.9567 17.949 79.5784 18.6777C79.8098 18.7074 79.8098 19.0434 79.5784 19.0732Z" fill="#DC8D30"/>
<path d="M455.978 20.5668C450.357 21.2945 449.35 22.4503 448.794 29.755C448.775 30.0007 448.414 30.0007 448.396 29.755C447.84 22.4503 446.833 21.2955 441.213 20.5668C440.981 20.5371 440.981 20.2011 441.213 20.1713C446.834 19.4436 447.841 18.2887 448.396 10.9831C448.414 10.7374 448.775 10.7374 448.794 10.9831C449.35 18.2878 450.357 19.4427 455.978 20.1713C456.21 20.2011 456.21 20.5371 455.978 20.5668Z" fill="#DC8D30"/>
<path d="M589.923 181.384C584.301 182.112 583.294 183.268 582.738 190.572C582.72 190.818 582.359 190.818 582.341 190.572C581.785 183.268 580.778 182.113 575.157 181.384C574.926 181.354 574.926 181.018 575.157 180.989C580.779 180.261 581.786 179.105 582.341 171.801C582.36 171.555 582.72 171.555 582.738 171.801C583.294 179.105 584.301 180.26 589.923 180.989C590.155 181.018 590.155 181.353 589.923 181.384Z" fill="#DC8D30"/>
<path d="M52.0716 120.726C49.4604 120.726 47.3359 118.601 47.3359 115.991C47.3359 113.38 49.4604 111.255 52.0716 111.255C54.6828 111.255 56.8073 113.38 56.8073 115.991C56.8073 118.601 54.6828 120.726 52.0716 120.726ZM52.0716 112.214C49.9903 112.214 48.2959 113.908 48.2959 115.99C48.2959 118.071 49.9894 119.765 52.0716 119.765C54.1539 119.765 55.8473 118.071 55.8473 115.99C55.8473 113.909 54.1529 112.214 52.0716 112.214Z" fill="#518E4B"/>
<path d="M288.743 28.6367C286.131 28.6367 284.007 26.5122 284.007 23.9019C284.007 21.2907 286.131 19.1663 288.743 19.1663C291.354 19.1663 293.477 21.2907 293.477 23.9019C293.478 26.5122 291.354 28.6367 288.743 28.6367ZM288.743 20.1263C286.661 20.1263 284.967 21.8197 284.967 23.9019C284.967 25.9832 286.66 27.6767 288.743 27.6767C290.824 27.6767 292.517 25.9832 292.517 23.9019C292.518 21.8197 290.825 20.1263 288.743 20.1263Z" fill="#C01C27"/>
<path d="M417.594 149.109C414.982 149.109 412.859 146.985 412.859 144.374C412.859 141.763 414.983 139.64 417.594 139.64C420.204 139.64 422.328 141.764 422.328 144.374C422.328 146.985 420.205 149.109 417.594 149.109ZM417.594 140.599C415.512 140.599 413.819 142.292 413.819 144.373C413.819 146.455 415.512 148.148 417.594 148.148C419.675 148.148 421.369 146.455 421.369 144.373C421.368 142.292 419.675 140.599 417.594 140.599Z" fill="#584CDC"/>
</svg>
