<svg width="30" height="33" viewBox="0 0 30 33" fill="none" xmlns="http://www.w3.org/2000/svg">
<path d="M27.5 16.3462C27.5 23.648 21.9036 29.5673 15 29.5673M27.5 16.3462C27.5 9.04431 21.9036 3.125 15 3.125M27.5 16.3462H2.5M15 29.5673C8.09644 29.5673 2.5 23.648 2.5 16.3462M15 29.5673C18.1266 25.9469 19.9034 21.2485 20 16.3462C19.9034 11.4438 18.1266 6.74542 15 3.125M15 29.5673C11.8734 25.9469 10.0966 21.2485 10 16.3462C10.0966 11.4438 11.8734 6.74542 15 3.125M2.5 16.3462C2.5 9.04431 8.09644 3.125 15 3.125" stroke="white" stroke-width="2" stroke-linecap="round" stroke-linejoin="round"/>
</svg>
