<svg width="21" height="31" viewBox="0 0 21 31" fill="none" xmlns="http://www.w3.org/2000/svg">
<path d="M17.3438 0.577984C17.3203 0.553989 17.2969 0.529994 17.2734 0.505999L15.8672 1.94571C15.8906 1.96971 15.9141 1.9937 15.9375 2.0177C18.9375 5.08908 18.9375 10.0861 15.9375 13.1575L17.3438 14.5972C21.123 10.722 21.123 4.44721 17.3438 0.577984Z" fill="white"/>
<path d="M14.5371 3.45141C14.5137 3.42741 14.4902 3.40342 14.4668 3.37942L13.0605 4.81914C13.084 4.84313 13.1074 4.86713 13.1309 4.89112C14.584 6.37882 14.584 8.79634 13.1309 10.278L14.5371 11.7178C16.7637 9.43821 16.7637 5.73095 14.5371 3.45141Z" fill="white"/>
<path d="M5.0625 2.0117C5.08594 1.9877 5.10938 1.96371 5.13281 1.93971L3.72656 0.5C3.70312 0.523995 3.67969 0.54799 3.65625 0.571986C-0.123047 4.44121 -0.123047 10.716 3.65625 14.5852L5.0625 13.1455C2.0625 10.0801 2.0625 5.08308 5.0625 2.0117Z" fill="white"/>
<path d="M6.46289 3.45141C4.23633 5.73095 4.23633 9.43821 6.46289 11.7118L7.86914 10.272C6.41602 8.78434 6.41602 6.36683 7.86914 4.88512C7.89258 4.86113 7.91602 4.83713 7.93945 4.81314L6.5332 3.37343C6.50977 3.40342 6.48633 3.42741 6.46289 3.45141Z" fill="white"/>
<path d="M9.26953 6.32484C8.58984 7.0207 8.58984 8.14847 9.26953 8.83833C9.94922 9.52819 11.0508 9.53419 11.7246 8.83833C12.4043 8.14247 12.4043 7.0147 11.7246 6.32484C11.0508 5.62897 9.94922 5.62897 9.26953 6.32484Z" fill="white"/>
<path d="M9.03516 9.87013L2.51367 29.8641L4.38281 30.5L11.1094 9.87013H9.03516Z" fill="white"/>
<path d="M11.9648 9.87013H9.89062L16.6172 30.5L18.4863 29.8641L11.9648 9.87013Z" fill="white"/>
<path d="M13.166 17.7645L12.4922 17.2127L3.84961 27.7526L4.95117 28.6584L13.166 17.7645Z" fill="white"/>
<path d="M7.93359 17.7645L8.60742 17.2127L17.25 27.7526L16.1484 28.6584L7.93359 17.7645Z" fill="white"/>
</svg>
