<svg width="24" height="24" viewBox="0 0 24 24" fill="none" xmlns="http://www.w3.org/2000/svg">
<path d="M7.8 3H16.2C19.1 3 21 5.1 21 8V15.9C21 18.8 19.2 20.9 16.2 20.9H7.8C4.9 20.9 3 18.8 3 15.9V8C3 5.1 4.8 3 7.8 3Z" stroke="#26263F" stroke-width="1.5" stroke-linecap="round" stroke-linejoin="round"/>
<path d="M7.2998 14C7.5998 14.4 8.0998 14.7 8.6998 14.7C9.5998 14.7 10.3998 14 10.3998 13C10.3998 12 9.7998 11.7 9.0998 11.7H7.5998L7.8998 9.30005H10.1998M16.3998 9.60005C16.0998 9.40005 15.6998 9.30005 15.2998 9.30005C13.8998 9.30005 12.6998 10.4 12.6998 11.8C12.6998 13.3 13.6998 14.6 15.1998 14.6C16.6998 14.6 16.6998 14.3 16.6998 13.4V11.9H15.1998" stroke="#26263F" stroke-width="1.5" stroke-linecap="round" stroke-linejoin="round"/>
</svg>
