<svg width="18" height="18" viewBox="0 0 18 18" fill="none" xmlns="http://www.w3.org/2000/svg">
<path d="M16.5001 12.6881V14.9381C16.5009 15.147 16.4581 15.3537 16.3745 15.5451C16.2908 15.7365 16.168 15.9083 16.0141 16.0495C15.8602 16.1907 15.6785 16.2982 15.4806 16.3651C15.2828 16.4321 15.0731 16.4569 14.8651 16.4381C12.5572 16.1874 10.3403 15.3987 8.39257 14.1356C6.58044 12.9841 5.04407 11.4477 3.89257 9.63562C2.62506 7.67902 1.83625 5.45137 1.59007 3.13312C1.57133 2.92572 1.59598 2.71669 1.66245 2.51934C1.72892 2.32199 1.83575 2.14064 1.97615 1.98684C2.11654 1.83303 2.28743 1.71015 2.47792 1.62601C2.6684 1.54187 2.87433 1.49832 3.08257 1.49812H5.33257C5.69655 1.49454 6.04942 1.62343 6.32539 1.86077C6.60137 2.09811 6.78163 2.4277 6.83257 2.78812C6.92754 3.50817 7.10366 4.21516 7.35757 4.89562C7.45848 5.16406 7.48032 5.45581 7.4205 5.73628C7.36069 6.01675 7.22172 6.2742 7.02007 6.47812L6.06757 7.43062C7.13524 9.30828 8.68991 10.863 10.5676 11.9306L11.5201 10.9781C11.724 10.7765 11.9814 10.6375 12.2619 10.5777C12.5424 10.5179 12.8341 10.5397 13.1026 10.6406C13.783 10.8945 14.49 11.0707 15.2101 11.1656C15.5744 11.217 15.9071 11.4005 16.145 11.6812C16.3828 11.962 16.5092 12.3203 16.5001 12.6881Z" stroke="#4D36D0" stroke-width="2" stroke-linecap="round" stroke-linejoin="round"/>
</svg>
