<svg width="62" height="50" viewBox="0 0 62 50" fill="none" xmlns="http://www.w3.org/2000/svg">
<path d="M28.5356 36.8288C28.5424 38.5856 28.1941 40.3232 27.5146 41.9225C26.8351 43.5219 25.8406 44.9452 24.599 46.0949C21.9349 48.6959 18.4338 50.0935 14.8284 49.9951C10.2514 49.9951 6.63761 48.2907 3.98697 44.8819C1.33908 41.4924 -0.0756396 37.1937 0.00311986 32.7769C0.00311986 22.2023 2.71413 14.2446 8.13615 8.90394C13.5582 3.56327 19.5602 0.606519 26.1422 0.0337023V11.6333C22.8253 12.0112 19.6852 13.423 17.1116 15.6935C15.7871 16.7537 14.6961 18.1118 13.9153 19.672C13.1344 21.2322 12.6829 22.9566 12.5924 24.7238C13.6855 24.1541 14.888 23.8656 16.1038 23.8814C20.0352 23.8814 23.09 25.0748 25.2683 27.4615C26.3686 28.7113 27.2244 30.1837 27.7855 31.7923C28.3466 33.4009 28.6016 35.1133 28.5356 36.8288ZM61.9968 36.8288C62.0051 38.5858 61.6575 40.324 60.9779 41.9236C60.2984 43.5232 59.303 44.9463 58.0602 46.0949C55.3961 48.6959 51.8949 50.0935 48.2896 49.9951C43.7231 49.9951 40.1381 48.2907 37.5347 44.8819C34.9187 41.4763 33.523 37.1844 33.5981 32.7769C33.5981 22.2023 36.2803 14.2446 41.6446 8.90394C47.0088 3.56327 53.003 0.59528 59.627 0V11.5995C56.3174 11.9921 53.1883 13.4156 50.6279 15.6935C49.2935 16.7474 48.1926 18.103 47.4033 19.6637C46.6141 21.2245 46.1559 22.9521 46.0614 24.7238C47.1517 24.1539 48.3517 23.8654 49.565 23.8814C53.4911 23.8814 56.5459 25.0748 58.7294 27.4615C59.8298 28.7109 60.6852 30.1835 61.245 31.7923C61.8048 33.4011 62.0578 35.1136 61.9889 36.8288H61.9968Z" fill="white" fill-opacity="0.36"/>
</svg>
