<svg width="33" height="29" viewBox="0 0 33 29" fill="none" xmlns="http://www.w3.org/2000/svg">
<path d="M2.84473 0.989075H29.9142V28.0586H2.84473V0.989075Z" fill="#4D36D0"/>
<path d="M3.27716 1.42151V27.6261H29.4818V1.42151H3.27716ZM2.84473 0.989075H29.9142V28.0586H2.84473V0.989075Z" fill="#4D36D0"/>
<path d="M27.9054 27.2027H4.87842V28.5H27.9054V27.2027Z" fill="#212121"/>
<path d="M27.9054 0.5H4.87842V1.68919H27.9054V0.5Z" fill="#212121"/>
<path d="M30.3921 26.1216V3.0946H29.2029V26.1216H30.3921Z" fill="#212121"/>
<path d="M3.68896 26.1216L3.68896 3.0946H2.49978L2.49978 26.1216H3.68896Z" fill="#212121"/>
<path d="M29.0947 1.7973H3.79736V27.0946H29.0947V1.7973Z" fill="white"/>
<path d="M5.20285 2.55405H4.5542V3.2027H5.20285V2.55405Z" fill="black"/>
<path d="M5.95939 2.55405H5.20264V3.2027H5.95939V2.55405Z" fill="black"/>
<path d="M6.71623 2.55405H5.95947V3.2027H6.71623V2.55405Z" fill="black"/>
<path d="M7.36496 2.55405H6.71631V3.2027H7.36496V2.55405Z" fill="black"/>
<path d="M8.1215 2.55405H7.36475V3.2027H8.1215V2.55405Z" fill="black"/>
<path d="M8.87834 2.55405H8.12158V3.2027H8.87834V2.55405Z" fill="black"/>
<path d="M9.63517 2.55405H8.87842V3.2027H9.63517V2.55405Z" fill="black"/>
<path d="M13.2026 2.55405H12.4458V3.2027H13.2026V2.55405Z" fill="black"/>
<path d="M13.9594 2.55405H13.2026V3.2027H13.9594V2.55405Z" fill="black"/>
<path d="M14.6081 2.55405H13.9595V3.2027H14.6081V2.55405Z" fill="black"/>
<path d="M17.5271 2.55405H16.8784V3.2027H17.5271V2.55405Z" fill="black"/>
<path d="M18.2836 2.55405H17.5269V3.2027H18.2836V2.55405Z" fill="black"/>
<path d="M21.2026 2.55405H20.4458V3.2027H21.2026V2.55405Z" fill="black"/>
<path d="M21.8513 2.55405H21.2026V3.2027H21.8513V2.55405Z" fill="black"/>
<path d="M22.6083 2.55405H21.8516V3.2027H22.6083V2.55405Z" fill="black"/>
<path d="M24.0134 2.55405H23.3647V3.2027H24.0134V2.55405Z" fill="black"/>
<path d="M24.7704 2.55405H24.0137V3.2027H24.7704V2.55405Z" fill="black"/>
<path d="M25.5273 2.55405H24.7705V3.2027H25.5273V2.55405Z" fill="black"/>
<path d="M26.2836 2.55405H25.5269V3.2027H26.2836V2.55405Z" fill="black"/>
<path d="M26.9323 2.55405H26.2837V3.2027H26.9323V2.55405Z" fill="black"/>
<path d="M27.6894 2.55405H26.9326V3.2027H27.6894V2.55405Z" fill="black"/>
<path d="M28.4462 2.55405H27.6895V3.2027H28.4462V2.55405Z" fill="black"/>
<path d="M5.20285 3.2027H4.5542V3.95945H5.20285V3.2027Z" fill="black"/>
<path d="M9.63517 3.2027H8.87842V3.95945H9.63517V3.2027Z" fill="black"/>
<path d="M11.0404 3.2027H10.2837V3.95945H11.0404V3.2027Z" fill="black"/>
<path d="M13.2026 3.2027H12.4458V3.95945H13.2026V3.2027Z" fill="black"/>
<path d="M15.3652 3.2027H14.6084V3.95945H15.3652V3.2027Z" fill="black"/>
<path d="M16.8783 3.2027H16.1216V3.95945H16.8783V3.2027Z" fill="black"/>
<path d="M18.2836 3.2027H17.5269V3.95945H18.2836V3.2027Z" fill="black"/>
<path d="M19.0404 3.2027H18.2837V3.95945H19.0404V3.2027Z" fill="black"/>
<path d="M20.4462 3.2027H19.6895V3.95945H20.4462V3.2027Z" fill="black"/>
<path d="M21.2026 3.2027H20.4458V3.95945H21.2026V3.2027Z" fill="black"/>
<path d="M24.0134 3.2027H23.3647V3.95945H24.0134V3.2027Z" fill="black"/>
<path d="M28.4462 3.2027H27.6895V3.95945H28.4462V3.2027Z" fill="black"/>
<path d="M5.20285 3.95947H4.5542V4.71623H5.20285V3.95947Z" fill="black"/>
<path d="M6.71623 3.95947H5.95947V4.71623H6.71623V3.95947Z" fill="black"/>
<path d="M7.36496 3.95947H6.71631V4.71623H7.36496V3.95947Z" fill="black"/>
<path d="M8.1215 3.95947H7.36475V4.71623H8.1215V3.95947Z" fill="black"/>
<path d="M9.63517 3.95947H8.87842V4.71623H9.63517V3.95947Z" fill="black"/>
<path d="M11.7973 3.95947H11.0405V4.71623H11.7973V3.95947Z" fill="black"/>
<path d="M12.446 3.95947H11.7974V4.71623H12.446V3.95947Z" fill="black"/>
<path d="M13.2026 3.95947H12.4458V4.71623H13.2026V3.95947Z" fill="black"/>
<path d="M14.6081 3.95947H13.9595V4.71623H14.6081V3.95947Z" fill="black"/>
<path d="M15.3652 3.95947H14.6084V4.71623H15.3652V3.95947Z" fill="black"/>
<path d="M16.1215 3.95947H15.3647V4.71623H16.1215V3.95947Z" fill="black"/>
<path d="M16.8783 3.95947H16.1216V4.71623H16.8783V3.95947Z" fill="black"/>
<path d="M17.5271 3.95947H16.8784V4.71623H17.5271V3.95947Z" fill="black"/>
<path d="M21.2026 3.95947H20.4458V4.71623H21.2026V3.95947Z" fill="black"/>
<path d="M22.6083 3.95947H21.8516V4.71623H22.6083V3.95947Z" fill="black"/>
<path d="M24.0134 3.95947H23.3647V4.71623H24.0134V3.95947Z" fill="black"/>
<path d="M25.5273 3.95947H24.7705V4.71623H25.5273V3.95947Z" fill="black"/>
<path d="M26.2836 3.95947H25.5269V4.71623H26.2836V3.95947Z" fill="black"/>
<path d="M26.9323 3.95947H26.2837V4.71623H26.9323V3.95947Z" fill="black"/>
<path d="M28.4462 3.95947H27.6895V4.71623H28.4462V3.95947Z" fill="black"/>
<path d="M5.20285 4.71622H4.5542V5.36487H5.20285V4.71622Z" fill="black"/>
<path d="M6.71623 4.71622H5.95947V5.36487H6.71623V4.71622Z" fill="black"/>
<path d="M7.36496 4.71622H6.71631V5.36487H7.36496V4.71622Z" fill="black"/>
<path d="M8.1215 4.71622H7.36475V5.36487H8.1215V4.71622Z" fill="black"/>
<path d="M9.63517 4.71622H8.87842V5.36487H9.63517V4.71622Z" fill="black"/>
<path d="M11.7973 4.71622H11.0405V5.36487H11.7973V4.71622Z" fill="black"/>
<path d="M13.9594 4.71622H13.2026V5.36487H13.9594V4.71622Z" fill="black"/>
<path d="M15.3652 4.71622H14.6084V5.36487H15.3652V4.71622Z" fill="black"/>
<path d="M16.1215 4.71622H15.3647V5.36487H16.1215V4.71622Z" fill="black"/>
<path d="M18.2836 4.71622H17.5269V5.36487H18.2836V4.71622Z" fill="black"/>
<path d="M19.6892 4.71622H19.0405V5.36487H19.6892V4.71622Z" fill="black"/>
<path d="M20.4462 4.71622H19.6895V5.36487H20.4462V4.71622Z" fill="black"/>
<path d="M21.2026 4.71622H20.4458V5.36487H21.2026V4.71622Z" fill="black"/>
<path d="M21.8513 4.71622H21.2026V5.36487H21.8513V4.71622Z" fill="black"/>
<path d="M24.0134 4.71622H23.3647V5.36487H24.0134V4.71622Z" fill="black"/>
<path d="M25.5273 4.71622H24.7705V5.36487H25.5273V4.71622Z" fill="black"/>
<path d="M26.2836 4.71622H25.5269V5.36487H26.2836V4.71622Z" fill="black"/>
<path d="M26.9323 4.71622H26.2837V5.36487H26.9323V4.71622Z" fill="black"/>
<path d="M28.4462 4.71622H27.6895V5.36487H28.4462V4.71622Z" fill="black"/>
<path d="M5.20285 5.36487H4.5542V6.12162H5.20285V5.36487Z" fill="black"/>
<path d="M6.71623 5.36487H5.95947V6.12162H6.71623V5.36487Z" fill="black"/>
<path d="M7.36496 5.36487H6.71631V6.12162H7.36496V5.36487Z" fill="black"/>
<path d="M8.1215 5.36487H7.36475V6.12162H8.1215V5.36487Z" fill="black"/>
<path d="M9.63517 5.36487H8.87842V6.12162H9.63517V5.36487Z" fill="black"/>
<path d="M11.7973 5.36487H11.0405V6.12162H11.7973V5.36487Z" fill="black"/>
<path d="M12.446 5.36487H11.7974V6.12162H12.446V5.36487Z" fill="black"/>
<path d="M16.1215 5.36487H15.3647V6.12162H16.1215V5.36487Z" fill="black"/>
<path d="M16.8783 5.36487H16.1216V6.12162H16.8783V5.36487Z" fill="black"/>
<path d="M17.5271 5.36487H16.8784V6.12162H17.5271V5.36487Z" fill="black"/>
<path d="M18.2836 5.36487H17.5269V6.12162H18.2836V5.36487Z" fill="black"/>
<path d="M21.2026 5.36487H20.4458V6.12162H21.2026V5.36487Z" fill="black"/>
<path d="M24.0134 5.36487H23.3647V6.12162H24.0134V5.36487Z" fill="black"/>
<path d="M25.5273 5.36487H24.7705V6.12162H25.5273V5.36487Z" fill="black"/>
<path d="M26.2836 5.36487H25.5269V6.12162H26.2836V5.36487Z" fill="black"/>
<path d="M26.9323 5.36487H26.2837V6.12162H26.9323V5.36487Z" fill="black"/>
<path d="M28.4462 5.36487H27.6895V6.12162H28.4462V5.36487Z" fill="black"/>
<path d="M5.20285 6.12161H4.5542V6.87837H5.20285V6.12161Z" fill="black"/>
<path d="M9.63517 6.12161H8.87842V6.87837H9.63517V6.12161Z" fill="black"/>
<path d="M11.0404 6.12161H10.2837V6.87837H11.0404V6.12161Z" fill="black"/>
<path d="M11.7973 6.12161H11.0405V6.87837H11.7973V6.12161Z" fill="black"/>
<path d="M12.446 6.12161H11.7974V6.87837H12.446V6.12161Z" fill="black"/>
<path d="M13.2026 6.12161H12.4458V6.87837H13.2026V6.12161Z" fill="black"/>
<path d="M17.5271 6.12161H16.8784V6.87837H17.5271V6.12161Z" fill="black"/>
<path d="M18.2836 6.12161H17.5269V6.87837H18.2836V6.12161Z" fill="black"/>
<path d="M19.0404 6.12161H18.2837V6.87837H19.0404V6.12161Z" fill="black"/>
<path d="M20.4462 6.12161H19.6895V6.87837H20.4462V6.12161Z" fill="black"/>
<path d="M21.8513 6.12161H21.2026V6.87837H21.8513V6.12161Z" fill="black"/>
<path d="M22.6083 6.12161H21.8516V6.87837H22.6083V6.12161Z" fill="black"/>
<path d="M24.0134 6.12161H23.3647V6.87837H24.0134V6.12161Z" fill="black"/>
<path d="M28.4462 6.12161H27.6895V6.87837H28.4462V6.12161Z" fill="black"/>
<path d="M5.20285 6.87839H4.5542V7.63514H5.20285V6.87839Z" fill="black"/>
<path d="M5.95939 6.87839H5.20264V7.63514H5.95939V6.87839Z" fill="black"/>
<path d="M6.71623 6.87839H5.95947V7.63514H6.71623V6.87839Z" fill="black"/>
<path d="M7.36496 6.87839H6.71631V7.63514H7.36496V6.87839Z" fill="black"/>
<path d="M8.1215 6.87839H7.36475V7.63514H8.1215V6.87839Z" fill="black"/>
<path d="M8.87834 6.87839H8.12158V7.63514H8.87834V6.87839Z" fill="black"/>
<path d="M9.63517 6.87839H8.87842V7.63514H9.63517V6.87839Z" fill="black"/>
<path d="M11.0404 6.87839H10.2837V7.63514H11.0404V6.87839Z" fill="black"/>
<path d="M12.446 6.87839H11.7974V7.63514H12.446V6.87839Z" fill="black"/>
<path d="M13.9594 6.87839H13.2026V7.63514H13.9594V6.87839Z" fill="black"/>
<path d="M15.3652 6.87839H14.6084V7.63514H15.3652V6.87839Z" fill="black"/>
<path d="M16.8783 6.87839H16.1216V7.63514H16.8783V6.87839Z" fill="black"/>
<path d="M18.2836 6.87839H17.5269V7.63514H18.2836V6.87839Z" fill="black"/>
<path d="M19.6892 6.87839H19.0405V7.63514H19.6892V6.87839Z" fill="black"/>
<path d="M21.2026 6.87839H20.4458V7.63514H21.2026V6.87839Z" fill="black"/>
<path d="M22.6083 6.87839H21.8516V7.63514H22.6083V6.87839Z" fill="black"/>
<path d="M24.0134 6.87839H23.3647V7.63514H24.0134V6.87839Z" fill="black"/>
<path d="M24.7704 6.87839H24.0137V7.63514H24.7704V6.87839Z" fill="black"/>
<path d="M25.5273 6.87839H24.7705V7.63514H25.5273V6.87839Z" fill="black"/>
<path d="M26.2836 6.87839H25.5269V7.63514H26.2836V6.87839Z" fill="black"/>
<path d="M26.9323 6.87839H26.2837V7.63514H26.9323V6.87839Z" fill="black"/>
<path d="M27.6894 6.87839H26.9326V7.63514H27.6894V6.87839Z" fill="black"/>
<path d="M28.4462 6.87839H27.6895V7.63514H28.4462V6.87839Z" fill="black"/>
<path d="M11.0404 7.63513H10.2837V8.28378H11.0404V7.63513Z" fill="black"/>
<path d="M13.2026 7.63513H12.4458V8.28378H13.2026V7.63513Z" fill="black"/>
<path d="M13.9594 7.63513H13.2026V8.28378H13.9594V7.63513Z" fill="black"/>
<path d="M14.6081 7.63513H13.9595V8.28378H14.6081V7.63513Z" fill="black"/>
<path d="M15.3652 7.63513H14.6084V8.28378H15.3652V7.63513Z" fill="black"/>
<path d="M16.8783 7.63513H16.1216V8.28378H16.8783V7.63513Z" fill="black"/>
<path d="M18.2836 7.63513H17.5269V8.28378H18.2836V7.63513Z" fill="black"/>
<path d="M19.0404 7.63513H18.2837V8.28378H19.0404V7.63513Z" fill="black"/>
<path d="M21.2026 7.63513H20.4458V8.28378H21.2026V7.63513Z" fill="black"/>
<path d="M22.6083 7.63513H21.8516V8.28378H22.6083V7.63513Z" fill="black"/>
<path d="M8.1215 8.28378H7.36475V9.04054H8.1215V8.28378Z" fill="black"/>
<path d="M8.87834 8.28378H8.12158V9.04054H8.87834V8.28378Z" fill="black"/>
<path d="M9.63517 8.28378H8.87842V9.04054H9.63517V8.28378Z" fill="black"/>
<path d="M10.2839 8.28378H9.63525V9.04054H10.2839V8.28378Z" fill="black"/>
<path d="M16.8783 8.28378H16.1216V9.04054H16.8783V8.28378Z" fill="black"/>
<path d="M17.5271 8.28378H16.8784V9.04054H17.5271V8.28378Z" fill="black"/>
<path d="M19.0404 8.28378H18.2837V9.04054H19.0404V8.28378Z" fill="black"/>
<path d="M19.6892 8.28378H19.0405V9.04054H19.6892V8.28378Z" fill="black"/>
<path d="M20.4462 8.28378H19.6895V9.04054H20.4462V8.28378Z" fill="black"/>
<path d="M21.2026 8.28378H20.4458V9.04054H21.2026V8.28378Z" fill="black"/>
<path d="M21.8513 8.28378H21.2026V9.04054H21.8513V8.28378Z" fill="black"/>
<path d="M24.0134 8.28378H23.3647V9.04054H24.0134V8.28378Z" fill="black"/>
<path d="M24.7704 8.28378H24.0137V9.04054H24.7704V8.28378Z" fill="black"/>
<path d="M27.6894 8.28378H26.9326V9.04054H27.6894V8.28378Z" fill="black"/>
<path d="M5.20285 9.04056H4.5542V9.79731H5.20285V9.04056Z" fill="black"/>
<path d="M5.95939 9.04056H5.20264V9.79731H5.95939V9.04056Z" fill="black"/>
<path d="M6.71623 9.04056H5.95947V9.79731H6.71623V9.04056Z" fill="black"/>
<path d="M11.0404 9.04056H10.2837V9.79731H11.0404V9.04056Z" fill="black"/>
<path d="M11.7973 9.04056H11.0405V9.79731H11.7973V9.04056Z" fill="black"/>
<path d="M13.9594 9.04056H13.2026V9.79731H13.9594V9.04056Z" fill="black"/>
<path d="M14.6081 9.04056H13.9595V9.79731H14.6081V9.04056Z" fill="black"/>
<path d="M16.1215 9.04056H15.3647V9.79731H16.1215V9.04056Z" fill="black"/>
<path d="M16.8783 9.04056H16.1216V9.79731H16.8783V9.04056Z" fill="black"/>
<path d="M19.6892 9.04056H19.0405V9.79731H19.6892V9.04056Z" fill="black"/>
<path d="M21.8513 9.04056H21.2026V9.79731H21.8513V9.04056Z" fill="black"/>
<path d="M22.6083 9.04056H21.8516V9.79731H22.6083V9.04056Z" fill="black"/>
<path d="M23.3652 9.04056H22.6084V9.79731H23.3652V9.04056Z" fill="black"/>
<path d="M24.0134 9.04056H23.3647V9.79731H24.0134V9.04056Z" fill="black"/>
<path d="M24.7704 9.04056H24.0137V9.79731H24.7704V9.04056Z" fill="black"/>
<path d="M26.2836 9.04056H25.5269V9.79731H26.2836V9.04056Z" fill="black"/>
<path d="M26.9323 9.04056H26.2837V9.79731H26.9323V9.04056Z" fill="black"/>
<path d="M5.20285 9.7973H4.5542V10.446H5.20285V9.7973Z" fill="black"/>
<path d="M5.95939 9.7973H5.20264V10.446H5.95939V9.7973Z" fill="black"/>
<path d="M8.1215 9.7973H7.36475V10.446H8.1215V9.7973Z" fill="black"/>
<path d="M8.87834 9.7973H8.12158V10.446H8.87834V9.7973Z" fill="black"/>
<path d="M9.63517 9.7973H8.87842V10.446H9.63517V9.7973Z" fill="black"/>
<path d="M10.2839 9.7973H9.63525V10.446H10.2839V9.7973Z" fill="black"/>
<path d="M14.6081 9.7973H13.9595V10.446H14.6081V9.7973Z" fill="black"/>
<path d="M16.1215 9.7973H15.3647V10.446H16.1215V9.7973Z" fill="black"/>
<path d="M17.5271 9.7973H16.8784V10.446H17.5271V9.7973Z" fill="black"/>
<path d="M18.2836 9.7973H17.5269V10.446H18.2836V9.7973Z" fill="black"/>
<path d="M19.0404 9.7973H18.2837V10.446H19.0404V9.7973Z" fill="black"/>
<path d="M19.6892 9.7973H19.0405V10.446H19.6892V9.7973Z" fill="black"/>
<path d="M20.4462 9.7973H19.6895V10.446H20.4462V9.7973Z" fill="black"/>
<path d="M21.2026 9.7973H20.4458V10.446H21.2026V9.7973Z" fill="black"/>
<path d="M21.8513 9.7973H21.2026V10.446H21.8513V9.7973Z" fill="black"/>
<path d="M22.6083 9.7973H21.8516V10.446H22.6083V9.7973Z" fill="black"/>
<path d="M23.3652 9.7973H22.6084V10.446H23.3652V9.7973Z" fill="black"/>
<path d="M26.9323 9.7973H26.2837V10.446H26.9323V9.7973Z" fill="black"/>
<path d="M27.6894 9.7973H26.9326V10.446H27.6894V9.7973Z" fill="black"/>
<path d="M28.4462 9.7973H27.6895V10.446H28.4462V9.7973Z" fill="black"/>
<path d="M5.20285 10.446H4.5542V11.2027H5.20285V10.446Z" fill="black"/>
<path d="M6.71623 10.446H5.95947V11.2027H6.71623V10.446Z" fill="black"/>
<path d="M7.36496 10.446H6.71631V11.2027H7.36496V10.446Z" fill="black"/>
<path d="M8.87834 10.446H8.12158V11.2027H8.87834V10.446Z" fill="black"/>
<path d="M10.2839 10.446H9.63525V11.2027H10.2839V10.446Z" fill="black"/>
<path d="M11.0404 10.446H10.2837V11.2027H11.0404V10.446Z" fill="black"/>
<path d="M12.446 10.446H11.7974V11.2027H12.446V10.446Z" fill="black"/>
<path d="M13.2026 10.446H12.4458V11.2027H13.2026V10.446Z" fill="black"/>
<path d="M19.6892 10.446H19.0405V11.2027H19.6892V10.446Z" fill="black"/>
<path d="M20.4462 10.446H19.6895V11.2027H20.4462V10.446Z" fill="black"/>
<path d="M22.6083 10.446H21.8516V11.2027H22.6083V10.446Z" fill="black"/>
<path d="M23.3652 10.446H22.6084V11.2027H23.3652V10.446Z" fill="black"/>
<path d="M24.0134 10.446H23.3647V11.2027H24.0134V10.446Z" fill="black"/>
<path d="M25.5273 10.446H24.7705V11.2027H25.5273V10.446Z" fill="black"/>
<path d="M26.2836 10.446H25.5269V11.2027H26.2836V10.446Z" fill="black"/>
<path d="M28.4462 10.446H27.6895V11.2027H28.4462V10.446Z" fill="black"/>
<path d="M5.20285 11.2027H4.5542V11.9595H5.20285V11.2027Z" fill="black"/>
<path d="M6.71623 11.2027H5.95947V11.9595H6.71623V11.2027Z" fill="black"/>
<path d="M8.1215 11.2027H7.36475V11.9595H8.1215V11.2027Z" fill="black"/>
<path d="M8.87834 11.2027H8.12158V11.9595H8.87834V11.2027Z" fill="black"/>
<path d="M9.63517 11.2027H8.87842V11.9595H9.63517V11.2027Z" fill="black"/>
<path d="M12.446 11.2027H11.7974V11.9595H12.446V11.2027Z" fill="black"/>
<path d="M13.2026 11.2027H12.4458V11.9595H13.2026V11.2027Z" fill="black"/>
<path d="M14.6081 11.2027H13.9595V11.9595H14.6081V11.2027Z" fill="black"/>
<path d="M16.8783 11.2027H16.1216V11.9595H16.8783V11.2027Z" fill="black"/>
<path d="M18.2836 11.2027H17.5269V11.9595H18.2836V11.2027Z" fill="black"/>
<path d="M19.6892 11.2027H19.0405V11.9595H19.6892V11.2027Z" fill="black"/>
<path d="M24.0134 11.2027H23.3647V11.9595H24.0134V11.2027Z" fill="black"/>
<path d="M26.9323 11.2027H26.2837V11.9595H26.9323V11.2027Z" fill="black"/>
<path d="M27.6894 11.2027H26.9326V11.9595H27.6894V11.2027Z" fill="black"/>
<path d="M28.4462 11.2027H27.6895V11.9595H28.4462V11.2027Z" fill="black"/>
<path d="M5.20285 11.9595H4.5542V12.6081H5.20285V11.9595Z" fill="black"/>
<path d="M7.36496 11.9595H6.71631V12.6081H7.36496V11.9595Z" fill="black"/>
<path d="M11.7973 11.9595H11.0405V12.6081H11.7973V11.9595Z" fill="black"/>
<path d="M12.446 11.9595H11.7974V12.6081H12.446V11.9595Z" fill="black"/>
<path d="M14.6081 11.9595H13.9595V12.6081H14.6081V11.9595Z" fill="black"/>
<path d="M15.3652 11.9595H14.6084V12.6081H15.3652V11.9595Z" fill="black"/>
<path d="M16.1215 11.9595H15.3647V12.6081H16.1215V11.9595Z" fill="black"/>
<path d="M17.5271 11.9595H16.8784V12.6081H17.5271V11.9595Z" fill="black"/>
<path d="M18.2836 11.9595H17.5269V12.6081H18.2836V11.9595Z" fill="black"/>
<path d="M19.6892 11.9595H19.0405V12.6081H19.6892V11.9595Z" fill="black"/>
<path d="M21.2026 11.9595H20.4458V12.6081H21.2026V11.9595Z" fill="black"/>
<path d="M21.8513 11.9595H21.2026V12.6081H21.8513V11.9595Z" fill="black"/>
<path d="M22.6083 11.9595H21.8516V12.6081H22.6083V11.9595Z" fill="black"/>
<path d="M26.2836 11.9595H25.5269V12.6081H26.2836V11.9595Z" fill="black"/>
<path d="M26.9323 11.9595H26.2837V12.6081H26.9323V11.9595Z" fill="black"/>
<path d="M27.6894 11.9595H26.9326V12.6081H27.6894V11.9595Z" fill="black"/>
<path d="M28.4462 11.9595H27.6895V12.6081H28.4462V11.9595Z" fill="black"/>
<path d="M5.95939 12.6081H5.20264V13.3649H5.95939V12.6081Z" fill="black"/>
<path d="M7.36496 12.6081H6.71631V13.3649H7.36496V12.6081Z" fill="black"/>
<path d="M8.1215 12.6081H7.36475V13.3649H8.1215V12.6081Z" fill="black"/>
<path d="M9.63517 12.6081H8.87842V13.3649H9.63517V12.6081Z" fill="black"/>
<path d="M10.2839 12.6081H9.63525V13.3649H10.2839V12.6081Z" fill="black"/>
<path d="M12.446 12.6081H11.7974V13.3649H12.446V12.6081Z" fill="black"/>
<path d="M13.2026 12.6081H12.4458V13.3649H13.2026V12.6081Z" fill="black"/>
<path d="M13.9594 12.6081H13.2026V13.3649H13.9594V12.6081Z" fill="black"/>
<path d="M16.1215 12.6081H15.3647V13.3649H16.1215V12.6081Z" fill="black"/>
<path d="M18.2836 12.6081H17.5269V13.3649H18.2836V12.6081Z" fill="black"/>
<path d="M19.0404 12.6081H18.2837V13.3649H19.0404V12.6081Z" fill="black"/>
<path d="M19.6892 12.6081H19.0405V13.3649H19.6892V12.6081Z" fill="black"/>
<path d="M21.2026 12.6081H20.4458V13.3649H21.2026V12.6081Z" fill="black"/>
<path d="M21.8513 12.6081H21.2026V13.3649H21.8513V12.6081Z" fill="black"/>
<path d="M22.6083 12.6081H21.8516V13.3649H22.6083V12.6081Z" fill="black"/>
<path d="M23.3652 12.6081H22.6084V13.3649H23.3652V12.6081Z" fill="black"/>
<path d="M24.7704 12.6081H24.0137V13.3649H24.7704V12.6081Z" fill="black"/>
<path d="M25.5273 12.6081H24.7705V13.3649H25.5273V12.6081Z" fill="black"/>
<path d="M26.2836 12.6081H25.5269V13.3649H26.2836V12.6081Z" fill="black"/>
<path d="M26.9323 12.6081H26.2837V13.3649H26.9323V12.6081Z" fill="black"/>
<path d="M27.6894 12.6081H26.9326V13.3649H27.6894V12.6081Z" fill="black"/>
<path d="M5.95939 13.3649H5.20264V14.1216H5.95939V13.3649Z" fill="black"/>
<path d="M6.71623 13.3649H5.95947V14.1216H6.71623V13.3649Z" fill="black"/>
<path d="M13.2026 13.3649H12.4458V14.1216H13.2026V13.3649Z" fill="black"/>
<path d="M13.9594 13.3649H13.2026V14.1216H13.9594V13.3649Z" fill="black"/>
<path d="M14.6081 13.3649H13.9595V14.1216H14.6081V13.3649Z" fill="black"/>
<path d="M15.3652 13.3649H14.6084V14.1216H15.3652V13.3649Z" fill="black"/>
<path d="M17.5271 13.3649H16.8784V14.1216H17.5271V13.3649Z" fill="black"/>
<path d="M18.2836 13.3649H17.5269V14.1216H18.2836V13.3649Z" fill="black"/>
<path d="M19.6892 13.3649H19.0405V14.1216H19.6892V13.3649Z" fill="black"/>
<path d="M22.6083 13.3649H21.8516V14.1216H22.6083V13.3649Z" fill="black"/>
<path d="M24.0134 13.3649H23.3647V14.1216H24.0134V13.3649Z" fill="black"/>
<path d="M24.7704 13.3649H24.0137V14.1216H24.7704V13.3649Z" fill="black"/>
<path d="M25.5273 13.3649H24.7705V14.1216H25.5273V13.3649Z" fill="black"/>
<path d="M26.9323 13.3649H26.2837V14.1216H26.9323V13.3649Z" fill="black"/>
<path d="M28.4462 13.3649H27.6895V14.1216H28.4462V13.3649Z" fill="black"/>
<path d="M7.36496 14.1216H6.71631V14.8784H7.36496V14.1216Z" fill="black"/>
<path d="M9.63517 14.1216H8.87842V14.8784H9.63517V14.1216Z" fill="black"/>
<path d="M10.2839 14.1216H9.63525V14.8784H10.2839V14.1216Z" fill="black"/>
<path d="M11.7973 14.1216H11.0405V14.8784H11.7973V14.1216Z" fill="black"/>
<path d="M13.2026 14.1216H12.4458V14.8784H13.2026V14.1216Z" fill="black"/>
<path d="M14.6081 14.1216H13.9595V14.8784H14.6081V14.1216Z" fill="black"/>
<path d="M15.3652 14.1216H14.6084V14.8784H15.3652V14.1216Z" fill="black"/>
<path d="M16.1215 14.1216H15.3647V14.8784H16.1215V14.1216Z" fill="black"/>
<path d="M20.4462 14.1216H19.6895V14.8784H20.4462V14.1216Z" fill="black"/>
<path d="M22.6083 14.1216H21.8516V14.8784H22.6083V14.1216Z" fill="black"/>
<path d="M24.7704 14.1216H24.0137V14.8784H24.7704V14.1216Z" fill="black"/>
<path d="M26.2836 14.1216H25.5269V14.8784H26.2836V14.1216Z" fill="black"/>
<path d="M26.9323 14.1216H26.2837V14.8784H26.9323V14.1216Z" fill="black"/>
<path d="M27.6894 14.1216H26.9326V14.8784H27.6894V14.1216Z" fill="black"/>
<path d="M5.20285 14.8784H4.5542V15.527H5.20285V14.8784Z" fill="black"/>
<path d="M6.71623 14.8784H5.95947V15.527H6.71623V14.8784Z" fill="black"/>
<path d="M7.36496 14.8784H6.71631V15.527H7.36496V14.8784Z" fill="black"/>
<path d="M8.1215 14.8784H7.36475V15.527H8.1215V14.8784Z" fill="black"/>
<path d="M12.446 14.8784H11.7974V15.527H12.446V14.8784Z" fill="black"/>
<path d="M14.6081 14.8784H13.9595V15.527H14.6081V14.8784Z" fill="black"/>
<path d="M16.1215 14.8784H15.3647V15.527H16.1215V14.8784Z" fill="black"/>
<path d="M17.5271 14.8784H16.8784V15.527H17.5271V14.8784Z" fill="black"/>
<path d="M19.6892 14.8784H19.0405V15.527H19.6892V14.8784Z" fill="black"/>
<path d="M22.6083 14.8784H21.8516V15.527H22.6083V14.8784Z" fill="black"/>
<path d="M25.5273 14.8784H24.7705V15.527H25.5273V14.8784Z" fill="black"/>
<path d="M26.9323 14.8784H26.2837V15.527H26.9323V14.8784Z" fill="black"/>
<path d="M5.20285 15.527H4.5542V16.2838H5.20285V15.527Z" fill="black"/>
<path d="M5.95939 15.527H5.20264V16.2838H5.95939V15.527Z" fill="black"/>
<path d="M6.71623 15.527H5.95947V16.2838H6.71623V15.527Z" fill="black"/>
<path d="M9.63517 15.527H8.87842V16.2838H9.63517V15.527Z" fill="black"/>
<path d="M10.2839 15.527H9.63525V16.2838H10.2839V15.527Z" fill="black"/>
<path d="M11.0404 15.527H10.2837V16.2838H11.0404V15.527Z" fill="black"/>
<path d="M12.446 15.527H11.7974V16.2838H12.446V15.527Z" fill="black"/>
<path d="M15.3652 15.527H14.6084V16.2838H15.3652V15.527Z" fill="black"/>
<path d="M16.1215 15.527H15.3647V16.2838H16.1215V15.527Z" fill="black"/>
<path d="M16.8783 15.527H16.1216V16.2838H16.8783V15.527Z" fill="black"/>
<path d="M18.2836 15.527H17.5269V16.2838H18.2836V15.527Z" fill="black"/>
<path d="M19.0404 15.527H18.2837V16.2838H19.0404V15.527Z" fill="black"/>
<path d="M19.6892 15.527H19.0405V16.2838H19.6892V15.527Z" fill="black"/>
<path d="M21.8513 15.527H21.2026V16.2838H21.8513V15.527Z" fill="black"/>
<path d="M22.6083 15.527H21.8516V16.2838H22.6083V15.527Z" fill="black"/>
<path d="M23.3652 15.527H22.6084V16.2838H23.3652V15.527Z" fill="black"/>
<path d="M24.0134 15.527H23.3647V16.2838H24.0134V15.527Z" fill="black"/>
<path d="M24.7704 15.527H24.0137V16.2838H24.7704V15.527Z" fill="black"/>
<path d="M27.6894 15.527H26.9326V16.2838H27.6894V15.527Z" fill="black"/>
<path d="M28.4462 15.527H27.6895V16.2838H28.4462V15.527Z" fill="black"/>
<path d="M5.20285 16.2838H4.5542V17.0405H5.20285V16.2838Z" fill="black"/>
<path d="M5.95939 16.2838H5.20264V17.0405H5.95939V16.2838Z" fill="black"/>
<path d="M8.1215 16.2838H7.36475V17.0405H8.1215V16.2838Z" fill="black"/>
<path d="M13.2026 16.2838H12.4458V17.0405H13.2026V16.2838Z" fill="black"/>
<path d="M13.9594 16.2838H13.2026V17.0405H13.9594V16.2838Z" fill="black"/>
<path d="M14.6081 16.2838H13.9595V17.0405H14.6081V16.2838Z" fill="black"/>
<path d="M15.3652 16.2838H14.6084V17.0405H15.3652V16.2838Z" fill="black"/>
<path d="M16.1215 16.2838H15.3647V17.0405H16.1215V16.2838Z" fill="black"/>
<path d="M16.8783 16.2838H16.1216V17.0405H16.8783V16.2838Z" fill="black"/>
<path d="M17.5271 16.2838H16.8784V17.0405H17.5271V16.2838Z" fill="black"/>
<path d="M19.6892 16.2838H19.0405V17.0405H19.6892V16.2838Z" fill="black"/>
<path d="M21.2026 16.2838H20.4458V17.0405H21.2026V16.2838Z" fill="black"/>
<path d="M22.6083 16.2838H21.8516V17.0405H22.6083V16.2838Z" fill="black"/>
<path d="M24.0134 16.2838H23.3647V17.0405H24.0134V16.2838Z" fill="black"/>
<path d="M25.5273 16.2838H24.7705V17.0405H25.5273V16.2838Z" fill="black"/>
<path d="M26.2836 16.2838H25.5269V17.0405H26.2836V16.2838Z" fill="black"/>
<path d="M26.9323 16.2838H26.2837V17.0405H26.9323V16.2838Z" fill="black"/>
<path d="M28.4462 16.2838H27.6895V17.0405H28.4462V16.2838Z" fill="black"/>
<path d="M6.71623 17.0406H5.95947V17.6892H6.71623V17.0406Z" fill="black"/>
<path d="M7.36496 17.0406H6.71631V17.6892H7.36496V17.0406Z" fill="black"/>
<path d="M8.87834 17.0406H8.12158V17.6892H8.87834V17.0406Z" fill="black"/>
<path d="M9.63517 17.0406H8.87842V17.6892H9.63517V17.0406Z" fill="black"/>
<path d="M10.2839 17.0406H9.63525V17.6892H10.2839V17.0406Z" fill="black"/>
<path d="M11.0404 17.0406H10.2837V17.6892H11.0404V17.0406Z" fill="black"/>
<path d="M11.7973 17.0406H11.0405V17.6892H11.7973V17.0406Z" fill="black"/>
<path d="M12.446 17.0406H11.7974V17.6892H12.446V17.0406Z" fill="black"/>
<path d="M13.2026 17.0406H12.4458V17.6892H13.2026V17.0406Z" fill="black"/>
<path d="M13.9594 17.0406H13.2026V17.6892H13.9594V17.0406Z" fill="black"/>
<path d="M16.1215 17.0406H15.3647V17.6892H16.1215V17.0406Z" fill="black"/>
<path d="M16.8783 17.0406H16.1216V17.6892H16.8783V17.0406Z" fill="black"/>
<path d="M19.0404 17.0406H18.2837V17.6892H19.0404V17.0406Z" fill="black"/>
<path d="M21.2026 17.0406H20.4458V17.6892H21.2026V17.0406Z" fill="black"/>
<path d="M24.7704 17.0406H24.0137V17.6892H24.7704V17.0406Z" fill="black"/>
<path d="M25.5273 17.0406H24.7705V17.6892H25.5273V17.0406Z" fill="black"/>
<path d="M26.2836 17.0406H25.5269V17.6892H26.2836V17.0406Z" fill="black"/>
<path d="M28.4462 17.0406H27.6895V17.6892H28.4462V17.0406Z" fill="black"/>
<path d="M5.20285 17.6892H4.5542V18.446H5.20285V17.6892Z" fill="black"/>
<path d="M5.95939 17.6892H5.20264V18.446H5.95939V17.6892Z" fill="black"/>
<path d="M6.71623 17.6892H5.95947V18.446H6.71623V17.6892Z" fill="black"/>
<path d="M7.36496 17.6892H6.71631V18.446H7.36496V17.6892Z" fill="black"/>
<path d="M8.1215 17.6892H7.36475V18.446H8.1215V17.6892Z" fill="black"/>
<path d="M11.7973 17.6892H11.0405V18.446H11.7973V17.6892Z" fill="black"/>
<path d="M13.2026 17.6892H12.4458V18.446H13.2026V17.6892Z" fill="black"/>
<path d="M13.9594 17.6892H13.2026V18.446H13.9594V17.6892Z" fill="black"/>
<path d="M14.6081 17.6892H13.9595V18.446H14.6081V17.6892Z" fill="black"/>
<path d="M15.3652 17.6892H14.6084V18.446H15.3652V17.6892Z" fill="black"/>
<path d="M16.1215 17.6892H15.3647V18.446H16.1215V17.6892Z" fill="black"/>
<path d="M16.8783 17.6892H16.1216V18.446H16.8783V17.6892Z" fill="black"/>
<path d="M18.2836 17.6892H17.5269V18.446H18.2836V17.6892Z" fill="black"/>
<path d="M19.6892 17.6892H19.0405V18.446H19.6892V17.6892Z" fill="black"/>
<path d="M21.2026 17.6892H20.4458V18.446H21.2026V17.6892Z" fill="black"/>
<path d="M22.6083 17.6892H21.8516V18.446H22.6083V17.6892Z" fill="black"/>
<path d="M23.3652 17.6892H22.6084V18.446H23.3652V17.6892Z" fill="black"/>
<path d="M24.0134 17.6892H23.3647V18.446H24.0134V17.6892Z" fill="black"/>
<path d="M24.7704 17.6892H24.0137V18.446H24.7704V17.6892Z" fill="black"/>
<path d="M26.2836 17.6892H25.5269V18.446H26.2836V17.6892Z" fill="black"/>
<path d="M26.9323 17.6892H26.2837V18.446H26.9323V17.6892Z" fill="black"/>
<path d="M6.71623 18.446H5.95947V19.2027H6.71623V18.446Z" fill="black"/>
<path d="M7.36496 18.446H6.71631V19.2027H7.36496V18.446Z" fill="black"/>
<path d="M8.1215 18.446H7.36475V19.2027H8.1215V18.446Z" fill="black"/>
<path d="M9.63517 18.446H8.87842V19.2027H9.63517V18.446Z" fill="black"/>
<path d="M11.0404 18.446H10.2837V19.2027H11.0404V18.446Z" fill="black"/>
<path d="M11.7973 18.446H11.0405V19.2027H11.7973V18.446Z" fill="black"/>
<path d="M12.446 18.446H11.7974V19.2027H12.446V18.446Z" fill="black"/>
<path d="M13.9594 18.446H13.2026V19.2027H13.9594V18.446Z" fill="black"/>
<path d="M14.6081 18.446H13.9595V19.2027H14.6081V18.446Z" fill="black"/>
<path d="M15.3652 18.446H14.6084V19.2027H15.3652V18.446Z" fill="black"/>
<path d="M16.8783 18.446H16.1216V19.2027H16.8783V18.446Z" fill="black"/>
<path d="M17.5271 18.446H16.8784V19.2027H17.5271V18.446Z" fill="black"/>
<path d="M21.8513 18.446H21.2026V19.2027H21.8513V18.446Z" fill="black"/>
<path d="M22.6083 18.446H21.8516V19.2027H22.6083V18.446Z" fill="black"/>
<path d="M23.3652 18.446H22.6084V19.2027H23.3652V18.446Z" fill="black"/>
<path d="M26.9323 18.446H26.2837V19.2027H26.9323V18.446Z" fill="black"/>
<path d="M27.6894 18.446H26.9326V19.2027H27.6894V18.446Z" fill="black"/>
<path d="M28.4462 18.446H27.6895V19.2027H28.4462V18.446Z" fill="black"/>
<path d="M6.71623 19.2027H5.95947V19.8513H6.71623V19.2027Z" fill="black"/>
<path d="M7.36496 19.2027H6.71631V19.8513H7.36496V19.2027Z" fill="black"/>
<path d="M11.7973 19.2027H11.0405V19.8513H11.7973V19.2027Z" fill="black"/>
<path d="M13.2026 19.2027H12.4458V19.8513H13.2026V19.2027Z" fill="black"/>
<path d="M15.3652 19.2027H14.6084V19.8513H15.3652V19.2027Z" fill="black"/>
<path d="M16.1215 19.2027H15.3647V19.8513H16.1215V19.2027Z" fill="black"/>
<path d="M16.8783 19.2027H16.1216V19.8513H16.8783V19.2027Z" fill="black"/>
<path d="M17.5271 19.2027H16.8784V19.8513H17.5271V19.2027Z" fill="black"/>
<path d="M18.2836 19.2027H17.5269V19.8513H18.2836V19.2027Z" fill="black"/>
<path d="M20.4462 19.2027H19.6895V19.8513H20.4462V19.2027Z" fill="black"/>
<path d="M21.2026 19.2027H20.4458V19.8513H21.2026V19.2027Z" fill="black"/>
<path d="M21.8513 19.2027H21.2026V19.8513H21.8513V19.2027Z" fill="black"/>
<path d="M23.3652 19.2027H22.6084V19.8513H23.3652V19.2027Z" fill="black"/>
<path d="M24.0134 19.2027H23.3647V19.8513H24.0134V19.2027Z" fill="black"/>
<path d="M25.5273 19.2027H24.7705V19.8513H25.5273V19.2027Z" fill="black"/>
<path d="M28.4462 19.2027H27.6895V19.8513H28.4462V19.2027Z" fill="black"/>
<path d="M5.20285 19.8513H4.5542V20.6081H5.20285V19.8513Z" fill="black"/>
<path d="M5.95939 19.8513H5.20264V20.6081H5.95939V19.8513Z" fill="black"/>
<path d="M6.71623 19.8513H5.95947V20.6081H6.71623V19.8513Z" fill="black"/>
<path d="M7.36496 19.8513H6.71631V20.6081H7.36496V19.8513Z" fill="black"/>
<path d="M8.1215 19.8513H7.36475V20.6081H8.1215V19.8513Z" fill="black"/>
<path d="M8.87834 19.8513H8.12158V20.6081H8.87834V19.8513Z" fill="black"/>
<path d="M9.63517 19.8513H8.87842V20.6081H9.63517V19.8513Z" fill="black"/>
<path d="M10.2839 19.8513H9.63525V20.6081H10.2839V19.8513Z" fill="black"/>
<path d="M11.0404 19.8513H10.2837V20.6081H11.0404V19.8513Z" fill="black"/>
<path d="M13.9594 19.8513H13.2026V20.6081H13.9594V19.8513Z" fill="black"/>
<path d="M15.3652 19.8513H14.6084V20.6081H15.3652V19.8513Z" fill="black"/>
<path d="M16.8783 19.8513H16.1216V20.6081H16.8783V19.8513Z" fill="black"/>
<path d="M17.5271 19.8513H16.8784V20.6081H17.5271V19.8513Z" fill="black"/>
<path d="M19.6892 19.8513H19.0405V20.6081H19.6892V19.8513Z" fill="black"/>
<path d="M20.4462 19.8513H19.6895V20.6081H20.4462V19.8513Z" fill="black"/>
<path d="M22.6083 19.8513H21.8516V20.6081H22.6083V19.8513Z" fill="black"/>
<path d="M23.3652 19.8513H22.6084V20.6081H23.3652V19.8513Z" fill="black"/>
<path d="M24.0134 19.8513H23.3647V20.6081H24.0134V19.8513Z" fill="black"/>
<path d="M24.7704 19.8513H24.0137V20.6081H24.7704V19.8513Z" fill="black"/>
<path d="M25.5273 19.8513H24.7705V20.6081H25.5273V19.8513Z" fill="black"/>
<path d="M26.2836 19.8513H25.5269V20.6081H26.2836V19.8513Z" fill="black"/>
<path d="M28.4462 19.8513H27.6895V20.6081H28.4462V19.8513Z" fill="black"/>
<path d="M11.0404 20.6081H10.2837V21.3649H11.0404V20.6081Z" fill="black"/>
<path d="M12.446 20.6081H11.7974V21.3649H12.446V20.6081Z" fill="black"/>
<path d="M13.9594 20.6081H13.2026V21.3649H13.9594V20.6081Z" fill="black"/>
<path d="M16.8783 20.6081H16.1216V21.3649H16.8783V20.6081Z" fill="black"/>
<path d="M19.0404 20.6081H18.2837V21.3649H19.0404V20.6081Z" fill="black"/>
<path d="M20.4462 20.6081H19.6895V21.3649H20.4462V20.6081Z" fill="black"/>
<path d="M21.2026 20.6081H20.4458V21.3649H21.2026V20.6081Z" fill="black"/>
<path d="M22.6083 20.6081H21.8516V21.3649H22.6083V20.6081Z" fill="black"/>
<path d="M25.5273 20.6081H24.7705V21.3649H25.5273V20.6081Z" fill="black"/>
<path d="M26.2836 20.6081H25.5269V21.3649H26.2836V20.6081Z" fill="black"/>
<path d="M26.9323 20.6081H26.2837V21.3649H26.9323V20.6081Z" fill="black"/>
<path d="M5.20285 21.3649H4.5542V22.0135H5.20285V21.3649Z" fill="black"/>
<path d="M5.95939 21.3649H5.20264V22.0135H5.95939V21.3649Z" fill="black"/>
<path d="M6.71623 21.3649H5.95947V22.0135H6.71623V21.3649Z" fill="black"/>
<path d="M7.36496 21.3649H6.71631V22.0135H7.36496V21.3649Z" fill="black"/>
<path d="M8.1215 21.3649H7.36475V22.0135H8.1215V21.3649Z" fill="black"/>
<path d="M8.87834 21.3649H8.12158V22.0135H8.87834V21.3649Z" fill="black"/>
<path d="M9.63517 21.3649H8.87842V22.0135H9.63517V21.3649Z" fill="black"/>
<path d="M11.0404 21.3649H10.2837V22.0135H11.0404V21.3649Z" fill="black"/>
<path d="M11.7973 21.3649H11.0405V22.0135H11.7973V21.3649Z" fill="black"/>
<path d="M12.446 21.3649H11.7974V22.0135H12.446V21.3649Z" fill="black"/>
<path d="M14.6081 21.3649H13.9595V22.0135H14.6081V21.3649Z" fill="black"/>
<path d="M15.3652 21.3649H14.6084V22.0135H15.3652V21.3649Z" fill="black"/>
<path d="M17.5271 21.3649H16.8784V22.0135H17.5271V21.3649Z" fill="black"/>
<path d="M19.0404 21.3649H18.2837V22.0135H19.0404V21.3649Z" fill="black"/>
<path d="M22.6083 21.3649H21.8516V22.0135H22.6083V21.3649Z" fill="black"/>
<path d="M24.0134 21.3649H23.3647V22.0135H24.0134V21.3649Z" fill="black"/>
<path d="M25.5273 21.3649H24.7705V22.0135H25.5273V21.3649Z" fill="black"/>
<path d="M26.9323 21.3649H26.2837V22.0135H26.9323V21.3649Z" fill="black"/>
<path d="M27.6894 21.3649H26.9326V22.0135H27.6894V21.3649Z" fill="black"/>
<path d="M28.4462 21.3649H27.6895V22.0135H28.4462V21.3649Z" fill="black"/>
<path d="M5.20285 22.0135H4.5542V22.7703H5.20285V22.0135Z" fill="black"/>
<path d="M9.63517 22.0135H8.87842V22.7703H9.63517V22.0135Z" fill="black"/>
<path d="M11.0404 22.0135H10.2837V22.7703H11.0404V22.0135Z" fill="black"/>
<path d="M12.446 22.0135H11.7974V22.7703H12.446V22.0135Z" fill="black"/>
<path d="M14.6081 22.0135H13.9595V22.7703H14.6081V22.0135Z" fill="black"/>
<path d="M15.3652 22.0135H14.6084V22.7703H15.3652V22.0135Z" fill="black"/>
<path d="M16.1215 22.0135H15.3647V22.7703H16.1215V22.0135Z" fill="black"/>
<path d="M16.8783 22.0135H16.1216V22.7703H16.8783V22.0135Z" fill="black"/>
<path d="M19.0404 22.0135H18.2837V22.7703H19.0404V22.0135Z" fill="black"/>
<path d="M21.2026 22.0135H20.4458V22.7703H21.2026V22.0135Z" fill="black"/>
<path d="M22.6083 22.0135H21.8516V22.7703H22.6083V22.0135Z" fill="black"/>
<path d="M25.5273 22.0135H24.7705V22.7703H25.5273V22.0135Z" fill="black"/>
<path d="M28.4462 22.0135H27.6895V22.7703H28.4462V22.0135Z" fill="black"/>
<path d="M5.20285 22.7703H4.5542V23.527H5.20285V22.7703Z" fill="black"/>
<path d="M6.71623 22.7703H5.95947V23.527H6.71623V22.7703Z" fill="black"/>
<path d="M7.36496 22.7703H6.71631V23.527H7.36496V22.7703Z" fill="black"/>
<path d="M8.1215 22.7703H7.36475V23.527H8.1215V22.7703Z" fill="black"/>
<path d="M9.63517 22.7703H8.87842V23.527H9.63517V22.7703Z" fill="black"/>
<path d="M11.0404 22.7703H10.2837V23.527H11.0404V22.7703Z" fill="black"/>
<path d="M13.2026 22.7703H12.4458V23.527H13.2026V22.7703Z" fill="black"/>
<path d="M13.9594 22.7703H13.2026V23.527H13.9594V22.7703Z" fill="black"/>
<path d="M14.6081 22.7703H13.9595V23.527H14.6081V22.7703Z" fill="black"/>
<path d="M19.6892 22.7703H19.0405V23.527H19.6892V22.7703Z" fill="black"/>
<path d="M21.2026 22.7703H20.4458V23.527H21.2026V22.7703Z" fill="black"/>
<path d="M21.8513 22.7703H21.2026V23.527H21.8513V22.7703Z" fill="black"/>
<path d="M22.6083 22.7703H21.8516V23.527H22.6083V22.7703Z" fill="black"/>
<path d="M23.3652 22.7703H22.6084V23.527H23.3652V22.7703Z" fill="black"/>
<path d="M24.0134 22.7703H23.3647V23.527H24.0134V22.7703Z" fill="black"/>
<path d="M24.7704 22.7703H24.0137V23.527H24.7704V22.7703Z" fill="black"/>
<path d="M25.5273 22.7703H24.7705V23.527H25.5273V22.7703Z" fill="black"/>
<path d="M26.9323 22.7703H26.2837V23.527H26.9323V22.7703Z" fill="black"/>
<path d="M27.6894 22.7703H26.9326V23.527H27.6894V22.7703Z" fill="black"/>
<path d="M28.4462 22.7703H27.6895V23.527H28.4462V22.7703Z" fill="black"/>
<path d="M5.20285 23.527H4.5542V24.2838H5.20285V23.527Z" fill="black"/>
<path d="M6.71623 23.527H5.95947V24.2838H6.71623V23.527Z" fill="black"/>
<path d="M7.36496 23.527H6.71631V24.2838H7.36496V23.527Z" fill="black"/>
<path d="M8.1215 23.527H7.36475V24.2838H8.1215V23.527Z" fill="black"/>
<path d="M9.63517 23.527H8.87842V24.2838H9.63517V23.527Z" fill="black"/>
<path d="M11.7973 23.527H11.0405V24.2838H11.7973V23.527Z" fill="black"/>
<path d="M14.6081 23.527H13.9595V24.2838H14.6081V23.527Z" fill="black"/>
<path d="M15.3652 23.527H14.6084V24.2838H15.3652V23.527Z" fill="black"/>
<path d="M17.5271 23.527H16.8784V24.2838H17.5271V23.527Z" fill="black"/>
<path d="M18.2836 23.527H17.5269V24.2838H18.2836V23.527Z" fill="black"/>
<path d="M19.0404 23.527H18.2837V24.2838H19.0404V23.527Z" fill="black"/>
<path d="M24.0134 23.527H23.3647V24.2838H24.0134V23.527Z" fill="black"/>
<path d="M26.9323 23.527H26.2837V24.2838H26.9323V23.527Z" fill="black"/>
<path d="M28.4462 23.527H27.6895V24.2838H28.4462V23.527Z" fill="black"/>
<path d="M5.20285 24.2838H4.5542V24.9324H5.20285V24.2838Z" fill="black"/>
<path d="M6.71623 24.2838H5.95947V24.9324H6.71623V24.2838Z" fill="black"/>
<path d="M7.36496 24.2838H6.71631V24.9324H7.36496V24.2838Z" fill="black"/>
<path d="M8.1215 24.2838H7.36475V24.9324H8.1215V24.2838Z" fill="black"/>
<path d="M9.63517 24.2838H8.87842V24.9324H9.63517V24.2838Z" fill="black"/>
<path d="M11.7973 24.2838H11.0405V24.9324H11.7973V24.2838Z" fill="black"/>
<path d="M12.446 24.2838H11.7974V24.9324H12.446V24.2838Z" fill="black"/>
<path d="M13.9594 24.2838H13.2026V24.9324H13.9594V24.2838Z" fill="black"/>
<path d="M14.6081 24.2838H13.9595V24.9324H14.6081V24.2838Z" fill="black"/>
<path d="M19.6892 24.2838H19.0405V24.9324H19.6892V24.2838Z" fill="black"/>
<path d="M20.4462 24.2838H19.6895V24.9324H20.4462V24.2838Z" fill="black"/>
<path d="M24.7704 24.2838H24.0137V24.9324H24.7704V24.2838Z" fill="black"/>
<path d="M26.2836 24.2838H25.5269V24.9324H26.2836V24.2838Z" fill="black"/>
<path d="M26.9323 24.2838H26.2837V24.9324H26.9323V24.2838Z" fill="black"/>
<path d="M5.20285 24.9324H4.5542V25.6892H5.20285V24.9324Z" fill="black"/>
<path d="M9.63517 24.9324H8.87842V25.6892H9.63517V24.9324Z" fill="black"/>
<path d="M12.446 24.9324H11.7974V25.6892H12.446V24.9324Z" fill="black"/>
<path d="M17.5271 24.9324H16.8784V25.6892H17.5271V24.9324Z" fill="black"/>
<path d="M19.0404 24.9324H18.2837V25.6892H19.0404V24.9324Z" fill="black"/>
<path d="M19.6892 24.9324H19.0405V25.6892H19.6892V24.9324Z" fill="black"/>
<path d="M21.2026 24.9324H20.4458V25.6892H21.2026V24.9324Z" fill="black"/>
<path d="M21.8513 24.9324H21.2026V25.6892H21.8513V24.9324Z" fill="black"/>
<path d="M22.6083 24.9324H21.8516V25.6892H22.6083V24.9324Z" fill="black"/>
<path d="M24.7704 24.9324H24.0137V25.6892H24.7704V24.9324Z" fill="black"/>
<path d="M26.9323 24.9324H26.2837V25.6892H26.9323V24.9324Z" fill="black"/>
<path d="M27.6894 24.9324H26.9326V25.6892H27.6894V24.9324Z" fill="black"/>
<path d="M28.4462 24.9324H27.6895V25.6892H28.4462V24.9324Z" fill="black"/>
<path d="M5.20285 25.6892H4.5542V26.446H5.20285V25.6892Z" fill="black"/>
<path d="M5.95939 25.6892H5.20264V26.446H5.95939V25.6892Z" fill="black"/>
<path d="M6.71623 25.6892H5.95947V26.446H6.71623V25.6892Z" fill="black"/>
<path d="M7.36496 25.6892H6.71631V26.446H7.36496V25.6892Z" fill="black"/>
<path d="M8.1215 25.6892H7.36475V26.446H8.1215V25.6892Z" fill="black"/>
<path d="M8.87834 25.6892H8.12158V26.446H8.87834V25.6892Z" fill="black"/>
<path d="M9.63517 25.6892H8.87842V26.446H9.63517V25.6892Z" fill="black"/>
<path d="M11.7973 25.6892H11.0405V26.446H11.7973V25.6892Z" fill="black"/>
<path d="M12.446 25.6892H11.7974V26.446H12.446V25.6892Z" fill="black"/>
<path d="M21.8513 25.6892H21.2026V26.446H21.8513V25.6892Z" fill="black"/>
<path d="M23.3652 25.6892H22.6084V26.446H23.3652V25.6892Z" fill="black"/>
<path d="M24.7704 25.6892H24.0137V26.446H24.7704V25.6892Z" fill="black"/>
<path d="M26.2836 25.6892H25.5269V26.446H26.2836V25.6892Z" fill="black"/>
<path d="M28.4462 25.6892H27.6895V26.446H28.4462V25.6892Z" fill="black"/>
<path d="M1.20264 6.55402H31.7972" stroke="#4D36D0"/>
<path d="M31.7974 5.36484V7.74322" stroke="#4D36D0"/>
<path d="M1.20264 5.36484V7.74322" stroke="#4D36D0"/>
</svg>
