<svg width="31" height="30" viewBox="0 0 31 30" fill="none" xmlns="http://www.w3.org/2000/svg">
<g clip-path="url(#clip0_62_350)">
<path d="M15.5 18.75C17.5711 18.75 19.25 17.0711 19.25 15C19.25 12.9289 17.5711 11.25 15.5 11.25C13.4289 11.25 11.75 12.9289 11.75 15C11.75 17.0711 13.4289 18.75 15.5 18.75Z" stroke="white" stroke-width="2" stroke-linecap="round" stroke-linejoin="round"/>
<path d="M24.75 18.75C24.5836 19.127 24.534 19.5452 24.6075 19.9507C24.681 20.3562 24.8743 20.7304 25.1625 21.025L25.2375 21.1C25.4699 21.3322 25.6543 21.6079 25.7801 21.9114C25.906 22.2149 25.9707 22.5402 25.9707 22.8688C25.9707 23.1973 25.906 23.5226 25.7801 23.8261C25.6543 24.1296 25.4699 24.4053 25.2375 24.6375C25.0053 24.8699 24.7296 25.0543 24.4261 25.1801C24.1226 25.306 23.7973 25.3707 23.4688 25.3707C23.1402 25.3707 22.8149 25.306 22.5114 25.1801C22.2079 25.0543 21.9322 24.8699 21.7 24.6375L21.625 24.5625C21.3304 24.2743 20.9562 24.081 20.5507 24.0075C20.1452 23.934 19.727 23.9836 19.35 24.15C18.9803 24.3085 18.665 24.5716 18.4429 24.9069C18.2208 25.2423 18.1016 25.6353 18.1 26.0375V26.25C18.1 26.913 17.8366 27.5489 17.3678 28.0178C16.8989 28.4866 16.263 28.75 15.6 28.75C14.937 28.75 14.3011 28.4866 13.8322 28.0178C13.3634 27.5489 13.1 26.913 13.1 26.25V26.1375C13.0903 25.7238 12.9564 25.3225 12.7156 24.9859C12.4749 24.6493 12.1384 24.3929 11.75 24.25C11.373 24.0836 10.9548 24.034 10.5493 24.1075C10.1438 24.181 9.7696 24.3743 9.475 24.6625L9.4 24.7375C9.16782 24.9699 8.8921 25.1543 8.5886 25.2801C8.28511 25.406 7.95979 25.4707 7.63125 25.4707C7.30271 25.4707 6.97739 25.406 6.6739 25.2801C6.3704 25.1543 6.09468 24.9699 5.8625 24.7375C5.63006 24.5053 5.44566 24.2296 5.31985 23.9261C5.19404 23.6226 5.12928 23.2973 5.12928 22.9688C5.12928 22.6402 5.19404 22.3149 5.31985 22.0114C5.44566 21.7079 5.63006 21.4322 5.8625 21.2L5.9375 21.125C6.22567 20.8304 6.41898 20.4562 6.49251 20.0507C6.56603 19.6452 6.51639 19.227 6.35 18.85C6.19155 18.4803 5.92844 18.165 5.59308 17.9429C5.25772 17.7208 4.86473 17.6016 4.4625 17.6H4.25C3.58696 17.6 2.95107 17.3366 2.48223 16.8678C2.01339 16.3989 1.75 15.763 1.75 15.1C1.75 14.437 2.01339 13.8011 2.48223 13.3322C2.95107 12.8634 3.58696 12.6 4.25 12.6H4.3625C4.77624 12.5903 5.17751 12.4564 5.51412 12.2156C5.85074 11.9749 6.10714 11.6384 6.25 11.25C6.41639 10.873 6.46603 10.4548 6.39251 10.0493C6.31898 9.64377 6.12567 9.2696 5.8375 8.975L5.7625 8.9C5.53006 8.66782 5.34566 8.3921 5.21985 8.0886C5.09404 7.78511 5.02928 7.45979 5.02928 7.13125C5.02928 6.80271 5.09404 6.47739 5.21985 6.1739C5.34566 5.8704 5.53006 5.59468 5.7625 5.3625C5.99468 5.13006 6.2704 4.94566 6.5739 4.81985C6.87739 4.69404 7.20271 4.62928 7.53125 4.62928C7.85979 4.62928 8.18511 4.69404 8.4886 4.81985C8.7921 4.94566 9.06782 5.13006 9.3 5.3625L9.375 5.4375C9.6696 5.72567 10.0438 5.91898 10.4493 5.99251C10.8548 6.06603 11.273 6.01639 11.65 5.85H11.75C12.1197 5.69155 12.435 5.42844 12.6571 5.09308C12.8792 4.75772 12.9984 4.36473 13 3.9625V3.75C13 3.08696 13.2634 2.45107 13.7322 1.98223C14.2011 1.51339 14.837 1.25 15.5 1.25C16.163 1.25 16.7989 1.51339 17.2678 1.98223C17.7366 2.45107 18 3.08696 18 3.75V3.8625C18.0016 4.26473 18.1208 4.65772 18.3429 4.99308C18.565 5.32844 18.8803 5.59155 19.25 5.75C19.627 5.91639 20.0452 5.96603 20.4507 5.89251C20.8562 5.81898 21.2304 5.62567 21.525 5.3375L21.6 5.2625C21.8322 5.03006 22.1079 4.84566 22.4114 4.71985C22.7149 4.59404 23.0402 4.52928 23.3688 4.52928C23.6973 4.52928 24.0226 4.59404 24.3261 4.71985C24.6296 4.84566 24.9053 5.03006 25.1375 5.2625C25.3699 5.49468 25.5543 5.7704 25.6801 6.0739C25.806 6.37739 25.8707 6.70271 25.8707 7.03125C25.8707 7.35979 25.806 7.68511 25.6801 7.9886C25.5543 8.2921 25.3699 8.56782 25.1375 8.8L25.0625 8.875C24.7743 9.1696 24.581 9.54377 24.5075 9.94926C24.434 10.3548 24.4836 10.773 24.65 11.15V11.25C24.8085 11.6197 25.0716 11.935 25.4069 12.1571C25.7423 12.3792 26.1353 12.4984 26.5375 12.5H26.75C27.413 12.5 28.0489 12.7634 28.5178 13.2322C28.9866 13.7011 29.25 14.337 29.25 15C29.25 15.663 28.9866 16.2989 28.5178 16.7678C28.0489 17.2366 27.413 17.5 26.75 17.5H26.6375C26.2353 17.5016 25.8423 17.6208 25.5069 17.8429C25.1716 18.065 24.9085 18.3803 24.75 18.75Z" stroke="white" stroke-width="2" stroke-linecap="round" stroke-linejoin="round"/>
</g>
<defs>
<clipPath id="clip0_62_350">
<rect width="30" height="30" fill="white" transform="translate(0.5)"/>
</clipPath>
</defs>
</svg>
